<?xml version="1.0" encoding="UTF-8"?>
<svg width="16px" height="14px" viewBox="0 0 16 14" version="1.1" xmlns="http://www.w3.org/2000/svg" xmlns:xlink="http://www.w3.org/1999/xlink">
    <!-- Generator: Sketch 54.1 (76490) - https://sketchapp.com -->
    <title>regular/balance-scale-right</title>
    <desc>Created with Sketch.</desc>
    <defs>
        <path d="M10.4,13.2 L10.3995,13.2 C10.3995,12.80825 10.4515,13.01875 8.27324998,8.66224998 C8.05249998,8.22049998 7.62624997,7.99999997 7.20024997,7.99999997 C6.77374997,7.99999997 6.34724996,8.22099998 6.12649996,8.66224998 C3.96699995,12.98175 4.00049995,12.7955 4.00049995,13.2 L3.99999995,13.2 C3.99999995,14.3045 5.43274996,15.2 7.19999997,15.2 C8.96724998,15.2 10.4,14.3045 10.4,13.2 Z M7.19999997,9.19899998 L7.20049997,9.19999998 C7.20424997,9.19999998 8.84949998,12.483 9.00424998,12.8 L5.39374996,12.8 C5.53999996,12.501 6.70449997,10.19 7.19999997,9.19899998 Z M17.24725,9.80624999 L17.37425,9.42699998 C17.44425,9.21749998 17.33125,8.99074998 17.12175,8.92074998 L13.973,7.86724997 C13.985,7.77899997 14,7.69149997 14,7.59999997 C14,6.49549997 13.1045,5.59999996 12,5.59999996 C11.251,5.59999996 10.606,6.01649996 10.26325,6.62599997 L7.25899997,5.62074996 C7.04949997,5.55074996 6.82274997,5.66374996 6.75274997,5.87324996 L6.62574997,6.25249996 C6.55574997,6.46199997 6.66874997,6.68874997 6.87824997,6.75874997 L10.021,7.81024997 C10.10575,8.60974998 10.6555,9.26274998 11.39975,9.49824998 L11.39975,17.2 L6.79999997,17.2 C6.57899997,17.2 6.39999996,17.379 6.39999996,17.6 L6.39999996,18 C6.39999996,18.221 6.57899997,18.4 6.79999997,18.4 L12.2,18.4 C12.421,18.4 12.6,18.221 12.6,18 L12.6,9.49824998 C12.93225,9.39324998 13.2265,9.20899998 13.4585,8.96049998 L16.74075,10.05875 C16.9505,10.12875 17.177,10.01575 17.24725,9.80624999 Z M12,8.39999998 C11.559,8.39999998 11.2,8.04099998 11.2,7.59999997 C11.2,7.15899997 11.559,6.79999997 12,6.79999997 C12.441,6.79999997 12.8,7.15899997 12.8,7.59999997 C12.8,8.04099998 12.441,8.39999998 12,8.39999998 Z M19.9995,16.4 C19.9995,16.00825 20.0515001,16.21875 17.87325,11.86225 C17.65225,11.4205 17.22625,11.19975 16.80025,11.2 C16.37375,11.2 15.94725,11.421 15.7265,11.86225 C13.567,16.18175 13.6005,15.9955 13.6005,16.4 L13.6,16.4 C13.6,17.5045 15.03275,18.4 16.8,18.4 C18.56725,18.4 20.0000001,17.5045 20.0000001,16.4 L19.9995,16.4 Z M14.99375,16 C15.14,15.701 16.3045,13.39 16.8,12.399 L16.8005,12.4 C16.80425,12.4 16.807,12.40075 16.80775,12.40075 C17.26875,13.336 18.4495,15.683 18.6045,16 L14.99375,16 Z" id="path-1"></path>
    </defs>
    <g id="Wallet" stroke="none" stroke-width="1" fill="none" fill-rule="evenodd">
        <g id="Wallet-Account" transform="translate(-370.000000, -210.000000)">
            <g id="Group-13" transform="translate(360.000000, 199.000000)">
                <g id="regular/balance-scale-right" transform="translate(6.000000, 6.000000)">
                    <mask id="mask-2" fill="white">
                        <use xlink:href="#path-1"></use>
                    </mask>
                    <g id="balance-scale-right" fill-rule="nonzero"></g>
                    <g id="color/green" mask="url(#mask-2)" fill="#4DD4B6" fill-rule="nonzero">
                        <rect id="Rectangle" x="0" y="0" width="24" height="24"></rect>
                    </g>
                </g>
            </g>
        </g>
    </g>
</svg>