<?xml version="1.0" encoding="UTF-8"?>
<svg width="16px" height="16px" viewBox="0 0 16 16" version="1.1" xmlns="http://www.w3.org/2000/svg" xmlns:xlink="http://www.w3.org/1999/xlink">
    <!-- Generator: Sketch 54.1 (76490) - https://sketchapp.com -->
    <title>regular/balance-scale-right</title>
    <desc>Created with Sketch.</desc>
    <defs>
        <path d="M13.9999999,3.99999995 C10.6875,3.99999995 7.99999997,5.11874996 7.99999995,6.49999995 L7.99999997,8.14374998 C5.67187496,8.48749998 3.99999995,9.41249998 3.99999995,10.4999999 L3.99999995,17.4999999 C3.99999995,18.88125 6.68749997,20.0000001 9.99999995,19.9999999 C13.3125,20.0000001 16,18.88125 15.9999999,17.4999999 L16,15.853125 C18.328125,15.509375 20.0000001,14.5875 19.9999999,13.4999999 L19.9999999,6.49999995 C20.0000001,5.11874996 17.3125,3.99999995 13.9999999,3.99999995 Z M14.5,17.384375 C14.1875,17.75 12.6125,18.5 9.99999999,18.5 C7.38749997,18.5 5.81249996,17.75 5.49999996,17.384375 L5.49999996,16.15 C6.59999997,16.66875 8.20624998,17 9.99999999,17 C11.79375,17 13.4,16.66875 14.5,16.15 L14.5,17.384375 Z M14.5,14.384375 C14.1875,14.75 12.6125,15.5 9.99999999,15.5 C7.38749997,15.5 5.81249996,14.75 5.49999996,14.384375 L5.49999996,12.98125 C6.59999997,13.60625 8.20624998,14 9.99999999,14 C11.79375,14 13.4,13.603125 14.5,12.98125 L14.5,14.384375 Z M9.99999996,12.5 C7.51562497,12.5 5.49999996,11.828125 5.49999996,11 C5.49999996,10.171875 7.51562497,9.49999998 9.99999996,9.49999998 C12.484375,9.49999998 14.5,10.171875 14.5,11 C14.5,11.828125 12.484375,12.5 9.99999996,12.5 Z M18.5,13.384375 C18.278125,13.64375 17.409375,14.090625 16,14.334375 L16,12.84375 C16.96875,12.7 17.834375,12.465625 18.5,12.15 L18.5,13.384375 Z M18.5,10.384375 C18.278125,10.64375 17.409375,11.090625 16,11.334375 L16,10.5 C16,10.275 15.921875,10.05625 15.7875,9.84687499 C16.84375,9.68124999 17.7875,9.38437498 18.5,8.97812498 L18.5,10.384375 L18.5,10.384375 Z M14,8.49999996 C13.84375,8.49999998 13.69375,8.49062498 13.540625,8.48437498 C12.728125,8.23749998 11.765625,8.07187498 10.715625,8.01874998 C9.96874999,7.74999997 9.49999998,7.39374997 9.49999998,6.99999996 C9.49999998,6.17187496 11.515625,5.49999996 14,5.49999996 C16.484375,5.49999996 18.5,6.17187496 18.5,6.99999996 C18.5,7.82812497 16.484375,8.49999998 14,8.49999996 Z" id="path-1"></path>
    </defs>
    <g id="Wallet" stroke="none" stroke-width="1" fill="none" fill-rule="evenodd">
        <g id="Wallet-Account" transform="translate(-1045.000000, -209.000000)">
            <g id="Group-13-Copy-3" transform="translate(1035.000000, 199.000000)">
                <g id="regular/coins" transform="translate(6.000000, 6.000000)">
                    <mask id="mask-2" fill="white">
                        <use xlink:href="#path-1"></use>
                    </mask>
                    <g id="coins" fill-rule="nonzero"></g>
                    <g id="color/lime" mask="url(#mask-2)" fill="#CCEE3F" fill-rule="nonzero">
                        <rect id="Rectangle" x="0" y="0" width="24" height="24"></rect>
                    </g>
                </g>
            </g>
        </g>
    </g>
</svg>