<?xml version="1.0" encoding="UTF-8"?>
<svg width="12px" height="16px" viewBox="0 0 12 16" version="1.1" xmlns="http://www.w3.org/2000/svg" xmlns:xlink="http://www.w3.org/1999/xlink">
    <!-- Generator: Sketch 54.1 (76490) - https://sketchapp.com -->
    <title>regular/balance-scale-right</title>
    <desc>Created with Sketch.</desc>
    <defs>
        <path d="M11.75,13.25 L12.25,13.25 C12.388125,13.25 12.5,13.138125 12.5,13 L12.5,12.49625 C13.238125,12.4765625 13.8334375,11.854375 13.8334375,11.0878125 C13.8334375,10.46375 13.4278125,9.90624999 12.8465625,9.73187499 L11.4403125,9.30999998 C11.2790625,9.26156248 11.16625,9.09812498 11.16625,8.91218748 C11.16625,8.68499998 11.331875,8.49999998 11.535,8.49999998 L12.4134375,8.49999998 C12.5559375,8.49999998 12.6934375,8.54031248 12.8140625,8.61624998 C12.9153125,8.67968748 13.0440625,8.67593748 13.130625,8.59343748 L13.4978125,8.24312498 C13.608125,8.13781248 13.601875,7.95531247 13.48,7.86374997 C13.195625,7.65031247 12.8525,7.52718747 12.4996875,7.50906247 L12.4996875,6.99999997 C12.4996875,6.86187497 12.3878125,6.74999997 12.2496875,6.74999997 L11.7496875,6.74999997 C11.6115625,6.74999997 11.4996875,6.86187497 11.4996875,6.99999997 L11.4996875,7.50374997 C10.7615625,7.52343747 10.16625,8.14593748 10.16625,8.91218748 C10.16625,9.53624998 10.571875,10.09375 11.153125,10.268125 L12.559375,10.69 C12.720625,10.7384375 12.8334375,10.901875 12.8334375,11.0878125 C12.8334375,11.315 12.6678125,11.5 12.4646875,11.5 L11.58625,11.5 C11.44375,11.5 11.30625,11.4596875 11.185625,11.38375 C11.084375,11.3203125 10.955625,11.3240625 10.8690625,11.4065625 L10.501875,11.756875 C10.3915625,11.8621875 10.3978125,12.0446875 10.5196875,12.13625 C10.8040625,12.3496875 11.1471875,12.4728125 11.5,12.4909375 L11.5,13 C11.5,13.138125 11.611875,13.25 11.75,13.25 Z M9.50187498,18.3490625 C9.50187498,18.4475 9.53093748,18.5434375 9.58562498,18.6253125 L10.3515625,19.7765625 C10.444375,19.9159375 10.600625,19.9996875 10.7678125,19.9996875 L13.231875,19.9996875 C13.399375,19.9996875 13.555625,19.9159375 13.648125,19.7765625 L14.4140625,18.6253125 C14.4684375,18.5434375 14.4975,18.4471875 14.4978125,18.3490625 L14.499375,16.9996875 L9.50062498,16.9996875 L9.50187498,18.3490625 Z M12,3.99999995 C8.80374998,3.99999995 6.49999997,6.59281247 6.49999997,9.49999995 C6.49999997,10.8865625 7.01406247,12.1515625 7.86124997,13.118125 C8.38124998,13.7115625 9.19687498,14.955625 9.49937498,15.998125 L9.49937498,16 L10.999375,16 L10.999375,15.99625 C10.9990625,15.8471875 10.976875,15.6990625 10.9321875,15.5565625 C10.7575,15 10.2190625,13.5325 8.98937498,12.129375 C8.34749998,11.3971875 8.00437498,10.4684375 8.00156248,9.49999998 C7.99531247,7.19874997 9.86624999,5.49999996 12,5.49999995 C14.205625,5.49999996 16,7.29437497 16,9.49999995 C16,10.4678125 15.64875,11.4015625 15.0109375,12.129375 C13.78875,13.5234375 13.2478125,14.9878125 13.0703125,15.55 C13.0245027,15.6945416 13.0011063,15.845248 13.0009375,15.996875 L13.0009375,16 L14.5009375,16 L14.5009375,15.9984375 C14.8034375,14.955625 15.6190625,13.7115625 16.1390625,13.1184375 C16.9859375,12.1515625 17.5,10.8865625 17.5,9.49999995 C17.5,6.46249997 15.0375,3.99999995 12,3.99999995 Z" id="path-1"></path>
    </defs>
    <g id="Wallet" stroke="none" stroke-width="1" fill="none" fill-rule="evenodd">
        <g id="Wallet-Account" transform="translate(-597.000000, -209.000000)">
            <g id="Group-13-Copy" transform="translate(585.000000, 199.000000)">
                <g id="regular/lightbulb-dollar" transform="translate(6.000000, 6.000000)">
                    <mask id="mask-2" fill="white">
                        <use xlink:href="#path-1"></use>
                    </mask>
                    <g id="lightbulb-dollar" fill-rule="nonzero"></g>
                    <g id="color/blue" mask="url(#mask-2)" fill="#29CDFB" fill-rule="nonzero">
                        <rect id="Rectangle" x="0" y="0" width="24" height="24"></rect>
                    </g>
                </g>
            </g>
        </g>
    </g>
</svg>