<?xml version="1.0" encoding="UTF-8"?>
<svg width="22px" height="22px" viewBox="0 0 22 22" version="1.1" xmlns="http://www.w3.org/2000/svg" xmlns:xlink="http://www.w3.org/1999/xlink">
    <!-- Generator: Sketch 51 (57462) - http://www.bohemiancoding.com/sketch -->
    <title>meet.one</title>
    <desc>Created with Sketch.</desc>
    <defs>
        <polygon id="path-1" points="0 0.0001 22 0.0001 22 22 0 22"></polygon>
    </defs>
    <g id="Page-1" stroke="none" stroke-width="1" fill="none" fill-rule="evenodd">
        <g id="assets" transform="translate(-457.000000, -528.000000)">
            <rect fill="none" x="0" y="0" width="1440" height="1800"></rect>
            <g id="meet.one" transform="translate(457.000000, 528.000000)">
                <g id="Group-3">
                    <mask id="mask-2" fill="white">
                        <use xlink:href="#path-1"></use>
                    </mask>
                    <g id="Clip-2"></g>
                    <path d="M22,11.0001 C22,17.0751 17.075,22.0001 11,22.0001 C4.925,22.0001 0,17.0751 0,11.0001 C0,4.9251 4.925,0.0001 11,0.0001 C17.075,0.0001 22,4.9251 22,11.0001" id="Fill-1" fill="#000000" mask="url(#mask-2)"></path>
                </g>
                <path d="M6.7242,15.3458 L11.0002,18.0958 L15.2752,15.3458 L13.7752,8.5048 L11.0002,4.1678 L8.2242,8.5048 L6.7242,15.3458 Z M11.0002,19.0118 C10.9262,19.0118 10.8532,18.9918 10.7882,18.9498 L6.0542,15.9048 C5.9062,15.8098 5.8332,15.6278 5.8722,15.4518 L7.4532,8.2418 C7.4642,8.1928 7.4842,8.1448 7.5112,8.1018 L10.6642,3.1758 C10.7392,3.0588 10.8652,2.9888 11.0002,2.9888 C11.1352,2.9888 11.2612,3.0588 11.3362,3.1758 L14.4892,8.1018 C14.5162,8.1448 14.5362,8.1928 14.5472,8.2418 L16.1282,15.4518 C16.1662,15.6278 16.0932,15.8098 15.9462,15.9048 L11.2122,18.9498 C11.1472,18.9918 11.0742,19.0118 11.0002,19.0118 Z" id="Fill-4" fill="#808080"></path>
                <path d="M16.128,15.4522 L14.547,8.2422 C14.545,8.2362 14.543,8.2302 14.541,8.2242 C14.537,8.2052 14.53,8.1852 14.523,8.1662 C14.521,8.1642 14.521,8.1612 14.52,8.1592 C14.475,8.0522 14.389,7.9632 14.273,7.9242 C14.061,7.8532 13.833,7.9752 13.765,8.1972 L11.01,17.2022 L8.237,8.1972 C8.17,7.9752 7.942,7.8532 7.73,7.9252 C7.642,7.9542 7.572,8.0122 7.523,8.0852 C7.518,8.0922 7.515,8.0982 7.51,8.1052 C7.503,8.1182 7.496,8.1302 7.49,8.1422 C7.475,8.1732 7.461,8.2062 7.453,8.2422 L5.872,15.4522 C5.822,15.6792 5.959,15.9042 6.176,15.9562 C6.206,15.9642 6.236,15.9672 6.266,15.9672 C6.451,15.9672 6.617,15.8352 6.66,15.6392 L7.917,9.9102 L10.626,18.7142 C10.641,18.7622 10.663,18.8042 10.691,18.8422 C10.695,18.8472 10.7,18.8522 10.704,18.8572 C10.715,18.8712 10.727,18.8842 10.74,18.8962 C10.746,18.9022 10.753,18.9072 10.759,18.9132 C10.772,18.9242 10.786,18.9332 10.799,18.9422 C10.806,18.9472 10.813,18.9512 10.82,18.9562 C10.842,18.9682 10.864,18.9782 10.887,18.9862 L10.888,18.9862 C10.897,18.9892 10.906,18.9902 10.915,18.9932 C10.926,18.9962 10.937,18.9992 10.949,19.0012 C10.967,19.0042 10.986,19.0062 11.005,19.0062 C11.007,19.0062 11.009,19.0072 11.011,19.0072 L11.011,19.0062 L11.011,19.0072 C11.013,19.0072 11.016,19.0062 11.018,19.0062 C11.036,19.0062 11.055,19.0042 11.073,19.0012 C11.088,18.9992 11.102,18.9952 11.116,18.9902 C11.122,18.9892 11.128,18.9882 11.134,18.9862 L11.135,18.9862 C11.158,18.9782 11.181,18.9682 11.202,18.9552 C11.21,18.9512 11.216,18.9462 11.223,18.9422 C11.237,18.9332 11.25,18.9242 11.263,18.9132 C11.27,18.9072 11.276,18.9012 11.283,18.8952 C11.295,18.8842 11.307,18.8712 11.318,18.8572 C11.322,18.8512 11.327,18.8472 11.331,18.8412 C11.359,18.8042 11.381,18.7612 11.396,18.7132 L14.086,9.9212 L15.34,15.6392 C15.383,15.8352 15.549,15.9672 15.734,15.9672 C15.764,15.9672 15.794,15.9642 15.824,15.9562 C16.042,15.9042 16.178,15.6792 16.128,15.4522" id="Fill-6" fill="#FFFFFF"></path>
            </g>
        </g>
    </g>
</svg>