<?xml version="1.0" encoding="UTF-8"?>
<svg width="16px" height="14px" viewBox="0 0 16 14" version="1.1" xmlns="http://www.w3.org/2000/svg" xmlns:xlink="http://www.w3.org/1999/xlink">
    <!-- Generator: Sketch 54.1 (76490) - https://sketchapp.com -->
    <title>regular/balance-scale-right</title>
    <desc>Created with Sketch.</desc>
    <defs>
        <path d="M11.2287051,9.19937596 L12.4792512,9.55631824 C12.5691108,9.58127924 12.6315133,9.66614663 12.6315133,9.75850233 C12.6315133,9.87332292 12.5366615,9.96817471 12.4218409,9.96817471 L11.6031201,9.96817471 C11.5132605,9.96817471 11.425897,9.94820592 11.3460218,9.91326052 C11.226209,9.85834632 11.0864275,9.87082682 10.9940718,9.96318251 L10.5572543,10.4 C10.424961,10.5322933 10.4399376,10.7569423 10.5946958,10.8592824 C10.8318253,11.0165367 11.1039002,11.1113884 11.3884555,11.1463338 L11.3884555,11.5881435 C11.3884555,11.8078003 11.5681747,11.9875195 11.7878315,11.9875195 L12.1872075,11.9875195 C12.4068643,11.9875195 12.5865835,11.8078003 12.5865835,11.5881435 L12.5865835,11.1488299 C13.3429017,11.0589704 13.9195008,10.375039 13.8171607,9.57628704 C13.7447738,9.00218407 13.300468,8.54539779 12.7463339,8.3856474 L11.4957878,8.02870512 C11.4059282,8.00374412 11.3435257,7.91887673 11.3435257,7.82652103 C11.3435257,7.71170044 11.4383775,7.61684865 11.5531981,7.61684865 L12.3719189,7.61684865 C12.4617785,7.61684865 12.549142,7.63681745 12.6290172,7.67176284 C12.74883,7.72667704 12.8886116,7.71419654 12.9809672,7.62184085 L13.4177847,7.18502337 C13.550078,7.05273008 13.5351014,6.82808109 13.3803432,6.725741 C13.1432137,6.56848671 12.8711389,6.47363491 12.5865835,6.43868951 L12.5865835,5.99687984 C12.5865835,5.77722305 12.4068643,5.59750386 12.1872075,5.59750386 L11.7878315,5.59750386 C11.5681747,5.59750386 11.3884555,5.77722305 11.3884555,5.99687984 L11.3884555,6.43619341 C10.6321373,6.52605301 10.0555382,7.20998437 10.1578783,8.00873632 C10.2302652,8.58283929 10.6720749,9.03962557 11.2287051,9.19937596 Z M18.300156,7.99875193 C17.2542902,7.92886113 16.3806553,8.76006238 16.3806553,9.79095162 C16.3806553,9.79095162 16.3781592,10.7644306 16.3756631,11.6879875 C16.0836194,11.4932917 15.7341654,11.3884555 15.3822153,11.3884555 C14.8205928,11.3884555 14.3014041,11.6430577 13.9594384,12.0873635 L12.1672387,14.4162247 C12.099844,14.5035882 12.0424337,14.6009361 11.9875195,14.6957878 C11.9301092,14.6009361 11.875195,14.5035882 11.8078003,14.4162247 L10.0156006,12.0873635 C9.67113883,11.6430577 9.15195006,11.3884555 8.59282369,11.3884555 C8.24087361,11.3884555 7.89141963,11.4957878 7.59937595,11.6879875 C7.59687985,10.7619345 7.59438375,9.79095162 7.59438375,9.79095162 C7.59438375,8.76006238 6.7207488,7.92886113 5.67488296,7.99875193 C4.71887671,8.06115442 3.99999995,8.89734787 3.99999995,9.85335412 L3.99999995,14.6333854 C3.99999995,15.2648986 4.21716064,15.8864275 4.61154442,16.3806553 L6.07675503,18.2277691 C6.15163803,18.3226209 6.26895472,18.3800312 6.38876752,18.3800312 L6.79563179,18.3800312 C7.01528858,18.3800312 7.19500777,18.2003121 7.19500777,17.9806553 C7.19500777,17.7934478 7.13010917,17.6112325 7.01528858,17.4664587 L5.54758186,15.6318253 C5.32043678,15.349766 5.19812788,14.9978159 5.19812788,14.6333854 L5.19812788,9.81341652 C5.19812788,9.52386894 5.39282367,9.25678625 5.67737906,9.20436816 C6.05928233,9.12948516 6.39625582,9.42152885 6.39625582,9.79095162 C6.39625582,9.79095162 6.40124801,12.3120125 6.40374411,13.10078 C6.40374411,13.2904836 6.47363491,13.4702028 6.5984399,13.6149766 L8.5079563,15.9263651 C8.71014039,16.1709829 9.09703586,16.2034322 9.33416535,15.9513261 C9.52137284,15.7541342 9.51638064,15.4421217 9.35413415,15.2224649 L8.11856472,13.550078 C7.91638063,13.2879875 7.96630263,12.9110764 8.22839311,12.7088924 C8.33822151,12.624025 8.4655226,12.5840874 8.59282369,12.5840874 C8.77254288,12.5840874 8.94976597,12.6639626 9.06957876,12.8187208 L10.8592824,15.1450858 C11.073947,15.424649 11.1912636,15.7666147 11.1912636,16.1185648 L11.1912636,17.9781592 C11.1912636,18.197816 11.3709828,18.3775351 11.5906396,18.3775351 L12.3893916,18.3775351 C12.6090484,18.3775351 12.7887676,18.197816 12.7887676,17.9781592 L12.7887676,16.1210609 C12.7887676,15.7691108 12.9060842,15.4271451 13.1207488,15.1475819 L14.9104524,12.8212169 C15.0277691,12.6689548 15.2074883,12.5865835 15.3872075,12.5865835 C15.5145086,12.5865835 15.6418097,12.6265211 15.7516381,12.7113885 C16.0137286,12.9135725 16.0636506,13.2879875 15.8614665,13.5525741 L14.6258971,15.224961 C14.4636506,15.4446178 14.4611545,15.7566303 14.6458659,15.9538222 C14.900468,16.2258971 15.2873635,16.1510141 15.4720749,15.9288612 L17.3815913,13.6174727 C17.5063963,13.4726989 17.573791,13.2929797 17.5762871,13.1032761 C17.573791,12.3120125 17.5787832,9.79095162 17.5787832,9.79095162 C17.5787832,9.42152885 17.9132606,9.12948516 18.2976599,9.20436816 C18.5822153,9.25928235 18.7769111,9.52386894 18.7769111,9.81341652 L18.7769111,14.6333854 C18.7769111,14.9953198 18.6546022,15.3472699 18.4274571,15.6293292 L16.9622465,17.4614665 C16.8449298,17.6087364 16.7825273,17.7884556 16.7825273,17.9756631 C16.7825273,18.1953199 16.9622465,18.375039 17.1819033,18.375039 L17.5887676,18.375039 C17.7110765,18.375039 17.8258971,18.3201248 17.9007801,18.2227769 L19.3659907,16.3756631 C19.7603745,15.8814353 19.9775352,15.2624025 19.9775352,14.6283932 L19.9775352,9.85335412 C19.9750391,8.89734787 19.2561623,8.06115442 18.300156,7.99875193 L18.300156,7.99875193 Z" id="path-1"></path>
    </defs>
    <g id="Wallet" stroke="none" stroke-width="1" fill="none" fill-rule="evenodd">
        <g id="Wallet-Account" transform="translate(-820.000000, -210.000000)">
            <g id="Group-13-Copy-2" transform="translate(810.000000, 199.000000)">
                <g id="regular/hands-usd" transform="translate(6.000000, 6.000000)">
                    <mask id="mask-2" fill="white">
                        <use xlink:href="#path-1"></use>
                    </mask>
                    <g id="hands-usd" fill-rule="nonzero"></g>
                    <g id="color/pink" mask="url(#mask-2)" fill="#EE3374" fill-rule="nonzero">
                        <rect id="Rectangle" x="0" y="0" width="24" height="24"></rect>
                    </g>
                </g>
            </g>
        </g>
    </g>
</svg>