<?xml version="1.0" encoding="UTF-8"?>
<svg width="20px" height="20px" viewBox="0 0 20 20" version="1.1" xmlns="http://www.w3.org/2000/svg" xmlns:xlink="http://www.w3.org/1999/xlink">
    <!-- Generator: Sketch 54.1 (76490) - https://sketchapp.com -->
    <title>Group 6</title>
    <desc>Created with Sketch.</desc>
    <defs>
        <polygon id="path-1" points="0 0.039408867 19.9605911 0.039408867 19.9605911 19.9999901 0 19.9999901"></polygon>
    </defs>
    <g id="Page-1" stroke="none" stroke-width="1" fill="none" fill-rule="evenodd">
        <g id="Dashboard" transform="translate(-1130.000000, -26.000000)">
            <g id="Scatter_button" transform="translate(1115.000000, 16.000000)">
                <g id="Group-6" transform="translate(15.000000, 10.000000)">
                    <g id="Group-3" transform="translate(0.000000, 0.059113)">
                        <mask id="mask-2" fill="white">
                            <use xlink:href="#path-1"></use>
                        </mask>
                        <g id="Clip-2"></g>
                        <path d="M9.98029557,0.0393990148 C15.4922167,0.0393990148 19.9605911,4.5077734 19.9605911,10.0196946 C19.9605911,15.5316158 15.4922167,19.9999901 9.98029557,19.9999901 C4.46837438,19.9999901 0,15.5316158 0,10.0196946 C0,4.5077734 4.46837438,0.0393990148 9.98029557,0.0393990148" id="Fill-1" fill="#0077FF" mask="url(#mask-2)"></path>
                    </g>
                    <path d="M9.25124138,16.3842069 C8.90641379,16.3842069 8.62069951,16.3448966 8.39409852,16.2659803 C8.16749754,16.1871626 7.98030542,16.0985911 7.8522266,16.0098227 C7.71429557,15.9113005 7.62562562,15.8226305 7.57636453,15.7339606 C7.52710345,15.6452906 7.4975468,15.5861773 7.4975468,15.5567192 C7.4975468,15.458197 7.51725123,15.3596749 7.5566601,15.251202 C7.59606897,15.1428276 7.65518227,15.0443054 7.71429557,14.9457833 C7.77340887,14.8472611 7.84237438,14.7685419 7.92119212,14.70933 C8.00000985,14.6502167 8.05912315,14.6108079 8.11823645,14.6108079 C8.19705419,14.6108079 8.25616749,14.660069 8.30542857,14.7585911 L8.38424631,14.8374089 C8.42365517,14.8768177 8.48276847,14.9260788 8.56158621,14.9655862 C8.64040394,15.0048966 8.73892611,15.0541576 8.84730049,15.0935665 C8.96552709,15.1329754 9.09360591,15.1526798 9.25124138,15.1526798 C9.58621675,15.1526798 9.86207882,15.0541576 10.0689754,14.8472611 C10.2857241,14.6403645 10.3842463,14.3645025 10.3842463,14.0098227 C10.3842463,13.7635172 10.325133,13.5467685 10.2167586,13.3497241 C10.098532,13.1526798 9.95074877,12.9753399 9.76355665,12.8078522 C9.57636453,12.6403645 9.36946798,12.4827291 9.12316256,12.3250936 C8.88670936,12.1674581 8.64040394,11.9999704 8.38424631,11.8324828 C8.12808867,11.6650936 7.89163547,11.477803 7.64533005,11.2807586 C7.40887685,11.0837143 7.19212808,10.8571133 7.00493596,10.6009557 C6.81774384,10.344798 6.66996059,10.0492315 6.55173399,9.73396059 C6.43350739,9.40883744 6.38424631,9.0344532 6.38424631,8.6206601 C6.38424631,8.26607882 6.44335961,7.90144828 6.57143842,7.53691626 C6.68966502,7.17238424 6.86700493,6.82755665 7.07390148,6.4926798 C7.29065025,6.16745813 7.54680788,5.85228571 7.83252217,5.56647291 C8.12808867,5.28075862 8.44335961,5.0344532 8.77833498,4.81780296 C9.12316256,4.61080788 9.47784236,4.4433202 9.84237438,4.31524138 C10.2167586,4.19701478 10.5812906,4.13790148 10.9556749,4.13790148 C11.2709458,4.13790148 11.5665123,4.18716256 11.8128177,4.28568473 C12.0689754,4.3842069 12.2857241,4.53199015 12.463064,4.71928079 C12.6404039,4.90637438 12.778335,5.12312315 12.8670049,5.389133 C12.9655271,5.64529064 13.0147882,5.94085714 13.0147882,6.25612808 C13.0147882,6.5615468 12.9655271,6.8571133 12.8571527,7.1526798 C12.7487783,7.44824631 12.6108473,7.7242069 12.4335074,7.99011823 C12.2561675,8.25612808 12.0591232,8.49258128 11.8423744,8.71918227 C11.6256256,8.94578325 11.3990246,9.13297537 11.1625714,9.30056158 C10.9359704,9.46795074 10.7093695,9.58617734 10.4926207,9.68469951 C10.2758719,9.77336946 10.0788276,9.82263054 9.92119212,9.82263054 C9.77340887,9.82263054 9.64533005,9.79317241 9.53695567,9.72410837 C9.42858128,9.65514286 9.33005911,9.57632512 9.25124138,9.47780296 C9.17242365,9.37928079 9.11331034,9.2709064 9.07390148,9.16253202 C9.03449261,9.05425616 9.01478818,8.95573399 9.01478818,8.86696552 C9.01478818,8.798 9.02464039,8.74873892 9.04434483,8.72903448 C9.06404926,8.70942857 9.09360591,8.69947783 9.12316256,8.69947783 C9.16257143,8.69947783 9.2019803,8.70942857 9.25124138,8.71918227 C9.30050246,8.72903448 9.36946798,8.7388867 9.4384335,8.7388867 C9.66503448,8.7388867 9.9113399,8.66016749 10.1773498,8.5024335 C10.4532118,8.34479803 10.6995172,8.14775369 10.9458227,7.91130049 C11.1822759,7.67494581 11.3891724,7.40883744 11.5468079,7.11327094 C11.7044433,6.82755665 11.7931133,6.54194089 11.7931133,6.2659803 C11.7931133,5.99011823 11.7241478,5.76351724 11.5862167,5.6059803 C11.4482857,5.44824631 11.2216847,5.36942857 10.8965616,5.36942857 C10.689665,5.36942857 10.4729163,5.40893596 10.2364631,5.48765517 C10.0000099,5.56647291 9.76355665,5.67484729 9.52710345,5.81277833 C9.29065025,5.95080788 9.05419704,6.11819704 8.83744828,6.31524138 C8.61084729,6.51228571 8.41380296,6.72903448 8.24631527,6.96548768 C8.07882759,7.20194089 7.94089655,7.45809852 7.83252217,7.73396059 C7.72414778,8.00982266 7.6748867,8.29553695 7.6748867,8.60095567 C7.6748867,8.9162266 7.734,9.20203941 7.84237438,9.44834483 C7.96060099,9.69465025 8.10838424,9.92115271 8.29557635,10.1280493 C8.48276847,10.3350443 8.69951724,10.5221379 8.93597044,10.6896256 C9.17242365,10.8571133 9.41872906,11.0344532 9.6748867,11.2019409 C9.92119212,11.3695271 10.1674975,11.5467685 10.413803,11.7241084 C10.6502562,11.9014483 10.8670049,12.0984926 11.054197,12.3152414 C11.2413892,12.5319901 11.3990246,12.7684433 11.507399,13.0344532 C11.6157734,13.3004631 11.6748867,13.6058818 11.6748867,13.9507094 C11.6748867,14.2856847 11.6157734,14.6009557 11.4876946,14.8965222 C11.3596158,15.1920887 11.1921281,15.4482463 10.9753793,15.6748473 C10.7586305,15.8915961 10.5024729,16.068936 10.1970542,16.1971133 C9.89163547,16.3250936 9.59606897,16.3842069 9.25124138,16.3842069" id="Fill-4" fill="#FFFFFF"></path>
                </g>
            </g>
        </g>
    </g>
</svg>