<?xml version="1.0" encoding="UTF-8"?>
<svg width="16px" height="14px" viewBox="0 0 16 14" version="1.1" xmlns="http://www.w3.org/2000/svg" xmlns:xlink="http://www.w3.org/1999/xlink">
    <!-- Generator: Sketch 54.1 (76490) - https://sketchapp.com -->
    <title>regular/balance-scale-right</title>
    <desc>Created with Sketch.</desc>
    <defs>
        <path d="M17.9999999,7.49999996 L17.9999999,6.99999996 C18,5.89531246 17.1046875,4.99999996 15.9999999,4.99999996 L6.99999995,4.99999996 C5.34312496,4.99999996 3.99999995,6.34312496 3.99999995,7.99999996 L3.99999995,16 C3.99999995,17.656875 5.34312496,19 6.99999995,19 L17.9999999,19 C19.1046875,19 20.0000001,18.1046875 19.9999999,17 L19.9999999,9.49999996 C20.0000001,8.39531248 19.1046875,7.49999997 17.9999999,7.49999996 Z M18.5,17 C18.5,17.275625 18.275625,17.5 18,17.5 L6.99999996,17.5 C6.17281246,17.5 5.49999996,16.8271875 5.49999996,16 L5.49999996,7.99999997 C5.49999996,7.17281247 6.17281246,6.49999997 6.99999996,6.49999997 L16,6.49999997 C16.275625,6.49999997 16.5,6.72437497 16.5,6.99999997 L16.5,7.99999997 L7.49999996,7.99999997 C7.22374997,7.99999997 6.99999997,8.22374998 6.99999996,8.49999997 C6.99999997,8.77624998 7.22374997,8.99999998 7.49999996,8.99999997 L18,8.99999997 C18.275625,8.99999998 18.5,9.22437498 18.5,9.49999997 L18.5,17 Z M16,12 C15.4478125,12 15,12.4478125 15,13 C15,13.5521875 15.4478125,14 16,14 C16.5521875,14 17,13.5521875 17,13 C17,12.4478125 16.5521875,12 16,12 Z" id="path-1"></path>
    </defs>
    <g id="Wallet" stroke="none" stroke-width="1" fill="none" fill-rule="evenodd">
        <g id="Wallet-Account" transform="translate(-1270.000000, -210.000000)">
            <g id="Group-13-Copy-4" transform="translate(1260.000000, 199.000000)">
                <g id="regular/wallet" transform="translate(6.000000, 6.000000)">
                    <mask id="mask-2" fill="white">
                        <use xlink:href="#path-1"></use>
                    </mask>
                    <g id="wallet" fill-rule="nonzero"></g>
                    <g id="color/orange" mask="url(#mask-2)" fill="#EE9A33" fill-rule="nonzero">
                        <rect id="Rectangle" x="0" y="0" width="24" height="24"></rect>
                    </g>
                </g>
            </g>
        </g>
    </g>
</svg>