<svg width="80" height="80" viewBox="0 0 80 80" fill="none" xmlns="http://www.w3.org/2000/svg">
<circle cx="40" cy="40" r="40" fill="#131313" fill-opacity="0.5"/>
<path d="M22.8 60.6C21.3 60.6 20 59.4 20 57.8V21.8C20 20.2 21.2 19 22.8 19H39.8C40 19 40.2 19.1 40.3 19.2C40.6 19.5 40.6 20 40.3 20.3L34 26.6C33.9 26.7 33.7 26.8 33.5 26.8C33.4 26.8 33.3 26.8 33.2 26.8C32.7 26.6 32.2 26.5 31.8 26.5C31.6 26.5 31.3 26.5 31 26.6C29.3 26.9 27.8 28.4 27.6 30.1C27.4 31.4 27.7 32.6 28.6 33.6C29.4 34.5 30.6 35.1 31.8 35.1C32 35.1 32.3 35.1 32.5 35C34.2 34.7 35.7 33.3 36 31.6C36.1 30.8 36.1 30.1 35.8 29.4C35.7 29.1 35.8 28.8 36 28.6L45.3 19.3C45.3 19.1 45.5 19 45.7 19H58.7C60.2 19 61.5 20.2 61.5 21.8V57C61.5 57.2 61.4 57.4 61.3 57.5C61.2 57.6 61 57.7 60.8 57.7C60.6 57.7 60.4 57.6 60.3 57.5L53.9 51V51.3L53.7 51.5L53.5 51.4L53.9 51C53.7 50.8 53.6 50.5 53.7 50.2C54 49.5 54 48.8 53.9 48C53.6 46.3 52.1 44.8 50.4 44.6C50.2 44.6 49.9 44.5 49.7 44.5C48.4 44.5 47.3 45 46.5 46C45.7 46.9 45.3 48.2 45.5 49.5C45.8 51.2 47.2 52.7 48.9 53C49.2 53 49.4 53.1 49.6 53.1C50.1 53.1 50.6 53 51 52.8C51.1 52.8 51.2 52.8 51.3 52.8C51.5 52.8 51.7 52.9 51.8 53L58 59.4C58.1 59.5 58.2 59.7 58.2 59.9C58.2 60.3 57.9 60.7 57.4 60.7L22.8 60.6ZM22.8 20.5C22 20.5 21.5 21 21.5 21.8V57.9C21.5 58.6 22 59.1 22.7 59.1H55.8L51 54.2H50.9C50.4 54.3 49.8 54.4 49.2 54.4C49 54.4 48.8 54.4 48.6 54.4C46.2 54 44.3 52.1 43.9 49.7C43.6 48 44.1 46.3 45.2 45.1C46.3 43.8 47.9 43.1 49.6 43.1C49.9 43.1 50.2 43.1 50.5 43.2C52.9 43.6 54.8 45.5 55.2 47.9C55.3 48.7 55.2 49.4 55 50.1V50.2L59.8 55.1V21.8C59.8 21.1 59.3 20.6 58.6 20.6L46 20.5L37.2 29.4V29.5C37.4 30.2 37.5 31 37.4 31.7C37 34.1 35 36 32.7 36.4C32.4 36.4 32.1 36.5 31.8 36.5C30.1 36.5 28.5 35.8 27.4 34.5C26.3 33.2 25.8 31.5 26.1 29.9C26.5 27.5 28.4 25.6 30.8 25.2C31 25.2 31.2 25.2 31.4 25.2C32 25.2 32.5 25.3 33.1 25.4H33.2L38 20.6H22.8V20.5ZM31.8 54.5C28.6 54.5 26 51.9 26 48.7C26 45.5 28.6 43 31.8 43C32.2 43 32.5 43.1 32.9 43.2L33.3 43.3L44.4 32.2L44.3 31.8C44.2 31.4 44.1 31.1 44.1 30.7C44 27.6 46.6 25 49.8 25C53 25 55.6 27.6 55.6 30.8C55.6 34 53 36.6 49.8 36.6C49.4 36.6 49.1 36.5 48.7 36.4L48.3 36.3L37.2 47.3L37.3 47.7C37.4 48.1 37.5 48.4 37.5 48.7C37.5 51.9 34.9 54.5 31.8 54.5ZM31.8 44.5C29.5 44.5 27.6 46.4 27.6 48.7C27.6 51 29.4 53 31.8 53C34.2 53 36 51.1 36 48.8C36 48.3 35.9 47.8 35.7 47.4C35.6 47.1 35.7 46.8 35.9 46.6L47.5 35C47.6 34.9 47.8 34.8 48 34.8C48.1 34.8 48.2 34.8 48.3 34.8C48.8 35 49.3 35.1 49.8 35.1C52.1 35.1 54 33.2 54 30.9C54 28.6 52.1 26.7 49.8 26.7C47.5 26.7 45.6 28.6 45.6 30.9C45.6 31.4 45.7 31.9 45.9 32.3C46 32.6 45.9 32.9 45.7 33.1L34 44.6C33.9 44.7 33.7 44.8 33.5 44.8C33.4 44.8 33.3 44.8 33.2 44.8C32.7 44.6 32.2 44.5 31.8 44.5ZM49.8 50.5C48.8 50.5 48 49.7 48 48.7C48 47.7 48.8 46.9 49.8 46.9C50.8 46.9 51.6 47.7 51.6 48.7C51.6 49.7 50.7 50.5 49.8 50.5ZM31.8 50.5C30.8 50.5 30 49.7 30 48.7C30 47.7 30.8 46.9 31.8 46.9C32.8 46.9 33.6 47.7 33.6 48.7C33.6 49.7 32.7 50.5 31.8 50.5ZM49.8 32.5C48.8 32.5 48 31.7 48 30.7C48 29.7 48.8 28.9 49.8 28.9C50.8 28.9 51.6 29.7 51.6 30.7C51.6 31.7 50.7 32.5 49.8 32.5ZM31.8 32.5C30.8 32.5 30 31.7 30 30.7C30 29.7 30.8 28.9 31.8 28.9C32.8 28.9 33.6 29.7 33.6 30.7C33.6 31.7 32.7 32.5 31.8 32.5Z" fill="#01CDFD"/>
</svg>
