<svg width="268" height="4" viewBox="0 0 268 4" fill="none" xmlns="http://www.w3.org/2000/svg">
<path d="M0 2.98438C0 2.43836 0.438311 1.99346 0.984266 1.98531L134 0L267.669 1.99506C267.853 1.9978 268 2.14733 268 2.33085C268 2.51631 267.877 2.66667 267.692 2.66667C262.198 2.66667 184.465 2.66667 134 2.66667C85.0588 2.66667 10.4705 3.83264 1.00043 3.9839C0.442294 3.99281 0 3.54259 0 2.98438Z" fill="#C4C4C4"/>
<path d="M0 2.98438C0 2.43836 0.438311 1.99346 0.984266 1.98531L134 0L267.669 1.99506C267.853 1.9978 268 2.14733 268 2.33085C268 2.51631 267.877 2.66667 267.692 2.66667C262.198 2.66667 184.465 2.66667 134 2.66667C85.0588 2.66667 10.4705 3.83264 1.00043 3.9839C0.442294 3.99281 0 3.54259 0 2.98438Z" fill="url(#paint0_linear)"/>
<defs>
<linearGradient id="paint0_linear" x1="-4.85507" y1="0.890907" x2="258.518" y2="50.9466" gradientUnits="userSpaceOnUse">
<stop stop-color="#FA2CAB"/>
<stop offset="1" stop-color="#9B69FC"/>
</linearGradient>
</defs>
</svg>
