<svg width="262" height="50" viewBox="0 0 262 50" fill="none" xmlns="http://www.w3.org/2000/svg">
<g opacity="0.5">
<path d="M3 5C2.447 5 2 5.447 2 6V34C2 34.553 2.447 35 3 35H37C37.553 35 38 34.553 38 34V6C38 5.447 37.553 5 37 5H3ZM4 7H36V23.5859L30.707 18.293C30.33 17.916 29.7328 17.9117 29.3398 18.2617L21.8945 25.707C21.6995 25.902 21.4425 26 21.1875 26C20.9325 26 20.6755 25.902 20.4805 25.707C20.0895 25.316 20.0895 24.684 20.4805 24.293L23.6875 21.0879L14.7383 11.3242C14.3643 10.9182 13.7341 10.8888 13.3281 11.2598L4 19.7383V7ZM30 10C29.4696 10 28.9609 10.2107 28.5858 10.5858C28.2107 10.9609 28 11.4696 28 12C28 12.5304 28.2107 13.0391 28.5858 13.4142C28.9609 13.7893 29.4696 14 30 14C30.5304 14 31.0391 13.7893 31.4142 13.4142C31.7893 13.0391 32 12.5304 32 12C32 11.4696 31.7893 10.9609 31.4142 10.5858C31.0391 10.2107 30.5304 10 30 10ZM40 10V12H41V38H9V37H7V39C7.00003 39.2652 7.10539 39.5195 7.29292 39.7071C7.48045 39.8946 7.73479 40 8 40H42C42.2652 40 42.5195 39.8946 42.7071 39.7071C42.8946 39.5195 43 39.2652 43 39V11C43 10.7348 42.8946 10.4805 42.7071 10.2929C42.5195 10.1054 42.2652 10 42 10H40ZM45 15V17H46V43H14V42H12V44C12 44.2652 12.1054 44.5195 12.2929 44.7071C12.4805 44.8946 12.7348 45 13 45H47C47.2652 45 47.5195 44.8946 47.7071 44.7071C47.8946 44.5195 48 44.2652 48 44V16C48 15.7348 47.8946 15.4805 47.7071 15.2929C47.5195 15.1054 47.2652 15 47 15H45Z" fill="#919191"/>
<path d="M67.957 32V18.7H72.992C74.1953 18.7 75.2593 18.985 76.184 19.555C77.1213 20.1123 77.856 20.8913 78.388 21.892C78.9327 22.8927 79.205 24.0453 79.205 25.35C79.205 26.6547 78.9327 27.8073 78.388 28.808C77.856 29.8087 77.1213 30.594 76.184 31.164C75.2593 31.7213 74.1953 32 72.992 32H67.957ZM72.897 20.163H69.458V30.537H72.897C73.8217 30.537 74.6387 30.3217 75.348 29.891C76.07 29.4603 76.6337 28.8587 77.039 28.086C77.4443 27.3007 77.647 26.3887 77.647 25.35C77.647 24.3113 77.4443 23.4057 77.039 22.633C76.6337 21.8477 76.07 21.2397 75.348 20.809C74.6387 20.3783 73.8217 20.163 72.897 20.163ZM81.5257 32V22.063H82.9697L82.9887 23.982C83.2547 23.3867 83.66 22.8863 84.2047 22.481C84.7493 22.063 85.37 21.854 86.0667 21.854C86.282 21.854 86.4847 21.873 86.6747 21.911C86.8647 21.949 87.023 21.987 87.1497 22.025L86.7507 23.64C86.4213 23.5007 86.092 23.431 85.7627 23.431C85.1927 23.431 84.6987 23.5703 84.2807 23.849C83.8627 24.115 83.5397 24.4697 83.3117 24.913C83.0963 25.3563 82.9887 25.844 82.9887 26.376V32H81.5257ZM92.5944 32.19C91.619 32.19 90.745 31.9683 89.9724 31.525C89.2124 31.069 88.6107 30.4547 88.1674 29.682C87.724 28.8967 87.5024 28.0037 87.5024 27.003C87.5024 26.015 87.724 25.1347 88.1674 24.362C88.6107 23.5767 89.2124 22.9623 89.9724 22.519C90.745 22.0757 91.619 21.854 92.5944 21.854C93.5697 21.854 94.4374 22.0757 95.1974 22.519C95.97 22.9623 96.5717 23.5767 97.0024 24.362C97.4457 25.1347 97.6674 26.015 97.6674 27.003C97.6674 28.0037 97.4457 28.8967 97.0024 29.682C96.5717 30.4547 95.97 31.069 95.1974 31.525C94.4374 31.9683 93.5697 32.19 92.5944 32.19ZM92.5944 30.822C93.291 30.822 93.9054 30.6573 94.4374 30.328C94.982 29.9987 95.4064 29.549 95.7104 28.979C96.0144 28.3963 96.1664 27.7377 96.1664 27.003C96.1664 26.2683 96.0144 25.6223 95.7104 25.065C95.4064 24.495 94.982 24.0453 94.4374 23.716C93.9054 23.3867 93.291 23.222 92.5944 23.222C91.8977 23.222 91.277 23.3867 90.7324 23.716C90.1877 24.0453 89.7634 24.495 89.4594 25.065C89.1554 25.635 89.0034 26.281 89.0034 27.003C89.0034 27.7377 89.1554 28.3963 89.4594 28.979C89.7634 29.549 90.1877 29.9987 90.7324 30.328C91.277 30.6573 91.8977 30.822 92.5944 30.822ZM99.7464 36.18V22.063H101.19L101.209 23.868C101.526 23.3107 102.014 22.842 102.672 22.462C103.331 22.0693 104.04 21.873 104.8 21.873C105.687 21.873 106.485 22.0947 107.194 22.538C107.904 22.9813 108.461 23.5957 108.866 24.381C109.284 25.1537 109.493 26.034 109.493 27.022C109.493 28.01 109.291 28.8967 108.885 29.682C108.48 30.4547 107.923 31.0627 107.213 31.506C106.517 31.9493 105.725 32.171 104.838 32.171C104.066 32.171 103.35 31.9873 102.691 31.62C102.033 31.2527 101.539 30.7967 101.209 30.252V36.18H99.7464ZM104.591 30.803C105.263 30.803 105.858 30.6383 106.377 30.309C106.897 29.9797 107.302 29.53 107.593 28.96C107.897 28.39 108.049 27.744 108.049 27.022C108.049 26.3 107.897 25.654 107.593 25.084C107.302 24.514 106.897 24.0707 106.377 23.754C105.858 23.4247 105.263 23.26 104.591 23.26C103.92 23.26 103.318 23.4247 102.786 23.754C102.267 24.0707 101.855 24.514 101.551 25.084C101.26 25.6413 101.114 26.2873 101.114 27.022C101.114 27.7567 101.266 28.409 101.57 28.979C101.874 29.549 102.286 29.9987 102.805 30.328C103.325 30.6447 103.92 30.803 104.591 30.803ZM118.563 36.37L120.254 32.266L115.637 22.063H117.271L120.672 29.663C120.723 29.777 120.773 29.9037 120.824 30.043C120.875 30.1697 120.925 30.3027 120.976 30.442C121.014 30.3407 121.052 30.2393 121.09 30.138C121.141 30.024 121.185 29.91 121.223 29.796L124.187 22.063H125.84L121.831 32L120.121 36.37H118.563ZM131.559 32.19C130.584 32.19 129.71 31.9683 128.937 31.525C128.177 31.069 127.576 30.4547 127.132 29.682C126.689 28.8967 126.467 28.0037 126.467 27.003C126.467 26.015 126.689 25.1347 127.132 24.362C127.576 23.5767 128.177 22.9623 128.937 22.519C129.71 22.0757 130.584 21.854 131.559 21.854C132.535 21.854 133.402 22.0757 134.162 22.519C134.935 22.9623 135.537 23.5767 135.967 24.362C136.411 25.1347 136.632 26.015 136.632 27.003C136.632 28.0037 136.411 28.8967 135.967 29.682C135.537 30.4547 134.935 31.069 134.162 31.525C133.402 31.9683 132.535 32.19 131.559 32.19ZM131.559 30.822C132.256 30.822 132.87 30.6573 133.402 30.328C133.947 29.9987 134.371 29.549 134.675 28.979C134.979 28.3963 135.131 27.7377 135.131 27.003C135.131 26.2683 134.979 25.6223 134.675 25.065C134.371 24.495 133.947 24.0453 133.402 23.716C132.87 23.3867 132.256 23.222 131.559 23.222C130.863 23.222 130.242 23.3867 129.697 23.716C129.153 24.0453 128.728 24.495 128.424 25.065C128.12 25.635 127.968 26.281 127.968 27.003C127.968 27.7377 128.12 28.3963 128.424 28.979C128.728 29.549 129.153 29.9987 129.697 30.328C130.242 30.6573 130.863 30.822 131.559 30.822ZM142.226 32.19C141.086 32.19 140.212 31.848 139.604 31.164C138.996 30.4673 138.692 29.4603 138.692 28.143V22.063H140.155V27.858C140.155 29.872 140.985 30.879 142.644 30.879C143.189 30.879 143.683 30.7587 144.126 30.518C144.57 30.2647 144.918 29.929 145.171 29.511C145.437 29.0803 145.57 28.6053 145.57 28.086V22.063H147.014V32H145.589L145.532 30.29C145.228 30.8347 144.772 31.2907 144.164 31.658C143.556 32.0127 142.91 32.19 142.226 32.19ZM149.788 32V22.063H151.232L151.251 23.982C151.517 23.3867 151.923 22.8863 152.467 22.481C153.012 22.063 153.633 21.854 154.329 21.854C154.545 21.854 154.747 21.873 154.937 21.911C155.127 21.949 155.286 21.987 155.412 22.025L155.013 23.64C154.684 23.5007 154.355 23.431 154.025 23.431C153.455 23.431 152.961 23.5703 152.543 23.849C152.125 24.115 151.802 24.4697 151.574 24.913C151.359 25.3563 151.251 25.844 151.251 26.376V32H149.788ZM163.132 19.935C162.777 19.935 162.505 19.8463 162.315 19.669C162.125 19.479 162.03 19.2193 162.03 18.89C162.03 18.5733 162.125 18.32 162.315 18.13C162.505 17.94 162.777 17.845 163.132 17.845C163.474 17.845 163.74 17.94 163.93 18.13C164.12 18.3073 164.215 18.5607 164.215 18.89C164.215 19.2067 164.12 19.46 163.93 19.65C163.74 19.84 163.474 19.935 163.132 19.935ZM162.41 32V22.063H163.873V32H162.41ZM166.747 32V22.063H168.191L168.21 23.773C168.539 23.203 169.008 22.747 169.616 22.405C170.224 22.0503 170.883 21.873 171.592 21.873C172.301 21.873 172.903 22.0377 173.397 22.367C173.904 22.6963 174.284 23.26 174.537 24.058C174.727 23.6653 175.006 23.3043 175.373 22.975C175.74 22.6457 176.158 22.3797 176.627 22.177C177.108 21.9743 177.615 21.873 178.147 21.873C179.198 21.873 179.996 22.215 180.541 22.899C181.098 23.5703 181.377 24.609 181.377 26.015V32H179.914V26.091C179.914 25.1157 179.73 24.4 179.363 23.944C178.996 23.4753 178.445 23.241 177.71 23.241C177.14 23.241 176.633 23.3677 176.19 23.621C175.747 23.8743 175.398 24.21 175.145 24.628C174.904 25.046 174.784 25.502 174.784 25.996V32H173.321V26.072C173.321 24.1847 172.586 23.241 171.117 23.241C170.56 23.241 170.059 23.3677 169.616 23.621C169.173 23.8617 168.824 24.191 168.571 24.609C168.33 25.027 168.21 25.483 168.21 25.977V32H166.747ZM187.953 32.19C187.092 32.19 186.313 31.9683 185.616 31.525C184.92 31.069 184.369 30.4547 183.963 29.682C183.558 28.8967 183.355 28.01 183.355 27.022C183.355 26.0213 183.564 25.1347 183.982 24.362C184.4 23.5767 184.964 22.9623 185.673 22.519C186.383 22.0757 187.174 21.854 188.048 21.854C188.846 21.854 189.556 22.0377 190.176 22.405C190.81 22.7723 191.291 23.2473 191.62 23.83L191.658 22.063H193.102V32H191.639V30.233C191.285 30.7903 190.778 31.259 190.119 31.639C189.461 32.0063 188.739 32.19 187.953 32.19ZM188.276 30.803C188.935 30.803 189.524 30.6447 190.043 30.328C190.563 29.9987 190.968 29.549 191.259 28.979C191.563 28.409 191.715 27.7503 191.715 27.003C191.715 26.281 191.563 25.635 191.259 25.065C190.968 24.495 190.563 24.0517 190.043 23.735C189.524 23.4057 188.935 23.241 188.276 23.241C187.605 23.241 187.01 23.4057 186.49 23.735C185.984 24.0517 185.585 24.495 185.293 25.065C185.002 25.635 184.856 26.281 184.856 27.003C184.856 27.7377 185.002 28.3963 185.293 28.979C185.585 29.549 185.984 29.9987 186.49 30.328C187.01 30.6447 187.605 30.803 188.276 30.803ZM200.135 36.37C199.4 36.37 198.703 36.256 198.045 36.028C197.399 35.8 196.854 35.515 196.411 35.173L197 33.957C197.38 34.261 197.842 34.5143 198.387 34.717C198.944 34.9197 199.539 35.021 200.173 35.021C201.249 35.021 202.092 34.717 202.7 34.109C203.308 33.5137 203.612 32.627 203.612 31.449V30.138C203.308 30.708 202.82 31.1957 202.149 31.601C201.49 31.9937 200.768 32.19 199.983 32.19C199.058 32.19 198.228 31.9683 197.494 31.525C196.772 31.0817 196.202 30.4737 195.784 29.701C195.366 28.9157 195.157 28.0227 195.157 27.022C195.157 26.034 195.366 25.1537 195.784 24.381C196.214 23.5957 196.791 22.9813 197.513 22.538C198.247 22.082 199.064 21.854 199.964 21.854C200.724 21.854 201.427 22.0377 202.073 22.405C202.731 22.7723 203.232 23.2157 203.574 23.735L203.612 22.063H205.056V31.392C205.056 32.9753 204.606 34.1977 203.707 35.059C202.807 35.933 201.617 36.37 200.135 36.37ZM200.154 30.803C200.825 30.803 201.42 30.6447 201.94 30.328C202.472 29.9987 202.89 29.549 203.194 28.979C203.498 28.409 203.65 27.7567 203.65 27.022C203.65 26.2873 203.498 25.635 203.194 25.065C202.89 24.495 202.472 24.0453 201.94 23.716C201.42 23.3867 200.825 23.222 200.154 23.222C199.47 23.222 198.862 23.3867 198.33 23.716C197.81 24.0453 197.399 24.495 197.095 25.065C196.803 25.635 196.658 26.2873 196.658 27.022C196.658 27.744 196.803 28.3963 197.095 28.979C197.399 29.549 197.81 29.9987 198.33 30.328C198.862 30.6447 199.47 30.803 200.154 30.803ZM212.216 32.19C211.216 32.19 210.329 31.9747 209.556 31.544C208.796 31.1133 208.201 30.5117 207.77 29.739C207.34 28.9663 207.124 28.0797 207.124 27.079C207.124 26.0657 207.333 25.1663 207.751 24.381C208.169 23.5957 208.752 22.9813 209.499 22.538C210.247 22.082 211.102 21.854 212.064 21.854C212.951 21.854 213.73 22.063 214.401 22.481C215.085 22.8863 215.611 23.45 215.978 24.172C216.346 24.8813 216.517 25.7047 216.491 26.642L216.472 27.307H208.606C208.67 28.3837 209.037 29.2387 209.708 29.872C210.38 30.5053 211.273 30.822 212.387 30.822C212.869 30.822 213.337 30.746 213.793 30.594C214.262 30.4293 214.775 30.1127 215.332 29.644L216.073 30.689C215.63 31.1197 215.066 31.4807 214.382 31.772C213.698 32.0507 212.976 32.19 212.216 32.19ZM212.045 23.222C211.133 23.222 210.38 23.469 209.784 23.963C209.189 24.4443 208.815 25.1537 208.663 26.091H215.028V25.977C215.003 25.521 214.87 25.084 214.629 24.666C214.389 24.2353 214.047 23.887 213.603 23.621C213.173 23.355 212.653 23.222 212.045 23.222ZM223.859 32V17.94H225.303V23.83C225.632 23.2473 226.113 22.7723 226.747 22.405C227.38 22.0377 228.032 21.854 228.704 21.854C229.844 21.854 230.692 22.196 231.25 22.88C231.82 23.5513 232.105 24.5773 232.105 25.958V32H230.642V26.053C230.642 24.1277 229.856 23.1777 228.286 23.203C227.716 23.203 227.203 23.3297 226.747 23.583C226.303 23.8363 225.949 24.172 225.683 24.59C225.429 25.008 225.303 25.464 225.303 25.958V32H223.859ZM239.214 32.19C238.213 32.19 237.326 31.9747 236.554 31.544C235.794 31.1133 235.198 30.5117 234.768 29.739C234.337 28.9663 234.122 28.0797 234.122 27.079C234.122 26.0657 234.331 25.1663 234.749 24.381C235.167 23.5957 235.749 22.9813 236.497 22.538C237.244 22.082 238.099 21.854 239.062 21.854C239.948 21.854 240.727 22.063 241.399 22.481C242.083 22.8863 242.608 23.45 242.976 24.172C243.343 24.8813 243.514 25.7047 243.489 26.642L243.469 27.307H235.604C235.667 28.3837 236.034 29.2387 236.706 29.872C237.377 30.5053 238.27 30.822 239.385 30.822C239.866 30.822 240.335 30.746 240.791 30.594C241.259 30.4293 241.772 30.1127 242.33 29.644L243.071 30.689C242.627 31.1197 242.064 31.4807 241.38 31.772C240.696 32.0507 239.974 32.19 239.214 32.19ZM239.043 23.222C238.131 23.222 237.377 23.469 236.782 23.963C236.186 24.4443 235.813 25.1537 235.661 26.091H242.026V25.977C242 25.521 241.867 25.084 241.627 24.666C241.386 24.2353 241.044 23.887 240.601 23.621C240.17 23.355 239.651 23.222 239.043 23.222ZM245.531 32V22.063H246.975L246.994 23.982C247.26 23.3867 247.665 22.8863 248.21 22.481C248.754 22.063 249.375 21.854 250.072 21.854C250.287 21.854 250.49 21.873 250.68 21.911C250.87 21.949 251.028 21.987 251.155 22.025L250.756 23.64C250.426 23.5007 250.097 23.431 249.768 23.431C249.198 23.431 248.704 23.5703 248.286 23.849C247.868 24.115 247.545 24.4697 247.317 24.913C247.101 25.3563 246.994 25.844 246.994 26.376V32H245.531ZM256.599 32.19C255.599 32.19 254.712 31.9747 253.939 31.544C253.179 31.1133 252.584 30.5117 252.153 29.739C251.723 28.9663 251.507 28.0797 251.507 27.079C251.507 26.0657 251.716 25.1663 252.134 24.381C252.552 23.5957 253.135 22.9813 253.882 22.538C254.63 22.082 255.485 21.854 256.447 21.854C257.334 21.854 258.113 22.063 258.784 22.481C259.468 22.8863 259.994 23.45 260.361 24.172C260.729 24.8813 260.9 25.7047 260.874 26.642L260.855 27.307H252.989C253.053 28.3837 253.42 29.2387 254.091 29.872C254.763 30.5053 255.656 30.822 256.77 30.822C257.252 30.822 257.72 30.746 258.176 30.594C258.645 30.4293 259.158 30.1127 259.715 29.644L260.456 30.689C260.013 31.1197 259.449 31.4807 258.765 31.772C258.081 32.0507 257.359 32.19 256.599 32.19ZM256.428 23.222C255.516 23.222 254.763 23.469 254.167 23.963C253.572 24.4443 253.198 25.1537 253.046 26.091H259.411V25.977C259.386 25.521 259.253 25.084 259.012 24.666C258.772 24.2353 258.43 23.887 257.986 23.621C257.556 23.355 257.036 23.222 256.428 23.222Z" fill="#919191"/>
</g>
</svg>
