<svg width="16" height="16" viewBox="0 0 16 16" fill="none" xmlns="http://www.w3.org/2000/svg">
<path d="M14.3564 0C14.2392 0 14.122 0.0451406 14.0327 0.134766L13.1157 1.05029L14.9497 2.88428L15.8652 1.96729C16.0445 1.78804 16.0445 1.49832 15.8652 1.31982L14.6802 0.134766C14.5906 0.0451406 14.4737 0 14.3564 0ZM12.4668 1.69922L7 7.16748V9H8.83252L14.3008 3.53174L12.4668 1.69922ZM1.75 2.25C0.92275 2.25 0.25 2.92275 0.25 3.75V14.25C0.25 15.0773 0.92275 15.75 1.75 15.75H12.25C13.0773 15.75 13.75 15.0773 13.75 14.25V6.20361L12.2515 7.70361V14.25H1.75V6.75H5.29639L6.79639 5.25H1.75V3.75H8.29639L9.79639 2.25H1.75Z" fill="#9BB0CF"/>
</svg>
