<svg width="21" height="21" viewBox="0 0 21 21" fill="none" xmlns="http://www.w3.org/2000/svg">
<path d="M10.4818 16.4818C10.0678 16.4818 9.73218 16.1462 9.73218 15.7322L9.73218 5.23142C9.73218 4.81742 10.0678 4.48181 10.4818 4.48181C10.8958 4.48181 11.2314 4.81742 11.2314 5.23142L11.2314 15.7322C11.2314 16.1462 10.8958 16.4818 10.4818 16.4818Z" fill="white"/>
<path d="M16.4818 10.4818C16.4818 10.8973 16.1449 11.2342 15.7294 11.2342L5.23425 11.2342C4.81869 11.2342 4.48181 10.8973 4.48181 10.4818C4.48181 10.0662 4.81869 9.72932 5.23425 9.72932L15.7294 9.72931C16.1449 9.72931 16.4818 10.0662 16.4818 10.4818Z" fill="white"/>
<circle cx="10.5" cy="10.5" r="9.75" stroke="white" stroke-width="1.5"/>
</svg>
