<svg width="24" height="24" viewBox="0 0 24 24" fill="none" xmlns="http://www.w3.org/2000/svg">
<path d="M5.354 4.20837C4.21688 4.20837 3.2915 5.13375 3.2915 6.27087V17.7292C3.2915 18.8663 4.21688 19.7917 5.354 19.7917H11.759C11.5349 19.3618 11.3634 18.9002 11.2488 18.4167H5.354C4.97496 18.4167 4.6665 18.1082 4.6665 17.7292V6.27087C4.6665 5.89183 4.97496 5.58337 5.354 5.58337H8.71989C9.02101 5.58337 9.31645 5.70594 9.53003 5.91907L11.7429 8.13196C11.8722 8.26121 12.0466 8.33337 12.229 8.33337H18.6457C19.0247 8.33337 19.3332 8.64183 19.3332 9.02087V11.5417C19.83 11.7489 20.2902 12.0246 20.7082 12.3518V9.02087C20.7082 7.88375 19.7828 6.95837 18.6457 6.95837H12.5137L10.5022 4.9469C10.0329 4.47757 9.38356 4.20837 8.71989 4.20837H5.354ZM11.0509 4.20837C11.0839 4.23908 11.1187 4.26716 11.1503 4.29879L12.4349 5.58337H18.6457C18.9729 5.58337 19.2465 5.8134 19.3153 6.12048C19.8483 6.24377 20.3264 6.50889 20.7082 6.87602V6.27087C20.7082 5.13375 19.7828 4.20837 18.6457 4.20837H11.0509ZM17.0415 12C14.2571 12 11.9998 14.2573 11.9998 17.0417C11.9998 19.8261 14.2571 22.0834 17.0415 22.0834C19.8259 22.0834 22.0832 19.8261 22.0832 17.0417C22.0832 14.2573 19.8259 12 17.0415 12ZM17.0415 13.375C17.2945 13.375 17.4998 13.5804 17.4998 13.8334V16.5834H20.2498C20.5028 16.5834 20.7082 16.7887 20.7082 17.0417C20.7082 17.2947 20.5028 17.5 20.2498 17.5H17.4998V20.25C17.4998 20.503 17.2945 20.7084 17.0415 20.7084C16.7885 20.7084 16.5832 20.503 16.5832 20.25V17.5H13.8332C13.5802 17.5 13.3748 17.2947 13.3748 17.0417C13.3748 16.7887 13.5802 16.5834 13.8332 16.5834H16.5832V13.8334C16.5832 13.5804 16.7885 13.375 17.0415 13.375Z" fill="#1B1B1B"/>
</svg>
