<svg width="17" height="16" viewBox="0 0 17 16" fill="none" xmlns="http://www.w3.org/2000/svg">
<path d="M7.375 0.125C5.72703 0.125 4.375 1.47703 4.375 3.125C4.375 4.77297 5.72703 6.125 7.375 6.125C9.02297 6.125 10.375 4.77297 10.375 3.125C10.375 1.47703 9.02297 0.125 7.375 0.125ZM7.375 1.625C8.21231 1.625 8.875 2.28769 8.875 3.125C8.875 3.96231 8.21231 4.625 7.375 4.625C6.53769 4.625 5.875 3.96231 5.875 3.125C5.875 2.28769 6.53769 1.625 7.375 1.625ZM11.875 6.875C10.5154 6.875 9.29445 7.48683 8.46777 8.44678C8.09377 8.40415 7.72468 8.375 7.375 8.375C6.06629 8.375 4.51537 8.68234 3.21191 9.19678C2.56018 9.454 1.97102 9.75954 1.49951 10.1519C1.028 10.5442 0.625 11.0745 0.625 11.75V13.625H7.98584C8.76672 14.9668 10.2177 15.875 11.875 15.875C14.3514 15.875 16.375 13.8514 16.375 11.375C16.375 8.8986 14.3514 6.875 11.875 6.875ZM11.875 8.375C12.6279 8.375 13.3042 8.65778 13.8291 9.11035L11.875 11.0645L10.9053 10.0947L9.84473 11.1553L11.875 13.1855L14.6919 10.3687C14.8037 10.6842 14.875 11.0195 14.875 11.375C14.875 13.0407 13.5407 14.375 11.875 14.375C10.2093 14.375 8.875 13.0407 8.875 11.375C8.875 9.70926 10.2093 8.375 11.875 8.375ZM7.375 9.875C7.45622 9.875 7.54874 9.88364 7.63428 9.88672C7.46923 10.3537 7.375 10.8531 7.375 11.375C7.375 11.6311 7.4023 11.8803 7.44385 12.125H2.125V11.75C2.125 11.701 2.17569 11.5404 2.45898 11.3047C2.74228 11.069 3.20912 10.8092 3.76123 10.5913C4.86546 10.1555 6.31446 9.875 7.375 9.875Z" fill="#9BB0CF"/>
</svg>
