<svg width="14" height="15" viewBox="0 0 14 15" fill="none" xmlns="http://www.w3.org/2000/svg">
<path d="M2.5 0.75V2.25H5.5V0.75H2.5ZM8.5 0.75V2.25H11.5V0.75H8.5ZM2.875 3.75C2.2622 3.75 1.75 4.2622 1.75 4.875V6C0.930203 6 0.25 6.6802 0.25 7.5V13.125C0.25 13.7378 0.762203 14.25 1.375 14.25H5.125C5.7378 14.25 6.25 13.7378 6.25 13.125V10.5H7.75V13.125C7.75 13.7378 8.2622 14.25 8.875 14.25H12.625C13.2378 14.25 13.75 13.7378 13.75 13.125V7.5C13.75 6.6802 13.0698 6 12.25 6V4.875C12.25 4.2622 11.7378 3.75 11.125 3.75H8.875C8.2622 3.75 7.75 4.2622 7.75 4.875V6H6.25V4.875C6.25 4.2622 5.7378 3.75 5.125 3.75H2.875ZM3.25 5.25H4.75V12.75H1.75V7.5H3.25V5.25ZM9.25 5.25H10.75V7.5H12.25V12.75H9.25V5.25ZM6.25 7.5H7.75V9H6.25V7.5Z" fill="#9BB0CF"/>
</svg>
