<svg width="15" height="14" viewBox="0 0 15 14" fill="none" xmlns="http://www.w3.org/2000/svg">
<path d="M3.125 0.25V1.75H6.125V0.25H3.125ZM9.125 0.25V1.75H12.125V0.25H9.125ZM3.5 3.25C2.8872 3.25 2.375 3.7622 2.375 4.375V5.5C1.5552 5.5 0.875 6.1802 0.875 7V12.625C0.875 13.2378 1.3872 13.75 2 13.75H5.75C6.3628 13.75 6.875 13.2378 6.875 12.625V10H8.375V12.625C8.375 13.2378 8.8872 13.75 9.5 13.75H13.25C13.8628 13.75 14.375 13.2378 14.375 12.625V7C14.375 6.1802 13.6948 5.5 12.875 5.5V4.375C12.875 3.7622 12.3628 3.25 11.75 3.25H9.5C8.8872 3.25 8.375 3.7622 8.375 4.375V5.5H6.875V4.375C6.875 3.7622 6.3628 3.25 5.75 3.25H3.5ZM3.875 4.75H5.375V12.25H2.375V7H3.875V4.75ZM9.875 4.75H11.375V7H12.875V12.25H9.875V4.75ZM6.875 7H8.375V8.5H6.875V7Z" fill="#C83E93"/>
</svg>
