<svg width="16" height="16" viewBox="0 0 16 16" fill="none" xmlns="http://www.w3.org/2000/svg">
<path d="M8 0.5C3.85775 0.5 0.5 3.85775 0.5 8C0.5 12.1423 3.85775 15.5 8 15.5C12.1423 15.5 15.5 12.1423 15.5 8C15.5 3.85775 12.1423 0.5 8 0.5ZM8 2C11.3135 2 14 4.6865 14 8C14 9.19797 13.6441 10.3108 13.0391 11.2476L12.4619 10.8008C11.2979 9.90303 9.15275 9.5 8 9.5C6.84725 9.5 4.70134 9.90303 3.53809 10.8008L2.96094 11.249C2.35553 10.3121 2 9.19842 2 8C2 4.6865 4.6865 2 8 2ZM8 3.3125C6.656 3.3125 5.5625 4.406 5.5625 5.75C5.5625 7.094 6.656 8.1875 8 8.1875C9.344 8.1875 10.4375 7.094 10.4375 5.75C10.4375 4.406 9.344 3.3125 8 3.3125ZM8 4.8125C8.51675 4.8125 8.9375 5.23325 8.9375 5.75C8.9375 6.26675 8.51675 6.6875 8 6.6875C7.48325 6.6875 7.0625 6.26675 7.0625 5.75C7.0625 5.23325 7.48325 4.8125 8 4.8125ZM8 11C10.3255 11 11.5761 11.8764 12.1616 12.3154C11.0825 13.3564 9.61764 14 8 14C6.38236 14 4.91751 13.3564 3.83838 12.3154C4.42393 11.8764 5.67446 11 8 11ZM3.54102 12.0049C3.63174 12.1048 3.72295 12.2044 3.81934 12.2979C3.72284 12.204 3.63105 12.105 3.54102 12.0049ZM12.4341 12.0312C12.3518 12.1217 12.2697 12.2126 12.1821 12.2979C12.2695 12.2131 12.3511 12.1212 12.4341 12.0312Z" fill="#C83E93"/>
</svg>
