<svg width="15" height="17" viewBox="0 0 15 17" fill="none" xmlns="http://www.w3.org/2000/svg">
<path d="M1.5 0.5C0.67275 0.5 0 1.17275 0 2V14C0 14.8273 0.67275 15.5 1.5 15.5H3.68262C3.34137 15.0372 3.16823 14.6917 3.14648 14.646L2.8374 14H1.5V2H6.75V5.75H10.5V9.53662C11.0422 9.58462 11.5417 9.68141 12 9.81641V5L7.5 0.5H1.5ZM9.75 11C5.93175 11 4.5 14 4.5 14C4.5 14 5.93175 17 9.75 17C13.5682 17 15 14 15 14C15 14 13.5682 11 9.75 11ZM9.75 12.5C10.578 12.5 11.25 13.172 11.25 14C11.25 14.828 10.578 15.5 9.75 15.5C8.922 15.5 8.25 14.828 8.25 14C8.25 13.172 8.922 12.5 9.75 12.5Z" fill="#9BB0CF"/>
</svg>
