<svg width="80" height="80" viewBox="0 0 80 80" fill="none" xmlns="http://www.w3.org/2000/svg">
<circle cx="40" cy="40" r="40" fill="#131313" fill-opacity="0.5"/>
<g clip-path="url(#clip0)">
<path d="M28.5996 25.2002L28.7996 45.2002L24.7996 30.1002L24.5996 29.4002L22.5996 30.4002V50.2002L24.7996 51.3002V38.7002L28.8996 54.0002L31.0996 55.2002L30.7996 25.2002H28.5996Z" fill="#01CDFD"/>
<path d="M34 23.7001L33.5 24.6001V38.9001V41.1001V56.9001L35.6 58.3001V41.1001H46.4V38.9001H35.6V25.3001L40.1 22.9001L47.2 27.1001L47.3 24.7001L40.7 20.7001L39.6 20.6001L34 23.7001Z" fill="#01CDFD"/>
<path d="M51.6996 54.1L53.8996 52.7V31.3L57.1996 33.4L57.9996 33.8V31.3L48.5996 25.5V28L51.6996 29.9V54.1Z" fill="#01CDFD"/>
<path d="M61.3 27L40.5 15H39.4L18.5 27L18 28V52L18.5 53L39.3 65H40.4L61.2 53L61.7 52.1V28L61.3 27ZM59.7 51.4L39.9 62.8L20.2 51.4V28.6L39.9 17.2L59.6 28.6V51.4H59.7Z" fill="#01CDFD"/>
</g>
<defs>
<clipPath id="clip0">
<rect width="43.8" height="50" fill="white" transform="translate(18 15)"/>
</clipPath>
</defs>
</svg>
