<svg width="23" height="19" viewBox="0 0 23 19" fill="none" xmlns="http://www.w3.org/2000/svg">
<path d="M13.4999 0C11.8007 0 10.4999 1.41406 10.4999 3V5.03125C8.38272 5.17578 6.47647 5.78516 4.93741 6.71875C4.37882 6.28125 3.71866 6.03125 3.06241 6.03125C2.33585 6.03125 1.62882 6.30859 1.12491 6.875C0.167879 8.07031 0.253816 10.0234 1.59366 11.0312C1.53116 11.3477 1.49991 11.668 1.49991 12C1.49991 14.0547 2.7421 15.8438 4.56241 17.0625C6.38272 18.2812 8.82022 19 11.4999 19C14.1796 19 16.6171 18.2812 18.4374 17.0625C20.2577 15.8438 21.4999 14.0547 21.4999 12C21.4999 11.668 21.4374 11.3477 21.3749 11.0312C22.7382 9.94531 22.8788 8.00391 21.8749 6.875C21.371 6.30859 20.664 6.03125 19.9374 6.03125C19.2812 6.03125 18.621 6.28125 18.0624 6.71875C16.5233 5.78516 14.6171 5.17578 12.4999 5.03125V3C12.4999 2.38672 12.8007 2 13.4999 2C13.8202 2 14.2733 2.17188 15.0312 2.4375C15.703 2.67188 16.5937 2.91406 17.7499 2.96875C18.0898 3.58594 18.7499 4 19.4999 4C20.6015 4 21.4999 3.10156 21.4999 2C21.4999 0.898438 20.6015 0 19.4999 0C18.7733 0 18.1327 0.382813 17.7812 0.96875C16.8944 0.925781 16.2694 0.765625 15.6874 0.5625C15.0194 0.328125 14.3788 0 13.4999 0ZM19.4999 1C20.1015 1 20.4999 1.39844 20.4999 2C20.4999 2.60156 20.1015 3 19.4999 3C18.8983 3 18.4999 2.60156 18.4999 2C18.4999 1.39844 18.8983 1 19.4999 1ZM11.4999 7C13.8202 7 15.8827 7.63672 17.3124 8.59375C18.7421 9.55078 19.4999 10.7539 19.4999 12C19.4999 13.2461 18.7421 14.4492 17.3124 15.4062C15.8827 16.3633 13.8202 17 11.4999 17C9.1796 17 7.1171 16.3633 5.68741 15.4062C4.25772 14.4492 3.49991 13.2461 3.49991 12C3.49991 10.7539 4.25772 9.55078 5.68741 8.59375C7.1171 7.63672 9.1796 7 11.4999 7ZM3.09366 7.03125C3.42569 7.03125 3.77725 7.10156 4.09366 7.28125C3.12882 8.02344 2.37882 8.9375 1.93741 9.96875C1.35538 9.28125 1.3671 8.19141 1.87491 7.53125C2.17178 7.19531 2.621 7.03125 3.09366 7.03125ZM19.9062 7.03125C20.3788 7.03125 20.828 7.19531 21.1249 7.53125C21.6171 8.08594 21.6562 9.17578 21.0624 9.9375C20.621 8.91406 19.8632 8.01953 18.9062 7.28125C19.2226 7.10156 19.5741 7.03125 19.9062 7.03125ZM8.49991 9C7.67178 9 6.99991 9.67188 6.99991 10.5C6.99991 11.3281 7.67178 12 8.49991 12C9.32803 12 9.99991 11.3281 9.99991 10.5C9.99991 9.67188 9.32803 9 8.49991 9ZM14.4999 9C13.6718 9 12.9999 9.67188 12.9999 10.5C12.9999 11.3281 13.6718 12 14.4999 12C15.328 12 15.9999 11.3281 15.9999 10.5C15.9999 9.67188 15.328 9 14.4999 9ZM15.5937 13.4062C14.6952 14.207 13.1991 14.6875 11.4999 14.6875C9.80069 14.6875 8.3046 14.1992 7.40616 13.5C7.90616 14.8008 9.49991 16 11.4999 16C13.4999 16 15.0937 14.8047 15.5937 13.4062Z" fill="white"/>
</svg>
