<svg width="14" height="14" viewBox="0 0 14 14" fill="none" xmlns="http://www.w3.org/2000/svg">
<path d="M7.00005 0.333313C6.47442 0.333313 5.9676 0.399789 5.48377 0.512349C5.38288 0.535898 5.29179 0.590204 5.2231 0.66776C5.15441 0.745317 5.1115 0.842295 5.10031 0.945292L4.99419 1.91274C4.95948 2.22977 4.77635 2.51026 4.50005 2.6699C4.2243 2.82922 3.88959 2.84687 3.59771 2.71873H3.59705L2.70838 2.32745C2.61359 2.28574 2.50819 2.27449 2.40673 2.29524C2.30528 2.316 2.21276 2.36775 2.14198 2.44334C1.45114 3.17984 0.920943 4.07167 0.619841 5.06704C0.589848 5.16611 0.591338 5.27204 0.624106 5.37023C0.656874 5.46842 0.719304 5.55401 0.802783 5.61521L1.59119 6.19334C1.84865 6.38262 2.00005 6.68091 2.00005 6.99998C2.00005 7.31922 1.84865 7.61776 1.59119 7.80662L0.802783 8.38409C0.719304 8.4453 0.656874 8.53089 0.624106 8.62908C0.591338 8.72727 0.589848 8.8332 0.619841 8.93227C0.920911 9.92754 1.45069 10.82 2.14198 11.5566C2.21284 11.6321 2.30539 11.6837 2.40684 11.7044C2.5083 11.725 2.61366 11.7136 2.70838 11.6719L3.59705 11.2806C3.88908 11.1521 4.22411 11.1706 4.50005 11.3301C4.77635 11.4897 4.95948 11.7702 4.99419 12.0872L5.10031 13.0547C5.11159 13.1575 5.15446 13.2542 5.22301 13.3317C5.29157 13.4091 5.38245 13.4633 5.48312 13.487C5.96717 13.5999 6.47442 13.6666 7.00005 13.6666C7.52568 13.6666 8.03249 13.6002 8.51632 13.4876C8.61722 13.4641 8.7083 13.4098 8.777 13.3322C8.84569 13.2546 8.8886 13.1577 8.89979 13.0547L9.00591 12.0872C9.04061 11.7702 9.22374 11.4897 9.50005 11.3301C9.7758 11.1707 10.1105 11.1524 10.4024 11.2806L11.2917 11.6719C11.3864 11.7136 11.4918 11.725 11.5933 11.7044C11.6947 11.6837 11.7873 11.6321 11.8581 11.5566C12.549 10.8201 13.0792 9.92764 13.3803 8.93227C13.4102 8.8332 13.4088 8.72727 13.376 8.62908C13.3432 8.53089 13.2808 8.4453 13.1973 8.38409L12.4089 7.80662C12.1514 7.61776 12 7.31922 12 6.99998C12 6.68074 12.1514 6.3822 12.4089 6.19334L13.1973 5.61587C13.2808 5.55466 13.3432 5.46907 13.376 5.37088C13.4088 5.27269 13.4102 5.16676 13.3803 5.06769C13.0792 4.07232 12.549 3.17984 11.8581 2.44334C11.7873 2.36786 11.6947 2.31624 11.5933 2.29559C11.4918 2.27495 11.3864 2.28631 11.2917 2.3281L10.4024 2.71938C10.1105 2.84752 9.7758 2.82922 9.50005 2.6699C9.22374 2.51026 9.04061 2.22977 9.00591 1.91274L8.89979 0.945292C8.88851 0.842497 8.84564 0.745727 8.77708 0.668308C8.70853 0.590889 8.61765 0.536629 8.51698 0.513C8.03293 0.400031 7.52568 0.333313 7.00005 0.333313ZM7.00005 1.33331C7.32482 1.33331 7.63669 1.39161 7.94927 1.44659L8.01177 2.02146C8.08106 2.65444 8.44902 3.21742 9.00005 3.53579C9.55144 3.85436 10.2227 3.89098 10.8054 3.63475L11.334 3.40232C11.74 3.88978 12.0614 4.44037 12.2859 5.0436L11.8171 5.38735C11.3039 5.76382 11 6.36322 11 6.99998C11 7.63674 11.3039 8.23614 11.8171 8.61261L12.2859 8.95636C12.0614 9.55959 11.74 10.1102 11.334 10.5976L10.8054 10.3652C10.2227 10.109 9.55144 10.1456 9.00005 10.4642C8.44902 10.7825 8.08106 11.3455 8.01177 11.9785L7.94927 12.5534C7.63672 12.6082 7.32465 12.6666 7.00005 12.6666C6.67528 12.6666 6.36341 12.6084 6.05083 12.5534L5.98833 11.9785C5.91904 11.3455 5.55108 10.7825 5.00005 10.4642C4.44866 10.1456 3.77735 10.109 3.19471 10.3652L2.66606 10.5976C2.26004 10.1102 1.9387 9.55963 1.71424 8.95636L2.18299 8.61261C2.6962 8.23614 3.00005 7.63674 3.00005 6.99998C3.00005 6.36322 2.69596 5.76343 2.18299 5.3867L1.71424 5.04295C1.93883 4.43949 2.26053 3.88926 2.66672 3.40167L3.19471 3.63409C3.77735 3.89033 4.44866 3.85436 5.00005 3.53579C5.55108 3.21742 5.91904 2.65444 5.98833 2.02146L6.05083 1.44659C6.36338 1.39176 6.67544 1.33331 7.00005 1.33331ZM7.00005 4.33331C5.53321 4.33331 4.33338 5.53314 4.33338 6.99998C4.33338 8.46682 5.53321 9.66665 7.00005 9.66665C8.46689 9.66665 9.66671 8.46682 9.66671 6.99998C9.66671 5.53314 8.46689 4.33331 7.00005 4.33331ZM7.00005 5.33331C7.92645 5.33331 8.66671 6.07358 8.66671 6.99998C8.66671 7.92638 7.92645 8.66665 7.00005 8.66665C6.07365 8.66665 5.33338 7.92638 5.33338 6.99998C5.33338 6.07358 6.07365 5.33331 7.00005 5.33331Z" fill="#9BB0CF"/>
</svg>
