<svg width="45" height="47" viewBox="0 0 45 47" fill="none" xmlns="http://www.w3.org/2000/svg">
<path d="M20.8809 0.300781C17.1909 0.380781 14.4991 1.51039 12.8691 3.65039C10.9491 6.18039 10.5908 10.0692 11.8008 15.1992C11.3808 15.7292 11.0094 16.5802 11.1094 17.7402C11.3994 19.8902 12.2206 20.7804 12.8906 21.1504C13.2006 22.9004 14.0504 24.83 14.9004 25.75V29.3105C14.2904 30.6805 12.2998 31.4804 10.0098 32.4004C6.13977 33.9404 1.34 35.8692 1 41.9492L0.939453 43H24V41H3.11914C3.84914 37.01 7.35 35.61 10.75 34.25C12.7719 33.4412 14.7096 32.6658 15.9082 31.3574C16.9579 32.3473 18.821 33 21 33C22.08 33 23.11 32.8198 24 32.5098V30.3594C23.33 30.6994 22.31 31 21 31C18.51 31 17 29.96 17 29.5C17 29.3489 16.961 29.2088 16.9004 29.0801V25.3008L16.9199 24.7305L16.4199 24.4395C16.0399 24.1595 14.9808 22.2005 14.8008 20.3105L14.7793 19.4102H13.8691C13.7291 19.3502 13.2796 18.8795 13.0996 17.5195C13.0896 17.4595 13.0898 17.3998 13.0898 17.3398C13.0898 16.6298 13.4609 16.3301 13.4609 16.3301L14.0391 15.9395L13.8691 15.25C12.6591 10.47 12.8607 6.96937 14.4707 4.85938C15.7107 3.22937 17.8804 2.37078 20.9004 2.30078C22.7904 2.30078 24.1506 2.77961 24.6406 3.59961L24.8809 4.01953L25.3594 4.08984C26.6894 4.27984 27.6302 4.85938 28.2402 5.85938C29.6902 8.24938 28.9305 12.7402 28.0605 15.1602L27.7402 15.9902L28.5293 16.3809C28.6193 16.4509 28.8608 16.7898 28.8008 17.5098C28.6708 18.9898 28.1996 19.3804 28.0996 19.4004H27.1895L27.0996 20.3105C27.0996 20.3605 27.0901 20.4109 27.0801 20.4609C27.0501 20.6309 27.0195 20.82 27.0195 21H29.3008C29.9408 20.56 30.6208 19.6297 30.8008 17.6797C30.8908 16.5597 30.5804 15.7292 30.1504 15.1992C31.0004 12.4692 31.7492 7.79031 29.9492 4.82031C29.0992 3.41031 27.8001 2.52945 26.0801 2.18945C25.6001 1.57945 24.8993 1.10906 24.0293 0.789062C23.1493 0.469063 22.0909 0.300781 20.8809 0.300781ZM37.9844 22.9863C37.9359 22.9874 37.8876 22.9919 37.8398 23H27C26.7348 23 26.4805 23.1054 26.2929 23.2929C26.1054 23.4805 26 23.7348 26 24V46C26 46.2652 26.1054 46.5195 26.2929 46.7071C26.4805 46.8946 26.7348 47 27 47H44C44.2652 47 44.5195 46.8946 44.7071 46.7071C44.8946 46.5195 45 46.2652 45 46V30.168C45.0178 30.06 45.0178 29.9498 45 29.8418V29C45 28.7348 44.8946 28.4805 44.707 28.293L39.707 23.293C39.5195 23.1054 39.2652 23.0001 39 23H38.1543C38.0981 22.9906 38.0413 22.986 37.9844 22.9863ZM28 25H37V30C37 30.2652 37.1054 30.5195 37.2929 30.7071C37.4805 30.8946 37.7348 31 38 31H43V45H28V25ZM39 25.4141L42.5859 29H39V25.4141ZM31 33C30.8675 32.9981 30.7359 33.0226 30.613 33.072C30.49 33.1214 30.3781 33.1948 30.2837 33.2878C30.1893 33.3809 30.1144 33.4918 30.0632 33.614C30.0121 33.7363 29.9858 33.8675 29.9858 34C29.9858 34.1325 30.0121 34.2637 30.0632 34.386C30.1144 34.5082 30.1893 34.6191 30.2837 34.7122C30.3781 34.8052 30.49 34.8786 30.613 34.928C30.7359 34.9774 30.8675 35.0019 31 35H40C40.1325 35.0019 40.2641 34.9774 40.387 34.928C40.51 34.8786 40.6219 34.8052 40.7163 34.7122C40.8107 34.6191 40.8856 34.5082 40.9368 34.386C40.9879 34.2637 41.0142 34.1325 41.0142 34C41.0142 33.8675 40.9879 33.7363 40.9368 33.614C40.8856 33.4918 40.8107 33.3809 40.7163 33.2878C40.6219 33.1948 40.51 33.1214 40.387 33.072C40.2641 33.0226 40.1325 32.9981 40 33H31ZM31 37C30.8675 36.9981 30.7359 37.0226 30.613 37.072C30.49 37.1214 30.3781 37.1948 30.2837 37.2878C30.1893 37.3809 30.1144 37.4918 30.0632 37.614C30.0121 37.7363 29.9858 37.8675 29.9858 38C29.9858 38.1325 30.0121 38.2637 30.0632 38.386C30.1144 38.5082 30.1893 38.6191 30.2837 38.7122C30.3781 38.8052 30.49 38.8786 30.613 38.928C30.7359 38.9774 30.8675 39.0019 31 39H36C36.1325 39.0019 36.2641 38.9774 36.387 38.928C36.51 38.8786 36.6219 38.8052 36.7163 38.7122C36.8107 38.6191 36.8856 38.5082 36.9368 38.386C36.9879 38.2637 37.0142 38.1325 37.0142 38C37.0142 37.8675 36.9879 37.7363 36.9368 37.614C36.8856 37.4918 36.8107 37.3809 36.7163 37.2878C36.6219 37.1948 36.51 37.1214 36.387 37.072C36.2641 37.0226 36.1325 36.9981 36 37H31ZM31 41C30.8675 40.9981 30.7359 41.0226 30.613 41.072C30.49 41.1214 30.3781 41.1948 30.2837 41.2878C30.1893 41.3809 30.1144 41.4918 30.0632 41.614C30.0121 41.7363 29.9858 41.8675 29.9858 42C29.9858 42.1325 30.0121 42.2637 30.0632 42.386C30.1144 42.5082 30.1893 42.6191 30.2837 42.7122C30.3781 42.8052 30.49 42.8786 30.613 42.928C30.7359 42.9774 30.8675 43.0019 31 43H39C39.1325 43.0019 39.2641 42.9774 39.387 42.928C39.51 42.8786 39.6219 42.8052 39.7163 42.7122C39.8107 42.6191 39.8856 42.5082 39.9368 42.386C39.9879 42.2637 40.0142 42.1325 40.0142 42C40.0142 41.8675 39.9879 41.7363 39.9368 41.614C39.8856 41.4918 39.8107 41.3809 39.7163 41.2878C39.6219 41.1948 39.51 41.1214 39.387 41.072C39.2641 41.0226 39.1325 40.9981 39 41H31Z" fill="#01CDFD"/>
</svg>
