<svg width="50" height="50" viewBox="0 0 50 50" fill="none" xmlns="http://www.w3.org/2000/svg">
<path d="M42 9C39.8008 9 38 10.8008 38 13C38 15.1992 39.8008 17 42 17C44.1992 17 46 15.1992 46 13C46 10.8008 44.1992 9 42 9ZM42 11C43.1172 11 44 11.8828 44 13C44 14.1172 43.1172 15 42 15C40.8828 15 40 14.1172 40 13C40 11.8828 40.8828 11 42 11ZM11 16C6.05469 16 2 20.0547 2 25C2 29.9453 6.05469 34 11 34H22V27H11C9.88281 27 9 26.1172 9 25C9 23.8828 9.88281 23 11 23H22V16H11ZM28 17V19H24L30 21V19H34L28 17ZM11 18H16V21H11C8.80078 21 7 22.8008 7 25C7 27.1992 8.80078 29 11 29H16V32H11C7.14453 32 4 28.8555 4 25C4 21.1445 7.14453 18 11 18ZM18 18H20V21H18V18ZM40 18C37.2539 18 35 20.2539 35 23V28.5C35 29.8711 36.1289 31 37.5 31C37.6953 31 37.8164 30.832 38 30.793V37.5C38 38.8711 39.1289 40 40.5 40C41.082 40 41.5742 39.7148 42 39.375C42.4258 39.7148 42.918 40 43.5 40C44.8711 40 46 38.8711 46 37.5V30.793C46.1836 30.832 46.3047 31 46.5 31C47.8711 31 49 29.8711 49 28.5V23C49 20.2539 46.7461 18 44 18H40ZM40 20H44C45.6562 20 47 21.3438 47 23V28.5C47 28.7812 46.7812 29 46.5 29C46.2188 29 46 28.7812 46 28.5V23H44V37.5C44 37.7812 43.7812 38 43.5 38C43.2188 38 43 37.7812 43 37.5V30H41V37.5C41 37.7812 40.7812 38 40.5 38C40.2188 38 40 37.7812 40 37.5V23H38V28.5C38 28.7812 37.7812 29 37.5 29C37.2188 29 37 28.7812 37 28.5V23C37 21.3438 38.3438 20 40 20ZM18 29H20V32H18V29ZM30 29L24 31H28V33L34 31H30V29Z" fill="#01CDFD"/>
</svg>
