<svg width="50" height="50" viewBox="0 0 50 50" fill="none" xmlns="http://www.w3.org/2000/svg">
<path d="M19 9C17.3555 9 16 10.3555 16 12V18H3C1.35547 18 0 19.3555 0 21V39.8125C0 40.3633 0.449219 40.8125 1 40.8125H49C49.5508 40.8125 50 40.3633 50 39.8125V25C50 23.3555 48.6445 22 47 22H34V12C34 10.3555 32.6445 9 31 9H19ZM19 11H31C31.5547 11 32 11.4453 32 12V23C32 23.5508 32.4492 24 33 24H47C47.5547 24 48 24.4453 48 25V38.8125H2V21C2 20.4453 2.44531 20 3 20H17C17.5508 20 18 19.5508 18 19V12C18 11.4453 18.4453 11 19 11ZM24.8125 14C24.7109 14.5 24.4883 14.8008 24.1875 15C23.8867 15.1992 23.4062 15.3125 22.9062 15.3125H22.8125V16.4062H24.4062V22H26V14H24.8125ZM9.5 23C8.60156 23 7.99219 23.1953 7.59375 23.5938C7.19531 23.9922 7 24.5117 7 25.3125V25.5938H8.59375V25C8.59375 24.8008 8.58594 24.6016 8.6875 24.5L9 24.1875C9.10156 24.0859 9.30078 24.0938 9.5 24.0938C10 24.0938 10.3125 24.3945 10.3125 25.0938V25.6875C10.3125 25.7891 10.2891 25.9922 10.1875 26.0938C10.0859 26.1953 10.0078 26.3984 9.90625 26.5L9.5 26.9062L8.8125 27.5C8.51172 27.8008 8.19922 28.0117 8 28.3125C7.69922 28.5117 7.50781 28.793 7.40625 29.0938L7.09375 30C6.99219 30.3008 7 30.6016 7 31H12V29.6875H9C9 29.5859 9.09375 29.3867 9.09375 29.1875L11.1875 27.0938C11.3867 26.8945 11.4922 26.6992 11.5938 26.5C11.6953 26.3008 11.8125 26.1055 11.8125 25.9062C11.9141 25.707 11.9062 25.4883 11.9062 25.1875C11.9062 24.4883 11.7109 23.9922 11.3125 23.5938C10.9141 23.1953 10.3008 23 9.5 23ZM40.5938 27C39.8945 27 39.3047 27.1953 38.9062 27.5938C38.5078 27.9922 38.3125 28.6055 38.3125 29.4062H39.8125V28.9062C39.8125 28.8047 39.8047 28.6016 39.9062 28.5L40.1875 28.1875C40.2891 28.0859 40.3945 28.0938 40.5938 28.0938C40.8945 28.0938 41.0859 28.1133 41.1875 28.3125C41.2891 28.4141 41.4062 28.6953 41.4062 29.0938C41.4062 29.293 41.3125 29.3945 41.3125 29.5938C41.2109 29.793 41.1953 29.8984 41.0938 30L40.8125 30.3125C40.7109 30.4141 40.6055 30.4062 40.4062 30.4062H39.9062V31.5H40.4062C40.6055 31.5 40.8047 31.4922 40.9062 31.5938L41.1875 31.9062C41.2891 32.0078 41.4062 32.1133 41.4062 32.3125V33.3125C41.4062 33.4141 41.4141 33.5859 41.3125 33.6875L41 34C40.8984 34.1016 40.6992 34.0938 40.5 34.0938C40.1992 34.0938 39.9141 33.8867 39.8125 33.6875C39.7109 33.3867 39.6133 33.1133 39.8125 32.8125H38.1875C38.1875 33.6133 38.4141 34.1953 38.8125 34.5938C39.1133 34.9922 39.6992 35.1875 40.5 35.1875C41 35.1875 41.5117 35.1016 41.8125 35C42.1133 34.8008 42.3945 34.6055 42.5938 34.4062C42.793 34.1055 42.8984 33.8945 43 33.5938C43.1016 33.293 43.0938 33.1133 43.0938 32.8125C43.0938 32.3125 43.0117 31.8008 42.8125 31.5C42.6133 31.1992 42.1875 31.0078 41.6875 30.9062C42.0859 30.8047 42.3945 30.6133 42.5938 30.3125C42.793 30.0117 42.9062 29.5938 42.9062 29.0938C42.9062 28.293 42.7109 27.8008 42.3125 27.5C41.9141 27.1992 41.293 27 40.5938 27Z" fill="#01CDFD"/>
</svg>
