<svg width="22" height="18" viewBox="0 0 22 18" fill="none" xmlns="http://www.w3.org/2000/svg">
<path d="M15.0002 0C12.2845 0 10.0805 2.19437 10.0216 4.89648C7.62052 4.6085 6.05695 3.71075 5.09782 2.82617C4.03415 1.84519 3.69743 0.973633 3.69743 0.973633C3.64827 0.84977 3.567 0.741241 3.46198 0.659209C3.35696 0.577177 3.23198 0.524605 3.0999 0.506902C2.96782 0.489198 2.83341 0.507002 2.71049 0.558482C2.58757 0.609962 2.48059 0.69326 2.40055 0.799805C2.40055 0.799805 1.50016 2 1.50016 3.75C1.50016 4.75049 1.81606 5.49078 2.19254 6.11816C2.17867 6.11167 2.08512 6.0791 2.08512 6.0791C1.96559 6.01942 1.83228 5.99275 1.69898 6.00185C1.56569 6.01094 1.43724 6.05548 1.32693 6.13085C1.21661 6.20622 1.12842 6.30969 1.07149 6.43056C1.01456 6.55142 0.990945 6.68531 1.00309 6.81836C1.00309 6.81836 1.29176 8.92842 3.27555 10.4707L3.06852 10.5225C2.95614 10.5505 2.85178 10.6042 2.76363 10.6794C2.67548 10.7545 2.60592 10.849 2.56042 10.9555C2.51492 11.0621 2.4947 11.1777 2.50136 11.2933C2.50802 11.409 2.54137 11.5215 2.59879 11.6221C2.59879 11.6221 2.93519 12.1911 3.63981 12.79C4.05759 13.1451 4.6713 13.5116 5.39469 13.8506C4.5063 14.1752 3.18157 14.5 1.25016 14.5C1.10604 14.5 0.96496 14.5415 0.843807 14.6196C0.722655 14.6976 0.626558 14.8089 0.567012 14.9402C0.507467 15.0714 0.486994 15.217 0.508044 15.3596C0.529094 15.5022 0.590774 15.6357 0.685707 15.7441C0.685707 15.7441 1.25882 16.3755 2.39176 16.9248C3.5247 17.4741 5.2699 18 7.75016 18C12.11 18 15.2425 15.9086 17.1974 13.2578C19.1524 10.607 20.0002 7.43056 20.0002 5C20.0002 4.84577 19.9905 4.69372 19.9767 4.54297C21.0323 3.5258 21.4285 2.76112 21.4474 2.72363C21.5424 2.53313 21.507 2.30434 21.3595 2.15234C21.2125 1.99984 20.9847 1.9569 20.7912 2.0459L20.7101 2.08301C20.6406 2.11501 20.5711 2.14721 20.5011 2.17871C20.7046 1.85421 20.8652 1.50744 20.9767 1.14844C21.0387 0.950437 20.9718 0.733469 20.8078 0.605469C20.6438 0.477469 20.4179 0.463766 20.2404 0.572266C19.6293 0.94368 19.0435 1.20369 18.4338 1.37793C17.5364 0.526736 16.3286 0 15.0002 0ZM15.0002 1.5C16.9417 1.5 18.5002 3.05841 18.5002 5C18.5002 7.06944 17.723 10.018 15.9904 12.3672C14.2578 14.7164 11.6403 16.5 7.75016 16.5C5.86756 16.5 4.61525 16.1595 3.67692 15.791C4.65983 15.6384 5.50613 15.4347 6.11442 15.1992C7.16925 14.7909 7.73844 14.3193 7.73844 14.3193C7.84285 14.2297 7.92059 14.1131 7.96317 13.9823C8.00576 13.8515 8.01154 13.7115 7.97988 13.5776C7.94822 13.4437 7.88034 13.3211 7.78368 13.2232C7.68701 13.1253 7.56528 13.0558 7.4318 13.0225C6.07044 12.6821 5.19732 12.1317 4.64957 11.6729L5.4318 11.4775C5.58649 11.4389 5.72486 11.352 5.82682 11.2295C5.92879 11.1069 5.98904 10.955 5.99883 10.7959C6.00863 10.6367 5.96746 10.4786 5.8813 10.3445C5.79515 10.2103 5.66848 10.1071 5.51969 10.0498C3.89713 9.42574 3.21577 8.54319 2.86735 7.80371C3.29134 7.89148 3.68611 8 4.25016 8C4.41906 7.99986 4.58298 7.94272 4.71536 7.83783C4.84775 7.73293 4.94086 7.58643 4.97961 7.42203C5.01837 7.25763 5.0005 7.08496 4.92891 6.93198C4.85731 6.77901 4.73618 6.65467 4.58512 6.5791C4.58512 6.5791 3.00016 5.85 3.00016 3.75C3.00016 3.37297 3.10458 3.13418 3.18082 2.84863C3.44241 3.20018 3.658 3.53929 4.08024 3.92871C5.36757 5.11598 7.49534 6.32658 10.7101 6.49902C10.8118 6.50445 10.9136 6.4891 11.0092 6.45391C11.1048 6.41872 11.1922 6.36443 11.2662 6.29434C11.3401 6.22425 11.3989 6.13984 11.4392 6.04626C11.4794 5.95267 11.5002 5.85187 11.5002 5.75V5C11.5002 3.05841 13.0586 1.5 15.0002 1.5Z" fill="#9BB0CF"/>
</svg>
