<?xml version="1.0" standalone="no"?>
<!DOCTYPE svg PUBLIC "-//W3C//DTD SVG 20010904//EN"
 "http://www.w3.org/TR/2001/REC-SVG-20010904/DTD/svg10.dtd">
<svg version="1.0" xmlns="http://www.w3.org/2000/svg"
 width="256.000000pt" height="256.000000pt" viewBox="0 0 256.000000 256.000000"
 preserveAspectRatio="xMidYMid meet">
<g transform="translate(0.000000,256.000000) scale(0.100000,-0.100000)"
fill="rgb(92, 212, 180)" stroke="none">
<path d="M722 2367 c-20 -21 -22 -34 -22 -140 l0 -117 -119 0 c-117 0 -120 -1
-140 -26 -14 -18 -21 -41 -21 -70 l0 -44 -118 0 c-130 0 -152 -9 -152 -62 0
-48 25 -58 153 -58 l117 0 0 -80 0 -80 -117 0 c-65 0 -123 -4 -129 -8 -36 -24
-34 -81 5 -101 11 -6 69 -11 130 -11 l111 0 0 -75 0 -75 -120 0 c-107 0 -122
-2 -140 -20 -24 -24 -26 -57 -4 -88 14 -21 22 -22 140 -22 l124 0 0 -75 0 -75
-113 0 c-128 0 -157 -11 -157 -60 0 -32 21 -58 53 -65 12 -3 65 -6 117 -8 l95
-2 3 -73 3 -72 -119 0 c-130 0 -152 -9 -152 -62 0 -48 25 -58 153 -58 l117 0
0 -114 c0 -99 3 -117 21 -140 17 -22 28 -26 70 -26 l49 0 0 -114 c0 -99 3
-117 21 -140 26 -33 53 -33 84 -1 24 23 25 30 25 140 l0 115 75 0 75 0 0 -120
c0 -107 2 -122 20 -140 24 -24 48 -25 78 -4 21 14 22 22 22 140 l0 124 80 0
80 0 0 -120 c0 -107 2 -122 20 -140 11 -11 29 -20 40 -20 11 0 29 9 40 20 18
18 20 33 20 140 l0 120 75 0 75 0 0 -107 c0 -120 11 -152 53 -167 22 -8 31 -6
52 14 24 23 25 28 25 142 l0 118 75 0 75 0 0 -115 c0 -110 1 -117 25 -140 13
-14 31 -25 40 -25 9 0 27 11 40 25 24 23 25 30 25 140 l0 115 118 0 c139 0
152 7 160 90 l5 50 117 0 c128 0 150 9 150 62 0 48 -25 58 -153 58 l-117 0 0
80 0 80 118 0 c103 0 121 3 135 18 23 25 21 58 -3 82 -18 18 -33 20 -135 20
l-115 0 0 75 0 75 106 0 c129 0 163 14 164 68 0 12 -9 31 -20 42 -18 18 -33
20 -135 20 l-115 0 0 75 0 75 115 0 c102 0 117 2 135 20 28 28 25 64 -6 89
-23 18 -41 21 -135 21 l-109 0 0 75 0 75 113 0 c128 0 157 11 157 59 0 52 -24
61 -152 61 l-116 0 -4 119 c-4 144 -13 161 -90 161 l-48 0 0 115 c0 110 -1
117 -25 140 -29 30 -45 31 -76 6 -22 -18 -24 -28 -29 -138 l-5 -118 -72 -3
-73 -3 0 116 c0 110 -1 117 -25 140 -13 14 -31 25 -40 25 -9 0 -27 -11 -40
-25 -24 -23 -25 -30 -25 -140 l0 -116 -72 3 -73 3 -5 122 c-4 107 -7 124 -25
137 -27 20 -48 20 -74 -1 -19 -16 -21 -30 -23 -138 l-3 -120 -77 -3 -78 -3 0
121 c0 107 -2 122 -20 140 -11 11 -29 20 -40 20 -11 0 -29 -9 -40 -20 -18 -18
-20 -33 -20 -140 l0 -121 -72 3 -73 3 -5 118 c-5 110 -7 120 -29 138 -31 25
-53 24 -79 -4z m1228 -1082 l0 -705 -700 0 -700 0 0 705 0 705 700 0 700 0 0
-705z"/>
</g>
</svg>
