<?xml version="1.0" standalone="no"?>
<!DOCTYPE svg PUBLIC "-//W3C//DTD SVG 20010904//EN"
 "http://www.w3.org/TR/2001/REC-SVG-20010904/DTD/svg10.dtd">
<svg version="1.0" xmlns="http://www.w3.org/2000/svg"
 width="449.000000pt" height="449.000000pt" viewBox="0 0 449.000000 449.000000"
 preserveAspectRatio="xMidYMid meet">
<g transform="translate(0.000000,449.000000) scale(0.100000,-0.100000)"
fill="rgb(92, 212, 180)" stroke="none">
<path d="M1950 4360 c-20 -20 -20 -33 -20 -813 0 -756 1 -795 18 -810 17 -15
70 -17 555 -17 l537 0 0 -75 0 -75 -124 0 c-118 0 -126 -1 -140 -22 -22 -32
-20 -61 7 -86 23 -22 29 -22 325 -22 289 0 303 1 322 20 25 25 26 72 2 93 -15
14 -41 17 -140 17 l-122 0 0 75 0 75 538 0 c509 0 540 1 555 18 16 17 17 88
17 815 l0 796 -22 15 c-20 14 -146 16 -1155 16 -1120 0 -1133 0 -1153 -20z
m2200 -810 l0 -700 -1045 0 -1045 0 0 700 0 700 1045 0 1045 0 0 -700z"/>
<path d="M2224 4079 c-18 -20 -19 -45 -22 -503 -2 -264 0 -495 3 -513 12 -68
-53 -63 899 -63 729 0 865 2 882 14 18 14 19 33 22 524 2 504 2 509 -18 535
l-21 27 -863 0 -863 0 -19 -21z m1646 -529 l0 -420 -765 0 -765 0 0 420 0 420
765 0 765 0 0 -420z"/>
<path d="M3355 2288 c-11 -6 -23 -16 -27 -22 -4 -6 -8 -95 -8 -198 l0 -188
-50 0 c-37 0 -55 -5 -70 -20 -19 -19 -20 -33 -20 -259 0 -237 0 -240 22 -255
13 -9 43 -16 70 -16 l48 0 0 -140 0 -140 -325 0 -326 0 -24 -25 c-14 -13 -25
-33 -25 -45 0 -12 11 -32 25 -45 l24 -25 364 0 c352 0 365 1 390 21 l27 20 2
187 3 187 54 5 c82 9 81 6 81 277 0 220 -1 234 -20 253 -15 15 -33 20 -70 20
l-50 0 0 189 0 190 -26 20 c-30 24 -41 25 -69 9z m105 -683 l0 -145 -75 0 -75
0 0 145 0 145 75 0 75 0 0 -145z"/>
<path d="M145 2135 l-25 -24 0 -783 c0 -693 2 -786 16 -806 l15 -22 540 0 539
0 0 -75 0 -75 -118 0 c-106 0 -121 -2 -137 -20 -22 -25 -22 -65 0 -90 17 -19
33 -20 325 -20 292 0 308 1 325 20 22 25 22 65 0 90 -16 18 -31 20 -137 20
l-118 0 0 75 0 75 539 0 540 0 15 22 c14 20 16 113 16 806 l0 783 -25 24 -24
25 -1131 0 -1131 0 -24 -25z m2195 -810 l0 -695 -1040 0 -1040 0 0 695 0 695
1040 0 1040 0 0 -695z"/>
<path d="M420 1860 c-19 -19 -20 -33 -20 -534 l0 -515 26 -20 c27 -21 32 -21
874 -21 842 0 847 0 874 21 l26 20 0 515 c0 501 -1 515 -20 534 -20 20 -33 20
-880 20 -847 0 -860 0 -880 -20z m1650 -530 l0 -420 -770 0 -770 0 0 420 0
420 770 0 770 0 0 -420z"/>
</g>
</svg>
