<?xml version="1.0" standalone="no"?>
<!DOCTYPE svg PUBLIC "-//W3C//DTD SVG 20010904//EN"
 "http://www.w3.org/TR/2001/REC-SVG-20010904/DTD/svg10.dtd">
<svg version="1.0" xmlns="http://www.w3.org/2000/svg"
 width="512.000000pt" height="512.000000pt" viewBox="0 0 512.000000 512.000000"
 preserveAspectRatio="xMidYMid meet">
<g transform="translate(0.000000,512.000000) scale(0.100000,-0.100000)"
fill="rgb(92, 212, 180)" stroke="none">
<path d="M485 3456 c-24 -24 -25 -29 -25 -178 0 -177 4 -189 74 -207 48 -12
66 -33 66 -76 0 -33 -42 -75 -75 -75 -14 0 -34 -9 -45 -20 -19 -19 -20 -33
-20 -524 0 -481 1 -505 19 -527 l19 -24 1375 0 c1310 0 1376 1 1395 18 11 10
23 32 26 49 9 47 33 68 77 68 42 0 79 -35 79 -75 0 -12 9 -30 21 -41 20 -18
44 -19 560 -19 525 0 539 0 558 20 18 19 19 45 26 527 l7 507 -26 25 c-14 14
-37 26 -51 26 -56 0 -87 77 -45 115 10 9 34 20 51 24 62 13 69 36 62 214 -4
102 -10 163 -19 175 -12 16 -130 17 -2049 20 l-2036 2 -24 -24z m4005 -186 c0
-77 -1 -80 -27 -94 -68 -35 -113 -112 -113 -194 0 -60 44 -135 93 -158 l34
-16 6 -286 c4 -157 7 -350 7 -429 l0 -143 -74 0 -73 0 -5 52 c-4 38 -12 57
-28 70 -29 23 -41 23 -74 -3 -22 -17 -26 -28 -26 -70 l0 -49 -75 0 -75 0 0 45
c0 35 -6 52 -25 70 -31 31 -49 31 -80 0 -19 -18 -25 -35 -25 -70 l0 -45 -74 0
-75 0 -3 51 c-2 43 -8 55 -31 73 -26 19 -30 19 -55 5 -24 -13 -27 -22 -30 -72
l-3 -57 -49 0 c-44 0 -51 3 -64 29 -30 58 -114 111 -176 111 -62 0 -146 -53
-176 -111 -13 -25 -20 -29 -58 -29 l-43 0 -5 52 c-4 38 -12 57 -28 70 -29 23
-41 23 -74 -3 -22 -17 -26 -28 -26 -70 l0 -49 -75 0 -75 0 0 49 c0 42 -4 53
-26 70 -34 27 -50 26 -79 -4 -19 -18 -25 -35 -25 -70 l0 -45 -74 0 -75 0 -3
51 c-2 43 -8 55 -31 73 -26 19 -30 19 -55 5 -24 -13 -27 -22 -30 -72 l-3 -57
-79 0 -80 0 0 50 c0 79 -54 116 -100 70 -15 -15 -20 -33 -20 -70 l0 -50 -80 0
-79 0 -3 57 c-3 50 -6 59 -30 72 -25 14 -29 14 -55 -5 -23 -18 -29 -30 -31
-73 l-3 -51 -75 0 -74 0 0 45 c0 35 -6 52 -25 70 -13 14 -31 25 -40 25 -9 0
-27 -11 -40 -25 -19 -18 -25 -35 -25 -70 l0 -45 -75 0 -75 0 0 45 c0 35 -6 52
-25 70 -29 30 -45 31 -75 7 -16 -13 -24 -32 -28 -70 l-5 -52 -73 0 -74 0 0 47
c0 34 -6 53 -22 70 -46 49 -98 14 -98 -67 l0 -50 -80 0 -80 0 0 50 c0 77 -41
109 -95 74 -21 -14 -25 -24 -25 -70 l0 -54 -75 0 -75 0 0 430 0 429 28 15
c101 53 134 192 66 288 -16 23 -44 48 -61 57 l-33 16 0 83 0 82 1950 0 1950 0
0 -80z"/>
<path d="M900 3180 c-19 -19 -20 -33 -20 -460 0 -427 1 -441 20 -460 18 -18
33 -20 174 -20 140 0 156 2 180 21 l26 20 0 438 0 438 -23 21 c-22 21 -33 22
-180 22 -144 0 -159 -2 -177 -20z m250 -460 l0 -350 -75 0 -75 0 0 350 0 350
75 0 75 0 0 -350z"/>
<path d="M1455 3175 l-25 -24 0 -431 0 -431 25 -24 c23 -24 28 -25 178 -25
138 0 157 2 178 19 l24 19 0 442 0 442 -24 19 c-21 17 -40 19 -178 19 -150 0
-155 -1 -178 -25z m255 -455 l0 -350 -75 0 -75 0 0 350 0 350 75 0 75 0 0
-350z"/>
<path d="M2010 3180 c-19 -19 -20 -33 -20 -460 0 -439 0 -439 22 -460 20 -18
35 -20 178 -20 143 0 158 2 178 20 22 21 22 21 22 460 0 427 -1 441 -20 460
-18 18 -33 20 -180 20 -147 0 -162 -2 -180 -20z m260 -460 l0 -350 -80 0 -80
0 0 350 0 350 80 0 80 0 0 -350z"/>
<path d="M2705 3175 l-25 -24 0 -431 0 -431 25 -24 c23 -24 28 -25 178 -25
138 0 157 2 178 19 l24 19 0 442 0 442 -24 19 c-21 17 -40 19 -178 19 -150 0
-155 -1 -178 -25z m255 -455 l0 -350 -75 0 -75 0 0 350 0 350 75 0 75 0 0
-350z"/>
<path d="M3262 3182 c-17 -17 -19 -47 -24 -363 -3 -189 -3 -390 1 -446 8 -136
2 -132 202 -133 204 0 194 -9 203 180 4 79 4 278 0 443 -7 273 -9 302 -26 319
-16 16 -36 18 -178 18 -142 0 -162 -2 -178 -18z m255 -462 l-2 -350 -75 0 -75
0 -3 350 -2 350 80 0 80 0 -3 -350z"/>
<path d="M3819 3181 l-24 -19 0 -442 0 -442 24 -19 c21 -17 40 -19 178 -19
150 0 155 1 178 25 l25 24 0 431 0 431 -25 24 c-23 24 -28 25 -178 25 -138 0
-157 -2 -178 -19z m251 -461 l0 -350 -75 0 -75 0 0 343 c0 189 3 347 7 350 3
4 37 7 75 7 l68 0 0 -350z"/>
</g>
</svg>
