<svg version="1.0" xmlns="http://www.w3.org/2000/svg"
 width="42.000000pt" height="48.000000pt" viewBox="0 0 42.000000 48.000000"
 preserveAspectRatio="xMidYMid meet">
<g transform="translate(0.000000,48.000000) scale(0.100000,-0.100000)"
fill="#dd3d44" stroke="none">
<path d="M97 414 l-97 -56 0 -118 0 -117 104 -60 104 -60 106 61 106 60 0 117
0 117 -99 56 c-54 31 -105 56 -113 56 -7 -1 -57 -26 -111 -56z m123 -57 c0
-40 3 -45 37 -61 l37 -18 -37 -21 c-34 -19 -37 -25 -37 -64 0 -39 3 -44 36
-61 l37 -19 -38 -23 -38 -24 -36 21 c-32 18 -36 26 -39 66 -3 39 -7 47 -33 57
-43 18 -43 26 -4 49 31 18 35 25 35 61 0 35 4 43 33 60 17 11 35 20 40 20 4 0
7 -19 7 -43z"/>
</g>
</svg>