<svg width="70" height="23" viewBox="0 0 70 23" fill="none" xmlns="http://www.w3.org/2000/svg">
<path d="M52.7692 11.5C52.7692 14.6159 51.6636 17.2794 49.4523 19.4907C47.2553 21.702 44.5918 22.8076 41.4615 22.8076C38.3456 22.8076 35.682 21.702 33.4707 19.4907C31.2594 17.2794 30.1538 14.6159 30.1538 11.5C30.1538 8.3697 31.2594 5.70611 33.4707 3.50918C35.682 1.2979 38.3456 0.192261 41.4615 0.192261C44.5918 0.192261 47.2553 1.2979 49.4523 3.50918C51.6636 5.70611 52.7692 8.3697 52.7692 11.5ZM48.2461 11.5C48.2461 9.61893 47.5856 8.0179 46.2646 6.69688C44.9436 5.37585 43.3425 4.71534 41.4615 4.71534C39.5948 4.71534 37.9938 5.37585 36.6584 6.69688C35.3374 8.0179 34.6769 9.61893 34.6769 11.5C34.6769 13.3666 35.3374 14.9676 36.6584 16.303C37.9938 17.6241 39.5948 18.2846 41.4615 18.2846C43.3425 18.2846 44.9436 17.6241 46.2646 16.303C47.5856 14.9676 48.2461 13.3666 48.2461 11.5Z" fill="#C83E93"/>
<path d="M70.0001 7.58145C70.0001 9.61161 69.2884 11.3507 67.8651 12.7987C66.4564 14.2466 64.747 14.9706 62.7367 14.9706H59.5453V22.8076H54.9232V0.192261H62.7367C64.747 0.192261 66.4564 0.916252 67.8651 2.36423C69.2884 3.79729 70.0001 5.53636 70.0001 7.58145ZM65.378 7.58145C65.378 6.83507 65.1212 6.20064 64.6076 5.67817C64.094 5.1557 63.4704 4.89447 62.7367 4.89447H59.5453V10.2684H62.7367C63.4704 10.2684 64.094 10.0072 64.6076 9.48472C65.1212 8.94733 65.378 8.3129 65.378 7.58145Z" fill="white"/>
<path d="M14.7109 22.3769H0V0.623029H4.68073V17.8538H14.7109V22.3769Z" fill="white"/>
<path d="M38.7692 11.5C38.7692 14.6159 37.6251 17.2794 35.3367 19.4907C33.0632 21.702 30.3068 22.8076 27.0674 22.8076C23.8429 22.8076 21.0865 21.702 18.7981 19.4907C16.5098 17.2794 15.3656 14.6159 15.3656 11.5C15.3656 8.3697 16.5098 5.70611 18.7981 3.50918C21.0865 1.2979 23.8429 0.192261 27.0674 0.192261C30.3068 0.192261 33.0632 1.2979 35.3367 3.50918C37.6251 5.70611 38.7692 8.3697 38.7692 11.5ZM34.0885 11.5C34.0885 9.61893 33.405 8.0179 32.0379 6.69688C30.6708 5.37585 29.014 4.71534 27.0674 4.71534C25.1357 4.71534 23.4789 5.37585 22.0969 6.69688C20.7299 8.0179 20.0463 9.61893 20.0463 11.5C20.0463 13.3666 20.7299 14.9676 22.0969 16.303C23.4789 17.6241 25.1357 18.2846 27.0674 18.2846C29.014 18.2846 30.6708 17.6241 32.0379 16.303C33.405 14.9676 34.0885 13.3666 34.0885 11.5Z" fill="white"/>
</svg>
