<svg xmlns="http://www.w3.org/2000/svg" xmlns:xlink="http://www.w3.org/1999/xlink" width="42" height="48" version="1.1" style=""><rect id="backgroundrect" width="100%" height="100%" x="0" y="0" fill="none" stroke="none" class="" style=""/>
    <!-- Generator: Sketch 52.6 (67491) - http://www.bohemiancoding.com/sketch -->
    <title>logo-green</title>
    <desc>Created with Sketch.</desc>
    
<g class="currentLayer" style=""><title>Layer 1</title><g id="Page-1" stroke="none" stroke-width="1" fill="none" fill-rule="evenodd" class="">
        <g id="logo-green" fill="#4DD4B6">
            <path d="M21.018,0 L41.89,11.937 L41.816,35.937 L20.873,48 L0,36.063 L0.072,12.063 L21.018,0 Z M21.532,24.43 L28.8,20.284 L21.532,16.139 L21.532,7.855 L14.242,12 L14.242,20.294 L6.982,24.43 L14.242,28.576 L14.242,36.87 L21.52,41.017 L28.795,36.87 L21.532,32.724 L21.532,24.43 Z M62.767,34.91 L57.943,34.91 L57.943,16.221 L49.745,16.221 L54.528,12.217 L68.945,12.217 L68.945,16.221 L62.767,16.221 L62.767,34.91 Z M76.585,26.62 L76.585,35.525 L71.757,35.525 L71.757,12.316 L78.392,12.316 C81.487,12.316 83.776,12.89 85.262,14.039 C86.746,15.187 87.489,16.93 87.489,19.269 C87.489,20.634 87.12,21.849 86.383,22.912 C85.645,23.976 84.602,24.809 83.252,25.412 L89.95,35.525 L84.591,35.525 L79.155,26.619 L76.585,26.619 L76.585,26.62 Z M76.585,22.619 L78.143,22.619 C79.669,22.619 80.796,22.359 81.523,21.841 C82.25,21.323 82.613,20.508 82.613,19.396 C82.613,18.296 82.243,17.512 81.5,17.047 C80.757,16.581 79.607,16.348 78.05,16.348 L76.585,16.348 L76.585,22.618 L76.585,22.619 Z M99.903,21.873 L104.653,12.316 L109.856,12.316 L102.302,26.492 L102.302,35.525 L97.504,35.525 L97.504,26.651 L89.949,12.316 L95.183,12.316 L99.903,21.873 Z M112.723,12.316 L119.81,12.316 C123.039,12.316 125.383,12.785 126.842,13.721 C128.302,14.657 129.031,16.147 129.031,18.191 C129.031,19.577 128.711,20.714 128.073,21.602 C127.434,22.492 126.585,23.026 125.526,23.206 L125.526,23.364 C126.97,23.694 128.011,24.307 128.649,25.206 C129.288,26.106 129.607,27.302 129.607,28.794 C129.607,30.91 128.857,32.562 127.357,33.747 C125.856,34.932 123.817,35.525 121.243,35.525 L112.723,35.525 L112.723,12.316 Z M117.551,25.413 L117.551,31.461 L120.698,31.461 C122.027,31.461 123.008,31.201 123.642,30.683 C124.275,30.165 124.592,29.371 124.592,28.303 C124.592,26.376 123.242,25.413 120.542,25.413 L117.552,25.413 L117.551,25.413 Z M117.551,21.507 L120.355,21.507 C121.663,21.507 122.611,21.301 123.197,20.889 C123.784,20.475 124.077,19.794 124.077,18.841 C124.077,17.952 123.758,17.314 123.12,16.928 C122.481,16.541 121.471,16.348 120.09,16.348 L117.551,16.348 L117.551,21.508 L117.551,21.507 Z M147.271,35.525 L134.156,35.525 L134.156,12.316 L147.27,12.316 L147.27,16.349 L138.984,16.349 L138.984,21.444 L146.694,21.444 L146.694,25.476 L138.984,25.476 L138.984,31.461 L147.27,31.461 L147.27,35.525 L147.271,35.525 Z" id="Shape"/>
        </g>
    </g></g></svg>