<svg width="36" height="36" viewBox="0 0 36 36" fill="none" xmlns="http://www.w3.org/2000/svg">
<circle cx="18" cy="18" r="18" fill="#252525"/>
<path d="M25.5 18.75V15.75C25.5 12 24 10.5 20.25 10.5H15.75C12 10.5 10.5 12 10.5 15.75V20.25C10.5 24 12 25.5 15.75 25.5H18.75" stroke="white" stroke-width="1.5" stroke-linecap="round" stroke-linejoin="round"/>
<path d="M14.4975 19.8676L16.2825 17.5501C16.5375 17.2201 17.01 17.1601 17.34 17.4151L18.7125 18.4951C19.0425 18.7501 19.515 18.6901 19.77 18.3676L21.5025 16.1326" stroke="white" stroke-width="1.5" stroke-linecap="round" stroke-linejoin="round"/>
<path d="M23.61 20.8651L23.82 21.2926C23.925 21.5026 24.1875 21.6976 24.42 21.7426L24.705 21.7876C25.56 21.9301 25.7625 22.5601 25.1475 23.1826L24.885 23.4451C24.7125 23.6251 24.615 23.9701 24.6675 24.2101L24.705 24.3676C24.9375 25.4026 24.39 25.8001 23.49 25.2601L23.295 25.1476C23.0625 25.0126 22.6875 25.0126 22.455 25.1476L22.26 25.2601C21.3525 25.8076 20.805 25.4026 21.045 24.3676L21.0825 24.2101C21.135 23.9701 21.0375 23.6251 20.865 23.4451L20.6025 23.1826C19.9875 22.5601 20.19 21.9301 21.045 21.7876L21.33 21.7426C21.555 21.7051 21.825 21.5026 21.93 21.2926L22.14 20.8651C22.545 20.0476 23.205 20.0476 23.61 20.8651Z" stroke="white" stroke-width="1.5" stroke-linecap="round" stroke-linejoin="round"/>
</svg>
