<svg width="18" height="18" viewBox="0 0 18 18" fill="none" xmlns="http://www.w3.org/2000/svg">
<path d="M4.5 2.25V3.75H7.5V2.25H4.5ZM10.5 2.25V3.75H13.5V2.25H10.5ZM4.875 5.25C4.2622 5.25 3.75 5.7622 3.75 6.375V7.5C2.9302 7.5 2.25 8.1802 2.25 9V14.625C2.25 15.2378 2.7622 15.75 3.375 15.75H7.125C7.7378 15.75 8.25 15.2378 8.25 14.625V12H9.75V14.625C9.75 15.2378 10.2622 15.75 10.875 15.75H14.625C15.2378 15.75 15.75 15.2378 15.75 14.625V9C15.75 8.1802 15.0698 7.5 14.25 7.5V6.375C14.25 5.7622 13.7378 5.25 13.125 5.25H10.875C10.2622 5.25 9.75 5.7622 9.75 6.375V7.5H8.25V6.375C8.25 5.7622 7.7378 5.25 7.125 5.25H4.875ZM5.25 6.75H6.75V14.25H3.75V9H5.25V6.75ZM11.25 6.75H12.75V9H14.25V14.25H11.25V6.75ZM8.25 9H9.75V10.5H8.25V9Z" fill="#9BB0CF"/>
</svg>
