<svg width="24" height="24" viewBox="0 0 24 24" fill="none" xmlns="http://www.w3.org/2000/svg">
<path d="M11.9884 2.9893C11.9518 2.9902 11.9152 2.99379 11.8791 3.00004H6.25015C4.74027 3.00004 3.50015 4.24016 3.50015 5.75004V14.627C3.48693 14.7075 3.48693 14.7896 3.50015 14.8702V18.25C3.50015 19.7599 4.74027 21 6.25015 21H11.8771C11.9576 21.0133 12.0398 21.0133 12.1203 21H17.7502C19.26 21 20.5002 19.7599 20.5002 18.25V14.8731C20.5134 14.7926 20.5134 14.7104 20.5002 14.6299V5.75004C20.5002 4.24016 19.26 3.00004 17.7502 3.00004H12.1232C12.0787 2.99241 12.0336 2.98882 11.9884 2.9893ZM6.25015 4.50004H11.2502V8.50004H5.00015V5.75004C5.00015 5.05093 5.55104 4.50004 6.25015 4.50004ZM12.7502 4.50004H17.7502C18.4493 4.50004 19.0002 5.05093 19.0002 5.75004V8.50004H12.7502V4.50004ZM5.00015 10H11.2502V14H5.00015V10ZM12.7502 10H19.0002V14H12.7502V10ZM5.00015 15.5H11.2502V19.5H6.25015C5.55104 19.5 5.00015 18.9492 5.00015 18.25V15.5ZM12.7502 15.5H19.0002V18.25C19.0002 18.9492 18.4493 19.5 17.7502 19.5H12.7502V15.5Z" fill="#9BB0CF"/>
</svg>
