<svg width="20" height="20" viewBox="0 0 20 20" fill="none" xmlns="http://www.w3.org/2000/svg">
<path d="M10 0C4.48603 0 0 4.48604 0 10C0 15.514 4.48603 20 10 20C15.514 20 20 15.514 20 10C20 4.48604 15.514 0 10 0ZM10 1.5C14.7033 1.5 18.5 5.2967 18.5 10C18.5 14.7033 14.7033 18.5 10 18.5C5.29669 18.5 1.5 14.7033 1.5 10C1.5 5.2967 5.29669 1.5 10 1.5ZM10 2.25C9.80109 2.25 9.61032 2.32902 9.46967 2.46967C9.32902 2.61032 9.25 2.80109 9.25 3C9.25 3.19891 9.32902 3.38968 9.46967 3.53033C9.61032 3.67098 9.80109 3.75 10 3.75C10.1989 3.75 10.3897 3.67098 10.5303 3.53033C10.671 3.38968 10.75 3.19891 10.75 3C10.75 2.80109 10.671 2.61032 10.5303 2.46967C10.3897 2.32902 10.1989 2.25 10 2.25ZM5.05078 4.30078C4.85187 4.30078 4.6611 4.3798 4.52045 4.52045C4.3798 4.6611 4.30078 4.85187 4.30078 5.05078C4.30078 5.24969 4.3798 5.44046 4.52045 5.58111C4.6611 5.72176 4.85187 5.80078 5.05078 5.80078C5.24969 5.80078 5.44046 5.72176 5.58111 5.58111C5.72176 5.44046 5.80078 5.24969 5.80078 5.05078C5.80078 4.85187 5.72176 4.6611 5.58111 4.52045C5.44046 4.3798 5.24969 4.30078 5.05078 4.30078ZM14.9492 4.30078C14.7503 4.30078 14.5595 4.3798 14.4189 4.52045C14.2782 4.6611 14.1992 4.85187 14.1992 5.05078C14.1992 5.24969 14.2782 5.44046 14.4189 5.58111C14.5595 5.72176 14.7503 5.80078 14.9492 5.80078C15.1481 5.80078 15.3389 5.72176 15.4795 5.58111C15.6202 5.44046 15.6992 5.24969 15.6992 5.05078C15.6992 4.85187 15.6202 4.6611 15.4795 4.52045C15.3389 4.3798 15.1481 4.30078 14.9492 4.30078ZM15.249 7.6084C14.1042 7.58914 10.0634 8.89111 9.61719 9.07617C9.10719 9.28767 8.86467 9.87281 9.07617 10.3828C9.28767 10.8928 9.87281 11.1353 10.3828 10.9238C10.8933 10.7123 15.7545 8.2136 15.543 7.7041C15.5165 7.64029 15.4126 7.61115 15.249 7.6084ZM3 9.25C2.80109 9.25 2.61032 9.32902 2.46967 9.46967C2.32902 9.61032 2.25 9.80109 2.25 10C2.25 10.1989 2.32902 10.3897 2.46967 10.5303C2.61032 10.671 2.80109 10.75 3 10.75C3.19891 10.75 3.38968 10.671 3.53033 10.5303C3.67098 10.3897 3.75 10.1989 3.75 10C3.75 9.80109 3.67098 9.61032 3.53033 9.46967C3.38968 9.32902 3.19891 9.25 3 9.25ZM17 9.25C16.8011 9.25 16.6103 9.32902 16.4697 9.46967C16.329 9.61032 16.25 9.80109 16.25 10C16.25 10.1989 16.329 10.3897 16.4697 10.5303C16.6103 10.671 16.8011 10.75 17 10.75C17.1989 10.75 17.3897 10.671 17.5303 10.5303C17.671 10.3897 17.75 10.1989 17.75 10C17.75 9.80109 17.671 9.61032 17.5303 9.46967C17.3897 9.32902 17.1989 9.25 17 9.25ZM5.05078 14.1992C4.85187 14.1992 4.6611 14.2782 4.52045 14.4189C4.3798 14.5595 4.30078 14.7503 4.30078 14.9492C4.30078 15.1481 4.3798 15.3389 4.52045 15.4795C4.6611 15.6202 4.85187 15.6992 5.05078 15.6992C5.24969 15.6992 5.44046 15.6202 5.58111 15.4795C5.72176 15.3389 5.80078 15.1481 5.80078 14.9492C5.80078 14.7503 5.72176 14.5595 5.58111 14.4189C5.44046 14.2782 5.24969 14.1992 5.05078 14.1992ZM14.9492 14.1992C14.7503 14.1992 14.5595 14.2782 14.4189 14.4189C14.2782 14.5595 14.1992 14.7503 14.1992 14.9492C14.1992 15.1481 14.2782 15.3389 14.4189 15.4795C14.5595 15.6202 14.7503 15.6992 14.9492 15.6992C15.1481 15.6992 15.3389 15.6202 15.4795 15.4795C15.6202 15.3389 15.6992 15.1481 15.6992 14.9492C15.6992 14.7503 15.6202 14.5595 15.4795 14.4189C15.3389 14.2782 15.1481 14.1992 14.9492 14.1992Z" fill="#9BB0CF"/>
</svg>
