<svg width="20" height="20" viewBox="0 0 20 20" fill="none" xmlns="http://www.w3.org/2000/svg">
<path d="M16.7748 3.45009C16.5092 3.45946 16.2655 3.60009 16.1248 3.82509L8.59983 15.3376L3.72483 11.1251C3.51546 10.9079 3.2014 10.8266 2.91233 10.9173C2.62483 11.0063 2.41077 11.2501 2.36077 11.547C2.31077 11.8454 2.43108 12.1454 2.67483 12.3251L8.24983 17.1501C8.42483 17.2985 8.65608 17.3641 8.88265 17.3313C9.11077 17.297 9.31233 17.1673 9.43733 16.9751L17.4748 4.70009C17.6467 4.44852 17.6608 4.12352 17.5123 3.8579C17.3639 3.59384 17.078 3.43602 16.7748 3.45009Z" fill="#32FE9A"/>
</svg>
