<svg width="688" height="9" viewBox="0 0 688 9" fill="none" xmlns="http://www.w3.org/2000/svg">
<path d="M0 7.46904C0 6.6536 0.6535 5.9886 1.46881 5.97438L344 0L687.508 5.99142C687.781 5.99618 688 6.21893 688 6.49206C688 6.77141 687.852 6.99789 687.573 6.99392C677.061 6.84479 474.833 4 344 4C216.024 4 19.736 8.53652 1.38703 8.96726C0.547708 8.98697 0 8.30859 0 7.46904Z" fill="#C4C4C4"/>
<path d="M0 7.46904C0 6.6536 0.6535 5.9886 1.46881 5.97438L344 0L687.508 5.99142C687.781 5.99618 688 6.21893 688 6.49206C688 6.77141 687.852 6.99789 687.573 6.99392C677.061 6.84479 474.833 4 344 4C216.024 4 19.736 8.53652 1.38703 8.96726C0.547708 8.98697 0 8.30859 0 7.46904Z" fill="url(#paint0_linear)"/>
<defs>
<linearGradient id="paint0_linear" x1="-12.4638" y1="4.33636" x2="621.053" y2="210.401" gradientUnits="userSpaceOnUse">
<stop stop-color="#FA2CAB"/>
<stop offset="1" stop-color="#9B69FC"/>
</linearGradient>
</defs>
</svg>
