<svg width="148" height="48" viewBox="0 0 148 48" fill="none" xmlns="http://www.w3.org/2000/svg">
<g clip-path="url(#clip0)">
<path d="M135.579 3.39297e-05H11.7375C11.2861 3.39297e-05 10.8401 3.39298e-05 10.3899 0.00243393C10.013 0.00483393 9.63909 0.0118059 9.25859 0.0176739C8.43197 0.0271561 7.6073 0.0980454 6.79173 0.229726C5.97731 0.364273 5.1884 0.617933 4.45168 0.982126C3.71587 1.3494 3.04354 1.82663 2.45907 2.39652C1.87154 2.9648 1.38179 3.62165 1.00865 4.34183C0.634474 5.06056 0.375022 5.83076 0.239251 6.62581C0.102189 7.41986 0.0284349 8.22306 0.0186501 9.02821C0.00722616 9.39613 0.00601975 9.76527 0 10.1332V37.8703C0.00601975 38.243 0.00722616 38.6039 0.0186501 38.9766C0.0284379 39.7817 0.102192 40.5849 0.239251 41.3789C0.374647 42.1744 0.634115 42.9451 1.00865 43.6641C1.38162 44.3819 1.87144 45.0361 2.45907 45.6012C3.04132 46.1736 3.71409 46.6512 4.45168 47.0157C5.18839 47.3808 5.97722 47.636 6.79173 47.7726C7.60743 47.9033 8.43203 47.9742 9.25859 47.9848C9.63909 47.993 10.013 47.9976 10.3899 47.9976C10.8401 48 11.2861 48 11.7375 48H135.579C136.022 48 136.471 48 136.914 47.9976C137.289 47.9976 137.674 47.993 138.049 47.9848C138.874 47.9747 139.697 47.9038 140.511 47.7726C141.328 47.635 142.12 47.3799 142.86 47.0157C143.597 46.651 144.269 46.1735 144.851 45.6012C145.437 45.0339 145.928 44.3802 146.305 43.6641C146.677 42.9445 146.934 42.174 147.067 41.3789C147.205 40.5848 147.281 39.7818 147.296 38.9766C147.301 38.6039 147.301 38.243 147.301 37.8703C147.31 37.4344 147.31 37.0008 147.31 36.5578V11.4434C147.31 11.0039 147.31 10.568 147.301 10.1332C147.301 9.76527 147.301 9.39613 147.296 9.02816C147.281 8.22294 147.205 7.41992 147.067 6.62576C146.934 5.83117 146.677 5.06104 146.305 4.34178C145.545 2.89827 144.34 1.72326 142.86 0.982018C142.12 0.618715 141.328 0.365122 140.511 0.229618C139.697 0.0973573 138.874 0.0264432 138.049 0.0175059C137.674 0.0116499 137.289 0.00461793 136.914 0.00227793C136.471 -0.00012207 136.022 -0.00012207 135.579 -0.00012207V3.39297e-05Z" fill="#A6A6A6"/>
<path d="M10.3958 46.9502C10.0207 46.9502 9.65472 46.9455 9.28259 46.9373C8.5117 46.9275 7.7426 46.8621 6.98162 46.7416C6.27204 46.6225 5.58465 46.4009 4.94212 46.0841C4.30548 45.77 3.72481 45.3581 3.22237 44.8642C2.71265 44.3761 2.28828 43.8101 1.96609 43.1884C1.64034 42.5627 1.41491 41.8921 1.29764 41.1998C1.17099 40.4559 1.10247 39.7037 1.09267 38.9498C1.08486 38.6967 1.07465 37.8541 1.07465 37.8541V10.1334C1.07465 10.1334 1.08553 9.30369 1.09273 9.05993C1.10212 8.30715 1.17024 7.55615 1.2965 6.81345C1.41399 6.11927 1.6396 5.44667 1.96552 4.81893C2.28653 4.1977 2.70854 3.6312 3.21519 3.14139C3.72127 2.64692 4.30379 2.2329 4.94152 1.91442C5.58257 1.59868 6.26866 1.37865 6.97681 1.26169C7.74029 1.13997 8.51205 1.07417 9.28562 1.06482L10.3964 1.05017H136.908L138.032 1.06541C138.798 1.07429 139.563 1.13951 140.32 1.26052C141.035 1.37894 141.728 1.60051 142.377 1.91794C143.654 2.55975 144.694 3.57517 145.35 4.82186C145.67 5.44526 145.892 6.11238 146.008 6.80056C146.136 7.54936 146.208 8.30626 146.222 9.06521C146.226 9.40505 146.226 9.77009 146.226 10.1334C146.236 10.5834 146.236 11.0117 146.236 11.4435V36.5579C146.236 36.9939 146.236 37.4193 146.226 37.8482C146.226 38.2384 146.226 38.5959 146.221 38.9638C146.207 39.7092 146.136 40.4526 146.011 41.188C145.896 41.8853 145.672 42.5612 145.346 43.192C145.021 43.8069 144.6 44.3681 144.096 44.8549C143.593 45.3514 143.011 45.7657 142.373 46.0819C141.726 46.401 141.034 46.6235 140.32 46.7416C139.559 46.8628 138.79 46.9282 138.019 46.9373C137.658 46.9455 137.28 46.9502 136.914 46.9502L135.579 46.9526L10.3958 46.9502Z" fill="black"/>
<path d="M30.4914 24.361C30.5047 23.3594 30.7776 22.3774 31.2848 21.5062C31.792 20.6351 32.5171 19.9032 33.3924 19.3786C32.8363 18.6044 32.1027 17.9672 31.2498 17.5178C30.3969 17.0683 29.4483 16.8189 28.4792 16.7893C26.412 16.5778 24.4079 17.9951 23.3545 17.9951C22.2807 17.9951 20.6589 16.8103 18.9124 16.8454C17.7827 16.8809 16.6817 17.2012 15.7167 17.7748C14.7517 18.3485 13.9557 19.1561 13.406 20.1188C11.0252 24.1369 12.8011 30.0422 15.0817 33.2901C16.2228 34.8805 17.5563 36.6571 19.3012 36.5941C21.0088 36.525 21.6465 35.5327 23.7076 35.5327C25.7496 35.5327 26.3479 36.5941 28.1282 36.554C29.9605 36.525 31.1149 34.9565 32.2159 33.351C33.0357 32.2178 33.6666 30.9653 34.0851 29.64C33.0206 29.2012 32.1122 28.4665 31.4732 27.5278C30.8341 26.589 30.4927 25.4877 30.4914 24.361Z" fill="white"/>
<path d="M27.1284 14.6537C28.1274 13.4847 28.6196 11.982 28.5004 10.465C26.9741 10.6212 25.5643 11.3323 24.5518 12.4565C24.0567 13.0057 23.6776 13.6446 23.436 14.3367C23.1944 15.0289 23.0951 15.7606 23.1438 16.4902C23.9072 16.4978 24.6625 16.3365 25.3527 16.0184C26.0429 15.7003 26.65 15.2337 27.1284 14.6537Z" fill="white"/>
<path d="M52.0756 32.5686H46.2487L44.8493 36.5963H42.3813L47.9005 21.6947H50.4647L55.9839 36.5963H53.4738L52.0756 32.5686ZM46.8522 30.71H51.471L49.1941 24.1732H49.1303L46.8522 30.71Z" fill="white"/>
<path d="M67.9038 31.1645C67.9038 34.5406 66.0501 36.7098 63.2526 36.7098C62.5439 36.7459 61.8392 36.5868 61.219 36.2506C60.5988 35.9145 60.0883 35.4148 59.7458 34.809H59.6929V40.1902H57.4052V25.7316H59.6196V27.5387H59.6617C60.0199 26.9357 60.539 26.4387 61.1639 26.1005C61.7888 25.7623 62.4961 25.5955 63.2105 25.618C66.0392 25.618 67.9038 27.7977 67.9038 31.1645ZM65.5524 31.1645C65.5524 28.9649 64.3862 27.5188 62.607 27.5188C60.859 27.5188 59.6833 28.9953 59.6833 31.1645C59.6833 33.3535 60.859 34.8195 62.607 34.8195C64.3862 34.8195 65.5524 33.384 65.5524 31.1645Z" fill="white"/>
<path d="M80.1705 31.1645C80.1705 34.5406 78.3167 36.7098 75.5192 36.7098C74.8106 36.7459 74.1058 36.5868 73.4856 36.2506C72.8654 35.9144 72.3549 35.4148 72.0125 34.809H71.9595V40.1902H69.6718V25.7316H71.8862V27.5387H71.9283C72.2864 26.9357 72.8056 26.4387 73.4305 26.1005C74.0554 25.7623 74.7627 25.5955 75.4771 25.618C78.3059 25.618 80.1705 27.7977 80.1705 31.1645ZM77.819 31.1645C77.819 28.9649 76.6529 27.5187 74.8736 27.5187C73.1257 27.5187 71.9499 28.9953 71.9499 31.1645C71.9499 33.3535 73.1257 34.8195 74.8736 34.8195C76.6529 34.8195 77.819 33.384 77.819 31.1645H77.819Z" fill="white"/>
<path d="M88.2785 32.4442C88.448 33.9219 89.9207 34.8922 91.9331 34.8922C93.8614 34.8922 95.2487 33.9218 95.2487 32.5894C95.2487 31.4328 94.412 30.7402 92.4308 30.2656L90.4496 29.8003C87.6426 29.1394 86.3394 27.8597 86.3394 25.7832C86.3394 23.2121 88.638 21.446 91.9019 21.446C95.1321 21.446 97.3465 23.2121 97.4211 25.7832H95.1117C94.9734 24.296 93.7123 23.3984 91.8694 23.3984C90.0264 23.3984 88.7654 24.3066 88.7654 25.6285C88.7654 26.682 89.5708 27.3019 91.5412 27.7765L93.2254 28.1796C96.3619 28.9027 97.6651 30.1308 97.6651 32.3105C97.6651 35.0983 95.3869 36.8444 91.7636 36.8444C88.3734 36.8444 86.0845 35.1394 85.9366 32.444L88.2785 32.4442Z" fill="white"/>
<path d="M102.602 23.161V25.7321H104.721V27.4981H102.602V33.4876C102.602 34.418 103.026 34.8516 103.958 34.8516C104.21 34.8474 104.461 34.8301 104.71 34.8V36.5555C104.292 36.6318 103.866 36.6664 103.44 36.6586C101.183 36.6586 100.303 35.8325 100.303 33.7254V27.4981H98.6828V25.7321H100.303V23.161H102.602Z" fill="white"/>
<path d="M105.949 31.1649C105.949 27.7466 108.014 25.5985 111.235 25.5985C114.466 25.5985 116.522 27.7465 116.522 31.1649C116.522 34.5927 114.477 36.7313 111.235 36.7313C107.994 36.7313 105.949 34.5926 105.949 31.1649ZM114.191 31.1649C114.191 28.82 113.089 27.436 111.235 27.436C109.381 27.436 108.28 28.8305 108.28 31.1649C108.28 33.5192 109.381 34.8927 111.235 34.8927C113.089 34.8927 114.191 33.5192 114.191 31.1649H114.191Z" fill="white"/>
<path d="M118.408 25.7315H120.59V27.5807H120.643C120.791 27.0032 121.138 26.4928 121.626 26.1353C122.114 25.7779 122.714 25.5951 123.324 25.6179C123.588 25.617 123.851 25.6449 124.108 25.7011V27.787C123.775 27.6879 123.428 27.6423 123.08 27.6522C122.748 27.6391 122.416 27.6962 122.109 27.8197C121.801 27.9431 121.525 28.13 121.298 28.3675C121.072 28.605 120.901 28.8874 120.797 29.1954C120.693 29.5034 120.658 29.8297 120.696 30.1518V36.596H118.408L118.408 25.7315Z" fill="white"/>
<path d="M134.656 33.4055C134.348 35.3778 132.378 36.7313 129.857 36.7313C126.615 36.7313 124.602 34.6137 124.602 31.2165C124.602 27.8087 126.625 25.5985 129.761 25.5985C132.844 25.5985 134.783 27.6633 134.783 30.9575V31.7216H126.912V31.8563C126.875 32.2562 126.927 32.659 127.062 33.038C127.198 33.417 127.415 33.7635 127.698 34.0546C127.982 34.3456 128.326 34.5745 128.707 34.7261C129.088 34.8777 129.498 34.9484 129.91 34.9337C130.45 34.983 130.993 34.861 131.457 34.5857C131.92 34.3103 132.281 33.8964 132.484 33.4055L134.656 33.4055ZM126.922 30.163H132.494C132.515 29.8034 132.459 29.4437 132.33 29.1062C132.201 28.7688 132.002 28.4609 131.746 28.202C131.489 27.9431 131.18 27.7387 130.838 27.6016C130.497 27.4646 130.13 27.3978 129.761 27.4055C129.388 27.4034 129.019 27.4731 128.674 27.6108C128.329 27.7485 128.016 27.9514 127.752 28.2078C127.488 28.4641 127.279 28.7689 127.137 29.1045C126.994 29.4401 126.921 29.7998 126.922 30.163V30.163Z" fill="white"/>
<path d="M46.5655 10.4774C47.0451 10.4438 47.5264 10.5144 47.9746 10.6842C48.4229 10.8539 48.8269 11.1185 49.1575 11.4588C49.4881 11.7992 49.7372 12.2068 49.8866 12.6523C50.0361 13.0978 50.0822 13.5702 50.0217 14.0352C50.0217 16.3227 48.7534 17.6376 46.5655 17.6376H43.9123V10.4774H46.5655ZM45.0531 16.625H46.438C46.7808 16.6449 47.1237 16.5902 47.442 16.4646C47.7603 16.3391 48.0458 16.1459 48.2779 15.8993C48.5099 15.6526 48.6826 15.3586 48.7834 15.0386C48.8842 14.7187 48.9105 14.3809 48.8604 14.0498C48.9068 13.72 48.8779 13.3842 48.7755 13.0666C48.6732 12.749 48.5001 12.4574 48.2686 12.2127C48.0371 11.968 47.7529 11.7762 47.4364 11.6512C47.1199 11.5261 46.779 11.4708 46.438 11.4892H45.0531V16.625Z" fill="white"/>
<path d="M51.3105 14.933C51.2757 14.5779 51.3173 14.2197 51.4329 13.8812C51.5484 13.5427 51.7352 13.2315 51.9813 12.9675C52.2275 12.7035 52.5275 12.4926 52.8621 12.3483C53.1968 12.204 53.5587 12.1294 53.9247 12.1294C54.2906 12.1294 54.6525 12.204 54.9872 12.3483C55.3218 12.4926 55.6218 12.7035 55.868 12.9675C56.1141 13.2315 56.3009 13.5427 56.4165 13.8812C56.532 14.2197 56.5736 14.5779 56.5388 14.933C56.5743 15.2885 56.5331 15.6473 56.4179 15.9863C56.3027 16.3254 56.116 16.6371 55.8698 16.9016C55.6236 17.1661 55.3234 17.3775 54.9884 17.5221C54.6534 17.6668 54.291 17.7415 53.9247 17.7415C53.5583 17.7415 53.1959 17.6668 52.8609 17.5221C52.5259 17.3775 52.2257 17.1661 51.9795 16.9016C51.7333 16.6371 51.5466 16.3254 51.4314 15.9863C51.3162 15.6473 51.275 15.2885 51.3105 14.933ZM55.4135 14.933C55.4135 13.7618 54.8738 13.0768 53.9265 13.0768C52.9755 13.0768 52.4406 13.7618 52.4406 14.9331C52.4406 16.1137 52.9756 16.7934 53.9265 16.7934C54.8738 16.7934 55.4136 16.109 55.4136 14.933H55.4135Z" fill="white"/>
<path d="M63.4888 17.638H62.3539L61.2082 13.6583H61.1217L59.9808 17.638H58.8568L57.3288 12.2345H58.4384L59.4314 16.3577H59.5132L60.6528 12.2345H61.7023L62.842 16.3577H62.9285L63.9167 12.2345H65.0107L63.4888 17.638Z" fill="white"/>
<path d="M66.2957 12.2339H67.3488V13.0923H67.4305C67.5692 12.784 67.8031 12.5255 68.0997 12.353C68.3962 12.1804 68.7405 12.1023 69.0847 12.1296C69.3545 12.1098 69.6253 12.1495 69.8772 12.2456C70.129 12.3417 70.3555 12.4918 70.5397 12.6848C70.724 12.8778 70.8614 13.1088 70.9416 13.3606C71.0219 13.6124 71.043 13.8785 71.0034 14.1393V17.6373H69.9094V14.4071C69.9094 13.5388 69.5223 13.1069 68.7133 13.1069C68.5301 13.0986 68.3473 13.129 68.1774 13.196C68.0074 13.263 67.8544 13.365 67.7286 13.4951C67.6029 13.6251 67.5075 13.7802 67.449 13.9495C67.3905 14.1189 67.3703 14.2986 67.3897 14.4763V17.6374H66.2957L66.2957 12.2339Z" fill="white"/>
<path d="M72.7468 10.1246H73.8407V17.6375H72.7468V10.1246Z" fill="white"/>
<path d="M75.3614 14.9342C75.3265 14.5791 75.3682 14.2208 75.4838 13.8823C75.5993 13.5438 75.7862 13.2326 76.0323 12.9686C76.2785 12.7046 76.5786 12.4937 76.9132 12.3494C77.2479 12.2051 77.6098 12.1305 77.9758 12.1305C78.3418 12.1305 78.7037 12.2051 79.0384 12.3494C79.3731 12.4937 79.6731 12.7046 79.9193 12.9686C80.1654 13.2326 80.3523 13.5438 80.4678 13.8823C80.5834 14.2208 80.6251 14.5791 80.5902 14.9342C80.6257 15.2897 80.5845 15.6485 80.4692 15.9875C80.354 16.3266 80.1673 16.6383 79.921 16.9028C79.6748 17.1673 79.3746 17.3787 79.0395 17.5233C78.7045 17.6679 78.3422 17.7427 77.9758 17.7427C77.6094 17.7427 77.2471 17.6679 76.9121 17.5233C76.5771 17.3787 76.2768 17.1673 76.0306 16.9028C75.7844 16.6383 75.5976 16.3266 75.4824 15.9875C75.3671 15.6485 75.3259 15.2897 75.3614 14.9342ZM79.4644 14.9342C79.4644 13.763 78.9246 13.078 77.9773 13.078C77.0264 13.078 76.4915 13.763 76.4915 14.9343C76.4915 16.1149 77.0264 16.7946 77.9773 16.7946C78.9246 16.7946 79.4644 16.1102 79.4644 14.9342H79.4644Z" fill="white"/>
<path d="M81.7421 16.109C81.7421 15.1363 82.4851 14.5756 83.8039 14.4959L85.3054 14.4115V13.9451C85.3054 13.3744 84.9183 13.0521 84.1705 13.0521C83.5598 13.0521 83.1367 13.2707 83.0152 13.6527H81.9561C82.0679 12.7246 82.9636 12.1293 84.221 12.1293C85.6107 12.1293 86.3946 12.8037 86.3946 13.9451V17.6371H85.3415V16.8777H85.2549C85.0792 17.1501 84.8325 17.3722 84.54 17.5212C84.2475 17.6703 83.9196 17.741 83.5899 17.7261C83.3572 17.7497 83.122 17.7255 82.8995 17.6551C82.6769 17.5846 82.472 17.4695 82.2979 17.3172C82.1238 17.1648 81.9844 16.9786 81.8887 16.7705C81.793 16.5624 81.743 16.337 81.7421 16.109ZM85.3054 15.6472V15.1955L83.9517 15.2798C83.1883 15.3296 82.8421 15.5828 82.8421 16.0591C82.8421 16.5455 83.2749 16.8285 83.87 16.8285C84.0444 16.8457 84.2205 16.8285 84.388 16.778C84.5554 16.7275 84.7107 16.6447 84.8446 16.5345C84.9785 16.4243 85.0883 16.2889 85.1675 16.1365C85.2466 15.9841 85.2935 15.8177 85.3054 15.6472Z" fill="white"/>
<path d="M87.832 14.9334C87.832 13.226 88.7324 12.1444 90.1329 12.1444C90.4794 12.1288 90.8232 12.2097 91.1242 12.3776C91.4252 12.5454 91.671 12.7934 91.8328 13.0924H91.9146V10.1246H93.0085V17.6375H91.9603V16.7838H91.8737C91.6994 17.0808 91.445 17.3256 91.1382 17.4918C90.8313 17.658 90.4837 17.7392 90.1329 17.7266C88.7228 17.7266 87.832 16.645 87.832 14.9334ZM88.962 14.9334C88.962 16.0795 89.5163 16.7692 90.4431 16.7692C91.3652 16.7692 91.935 16.0696 91.935 14.9381C91.935 13.812 91.3592 13.1024 90.4431 13.1024C89.5222 13.1024 88.962 13.7967 88.962 14.9334H88.962Z" fill="white"/>
<path d="M97.5349 14.933C97.5001 14.5779 97.5417 14.2197 97.6572 13.8812C97.7728 13.5427 97.9596 13.2315 98.2057 12.9675C98.4519 12.7035 98.7519 12.4926 99.0865 12.3483C99.4212 12.204 99.7831 12.1294 100.149 12.1294C100.515 12.1294 100.877 12.204 101.212 12.3483C101.546 12.4926 101.846 12.7035 102.092 12.9675C102.338 13.2315 102.525 13.5427 102.641 13.8812C102.756 14.2197 102.798 14.5779 102.763 14.933C102.799 15.2885 102.758 15.6473 102.642 15.9863C102.527 16.3254 102.34 16.6371 102.094 16.9016C101.848 17.1661 101.548 17.3775 101.213 17.5221C100.878 17.6668 100.515 17.7415 100.149 17.7415C99.7827 17.7415 99.4203 17.6668 99.0853 17.5221C98.7503 17.3775 98.4501 17.1661 98.2039 16.9016C97.9577 16.6371 97.771 16.3254 97.6558 15.9863C97.5406 15.6473 97.4994 15.2885 97.5349 14.933ZM101.638 14.933C101.638 13.7618 101.098 13.0768 100.151 13.0768C99.1999 13.0768 98.665 13.7618 98.665 14.9331C98.665 16.1137 99.2 16.7934 100.151 16.7934C101.098 16.7934 101.638 16.109 101.638 14.933Z" fill="white"/>
<path d="M104.231 12.2339H105.284V13.0923H105.366C105.505 12.784 105.739 12.5255 106.035 12.353C106.332 12.1804 106.676 12.1023 107.02 12.1296C107.29 12.1098 107.561 12.1495 107.813 12.2456C108.064 12.3417 108.291 12.4918 108.475 12.6848C108.659 12.8778 108.797 13.1088 108.877 13.3606C108.957 13.6124 108.978 13.8785 108.939 14.1393V17.6373H107.845V14.4071C107.845 13.5388 107.458 13.1069 106.649 13.1069C106.466 13.0986 106.283 13.129 106.113 13.196C105.943 13.263 105.79 13.365 105.664 13.4951C105.538 13.6251 105.443 13.7802 105.384 13.9495C105.326 14.1189 105.306 14.2986 105.325 14.4763V17.6374H104.231V12.2339Z" fill="white"/>
<path d="M115.12 10.8884V12.2583H116.321V13.1566H115.12V15.9351C115.12 16.5011 115.359 16.749 115.904 16.749C116.043 16.7485 116.183 16.7403 116.321 16.7244V17.6126C116.125 17.6469 115.926 17.6651 115.726 17.6671C114.51 17.6671 114.025 17.2499 114.025 16.2081V13.1565H113.145V12.2583H114.025V10.8884H115.12Z" fill="white"/>
<path d="M117.816 10.1246H118.9V13.1024H118.987C119.132 12.7912 119.372 12.5313 119.675 12.3581C119.977 12.1848 120.327 12.1067 120.677 12.1344C120.945 12.1202 121.213 12.1638 121.462 12.2623C121.711 12.3607 121.935 12.5115 122.117 12.704C122.3 12.8964 122.436 13.1256 122.517 13.3754C122.598 13.6251 122.622 13.8892 122.586 14.1489V17.6375H121.491V14.4119C121.491 13.5488 121.078 13.1117 120.305 13.1117C120.117 13.0967 119.928 13.1219 119.751 13.1856C119.574 13.2492 119.414 13.3498 119.281 13.4803C119.148 13.6108 119.046 13.768 118.982 13.941C118.918 14.1139 118.893 14.2985 118.91 14.4817V17.6375H117.816L117.816 10.1246Z" fill="white"/>
<path d="M128.964 16.1794C128.816 16.6733 128.494 17.1004 128.055 17.3862C127.616 17.672 127.087 17.7982 126.563 17.7427C126.197 17.7521 125.834 17.6839 125.499 17.5429C125.163 17.4018 124.864 17.1913 124.62 16.926C124.376 16.6606 124.195 16.3467 124.088 16.0061C123.981 15.6656 123.952 15.3064 124.002 14.9536C123.953 14.5998 123.983 14.2399 124.09 13.8982C124.196 13.5566 124.377 13.2413 124.619 12.9736C124.861 12.7059 125.16 12.4921 125.494 12.3467C125.829 12.2012 126.191 12.1275 126.558 12.1306C128.1 12.1306 129.031 13.1578 129.031 14.8546V15.2267H125.116V15.2865C125.099 15.4847 125.125 15.6843 125.191 15.8724C125.258 16.0605 125.364 16.233 125.503 16.3787C125.642 16.5245 125.811 16.6403 125.998 16.7188C126.186 16.7973 126.388 16.8367 126.593 16.8345C126.854 16.8651 127.119 16.8191 127.354 16.7025C127.589 16.5858 127.783 16.4038 127.911 16.1794L128.964 16.1794ZM125.116 14.438H127.916C127.93 14.2567 127.905 14.0745 127.842 13.9032C127.779 13.732 127.68 13.5754 127.552 13.4436C127.423 13.3117 127.268 13.2076 127.096 13.1378C126.924 13.0679 126.738 13.034 126.552 13.0382C126.362 13.0359 126.175 13.0705 125.999 13.14C125.824 13.2096 125.665 13.3126 125.531 13.4431C125.397 13.5735 125.292 13.7288 125.221 13.8996C125.149 14.0705 125.114 14.2536 125.116 14.438H125.116Z" fill="white"/>
</g>
<defs>
<clipPath id="clip0">
<rect width="147.31" height="48" fill="white"/>
</clipPath>
</defs>
</svg>
