<svg width="24" height="24" viewBox="0 0 24 24" fill="none" xmlns="http://www.w3.org/2000/svg">
<path d="M8.25 4C8.05109 4.00002 7.86034 4.07904 7.71969 4.21969C7.57904 4.36034 7.50002 4.55109 7.5 4.75V8H2.25C2.05109 8.00002 1.86034 8.07904 1.71969 8.21969C1.57904 8.36034 1.50002 8.55109 1.5 8.75V11.75V18.75V19.75C1.50002 19.9489 1.57904 20.1397 1.71969 20.2803C1.86034 20.421 2.05109 20.5 2.25 20.5H21.75C21.9489 20.5 22.1397 20.421 22.2803 20.2803C22.421 20.1397 22.5 19.9489 22.5 19.75V11.75C22.5 11.5511 22.421 11.3603 22.2803 11.2197C22.1397 11.079 21.9489 11 21.75 11H16.5V4.75C16.5 4.55109 16.421 4.36034 16.2803 4.21969C16.1397 4.07904 15.9489 4.00002 15.75 4H8.25ZM9 5.5H15V11.75C15 11.9489 15.079 12.1397 15.2197 12.2803C15.3603 12.421 15.5511 12.5 15.75 12.5H21V19H3V18.75V11.75V9.5H8.25C8.44891 9.49998 8.63966 9.42096 8.78031 9.28031C8.92096 9.13966 8.99998 8.94891 9 8.75V5.5ZM12.4912 6.99902C12.4535 6.9997 12.416 7.00515 12.3789 7.01465L11.3789 7.26465C11.1109 7.33165 10.9476 7.60309 11.0146 7.87109C11.0816 8.13909 11.3541 8.30235 11.6211 8.23535L12 8.14062V10.5C12 10.776 12.224 11 12.5 11C12.776 11 13 10.776 13 10.5V7.5C13 7.346 12.9286 7.20047 12.8076 7.10547C12.7165 7.03422 12.6043 6.99701 12.4912 6.99902ZM6.5 11C5.678 11 5.20662 11.4826 5.05762 11.7676C4.93262 12.0066 5.02429 12.2938 5.25879 12.4268C5.49279 12.5583 5.79405 12.4746 5.93555 12.2451C5.95055 12.2201 6.0975 12 6.5 12C6.7755 12 7 12.2245 7 12.5C7 12.7425 6.52841 13.0058 6.14941 13.2178C5.61091 13.5183 5 13.8585 5 14.5C5 14.776 5.224 15 5.5 15H7.5C7.776 15 8 14.776 8 14.5C8 14.224 7.776 14 7.5 14H6.79785C7.36985 13.675 8 13.2575 8 12.5C8 11.673 7.327 11 6.5 11ZM17.9375 14C17.1575 14 16.6863 14.4782 16.6348 14.5322C16.4483 14.7317 16.4593 15.0405 16.6553 15.2305C16.8513 15.4205 17.1659 15.4152 17.3594 15.2227C17.3684 15.2137 17.5865 15 17.9375 15C18.101 15 18.375 15.0325 18.375 15.25C18.375 15.3495 18.375 15.5 18 15.5C17.724 15.5 17.5 15.724 17.5 16C17.5 16.276 17.724 16.5 18 16.5C18.0835 16.5 18.5 16.512 18.5 16.75C18.5 16.988 18.0835 17 18 17C17.5575 17 17.292 16.8426 17.2725 16.8301C17.043 16.6816 16.736 16.7447 16.584 16.9727C16.431 17.2027 16.4932 17.513 16.7227 17.666C16.7742 17.7 17.2455 18 18 18C18.897 18 19.5 17.4975 19.5 16.75C19.5 16.425 19.3861 16.1456 19.1836 15.9346C19.3071 15.7436 19.375 15.512 19.375 15.25C19.375 14.514 18.784 14 17.9375 14Z" fill="#9BB0CF"/>
</svg>
