<svg width="127" height="56" viewBox="0 0 127 56" fill="none" xmlns="http://www.w3.org/2000/svg">
<path d="M94.3273 20.658C94.3273 26.3505 92.3074 31.2166 88.2676 35.2564C84.2541 39.2962 79.3879 41.3161 73.6693 41.3161C67.9768 41.3161 63.1107 39.2962 59.0709 35.2564C55.0311 31.2166 53.0112 26.3505 53.0112 20.658C53.0112 14.9394 55.0311 10.0733 59.0709 6.05969C63.1107 2.0199 67.9768 0 73.6693 0C79.3879 0 84.2541 2.0199 88.2676 6.05969C92.3074 10.0733 94.3273 14.9394 94.3273 20.658ZM86.0641 20.658C86.0641 17.2216 84.8574 14.2967 82.444 11.8833C80.0306 9.46991 77.1057 8.26322 73.6693 8.26322C70.2591 8.26322 67.3341 9.46991 64.8945 11.8833C62.4811 14.2967 61.2744 17.2216 61.2744 20.658C61.2744 24.0683 62.4811 26.9932 64.8945 29.4328C67.3341 31.8462 70.2591 33.0529 73.6693 33.0529C77.1057 33.0529 80.0306 31.8462 82.444 29.4328C84.8574 26.9932 86.0641 24.0683 86.0641 20.658Z" fill="#C83E93"/>
<path d="M125.635 13.7634C125.635 17.331 124.363 20.3871 121.818 22.9316C119.3 25.4762 116.244 26.7484 112.65 26.7484H106.944V40.5205H98.6812V0.77832H112.65C116.244 0.77832 119.3 2.05059 121.818 4.59514C124.363 7.11345 125.635 10.1695 125.635 13.7634ZM117.372 13.7634C117.372 12.4518 116.913 11.3369 115.995 10.4187C115.076 9.50061 113.962 9.04154 112.65 9.04154H106.944V18.4852H112.65C113.962 18.4852 115.076 18.0261 115.995 17.108C116.913 16.1636 117.372 15.0488 117.372 13.7634Z" fill="white"/>
<path d="M25.9701 40.5291H0V0.786972H8.26322V32.2659H25.9701V40.5291Z" fill="white"/>
<path d="M68.4421 20.658C68.4421 26.3505 66.4222 31.2166 62.3824 35.2564C58.3688 39.2962 53.5027 41.3161 47.784 41.3161C42.0916 41.3161 37.2255 39.2962 33.1857 35.2564C29.1459 31.2166 27.126 26.3505 27.126 20.658C27.126 14.9394 29.1459 10.0733 33.1857 6.05969C37.2255 2.0199 42.0916 0 47.784 0C53.5027 0 58.3688 2.0199 62.3824 6.05969C66.4222 10.0733 68.4421 14.9394 68.4421 20.658ZM60.1788 20.658C60.1788 17.2216 58.9721 14.2967 56.5588 11.8833C54.1454 9.46991 51.2205 8.26322 47.784 8.26322C44.3738 8.26322 41.4489 9.46991 39.0093 11.8833C36.5959 14.2967 35.3892 17.2216 35.3892 20.658C35.3892 24.0683 36.5959 26.9932 39.0093 29.4328C41.4489 31.8462 44.3738 33.0529 47.784 33.0529C51.2205 33.0529 54.1454 31.8462 56.5588 29.4328C58.9721 26.9932 60.1788 24.0683 60.1788 20.658Z" fill="white"/>
<path d="M74.0044 47.6563V55.8553H74.8771V48.5782L77.2373 55.8553H78.1592L80.5193 48.5782V55.8553H81.3921V47.6563H80.003L77.6921 54.8473L75.3934 47.6563H74.0044Z" fill="white"/>
<path d="M86.511 47.6071L83.6838 55.8553H84.6303L85.3678 53.6795H88.4532L89.1785 55.8553H90.1372L87.31 47.6071H86.511ZM88.1951 52.8805H85.6137L86.9044 48.7995L88.1951 52.8805Z" fill="white"/>
<path d="M92.4409 47.6563V55.8553H93.3628V52.3519H94.7887L96.8538 55.8553H97.9601L95.809 52.2044C96.9276 51.7988 97.493 51.0613 97.493 49.9795C97.493 49.0084 96.989 48.234 96.1655 47.9144C95.6246 47.7055 95.1575 47.6563 93.8914 47.6563H92.4409ZM93.3628 51.553V48.4553H93.916C95.0837 48.4553 95.3665 48.4799 95.7475 48.652C96.2392 48.8609 96.5219 49.3403 96.5219 49.9672C96.5219 50.6679 96.1901 51.1842 95.6 51.3932C95.219 51.5284 94.9362 51.553 93.9406 51.553H93.3628Z" fill="white"/>
<path d="M104.568 47.6563L101.249 51.553L104.752 55.8553H106.006L102.343 51.5284L105.686 47.6563H104.568ZM100.315 47.6563V55.8553H101.237V47.6563H100.315Z" fill="white"/>
<path d="M109.074 51.2088V48.4553H112.651V47.6563H108.152V55.8553H112.737V55.0563H109.074V52.0078H112.393V51.2088H109.074Z" fill="white"/>
<path d="M114.507 47.6563V48.4553H116.634V55.8553H117.555V48.4553H119.694V47.6563H114.507Z" fill="white"/>
<path d="M126.652 49.7829C126.616 49.2051 126.517 48.8486 126.271 48.4922C125.853 47.8653 125.104 47.5088 124.206 47.5088C122.768 47.5088 121.736 48.4061 121.736 49.6476C121.736 50.25 121.981 50.754 122.461 51.1473C122.743 51.3809 123.284 51.6759 124.169 52.0692C124.981 52.4257 125.19 52.5363 125.448 52.7576C125.78 53.0403 125.939 53.3599 125.939 53.7656C125.939 54.5891 125.239 55.1792 124.243 55.1792C123.1 55.1792 122.448 54.54 122.362 53.3599H121.465C121.502 54.1097 121.637 54.5523 121.957 54.9948C122.424 55.634 123.211 55.9905 124.206 55.9905C125.804 55.9905 126.886 55.0563 126.886 53.6549C126.886 53.1264 126.726 52.647 126.431 52.2782C126.124 51.9094 125.694 51.639 124.612 51.1596C123.42 50.6187 123.42 50.6187 123.149 50.4344C122.83 50.2254 122.657 49.9181 122.657 49.5739C122.657 48.8486 123.297 48.3201 124.157 48.3201C125.091 48.3201 125.669 48.8486 125.755 49.7829H126.652Z" fill="white"/>
</svg>
