<svg width="126" height="42" viewBox="0 0 126 42" fill="none" xmlns="http://www.w3.org/2000/svg">
<path d="M94.3273 20.658C94.3273 26.3505 92.3074 31.2166 88.2676 35.2564C84.2541 39.2962 79.3879 41.3161 73.6693 41.3161C67.9768 41.3161 63.1107 39.2962 59.0709 35.2564C55.0311 31.2166 53.0112 26.3505 53.0112 20.658C53.0112 14.9394 55.0311 10.0733 59.0709 6.05969C63.1107 2.0199 67.9768 0 73.6693 0C79.3879 0 84.2541 2.0199 88.2676 6.05969C92.3074 10.0733 94.3273 14.9394 94.3273 20.658ZM86.0641 20.658C86.0641 17.2216 84.8574 14.2967 82.444 11.8833C80.0306 9.46991 77.1057 8.26322 73.6693 8.26322C70.2591 8.26322 67.3341 9.46991 64.8945 11.8833C62.4811 14.2967 61.2744 17.2216 61.2744 20.658C61.2744 24.0683 62.4811 26.9932 64.8945 29.4328C67.3341 31.8462 70.2591 33.0529 73.6693 33.0529C77.1057 33.0529 80.0306 31.8462 82.444 29.4328C84.8574 26.9932 86.0641 24.0683 86.0641 20.658Z" fill="#C83E93"/>
<path d="M125.635 13.7635C125.635 17.3311 124.363 20.3872 121.818 22.9317C119.3 25.4763 116.244 26.7486 112.65 26.7486H106.944V40.5206H98.6812V0.778442H112.65C116.244 0.778442 119.3 2.05072 121.818 4.59526C124.363 7.11358 125.635 10.1697 125.635 13.7635ZM117.372 13.7635C117.372 12.4519 116.913 11.337 115.995 10.4189C115.076 9.50073 113.962 9.04166 112.65 9.04166H106.944V18.4853H112.65C113.962 18.4853 115.076 18.0263 115.995 17.1081C116.913 16.1638 117.372 15.0489 117.372 13.7635Z" fill="white"/>
<path d="M25.9701 40.5291H0V0.786972H8.26322V32.2659H25.9701V40.5291Z" fill="white"/>
<path d="M68.4421 20.658C68.4421 26.3505 66.4222 31.2166 62.3824 35.2564C58.3688 39.2962 53.5027 41.3161 47.784 41.3161C42.0916 41.3161 37.2255 39.2962 33.1857 35.2564C29.1459 31.2166 27.126 26.3505 27.126 20.658C27.126 14.9394 29.1459 10.0733 33.1857 6.05969C37.2255 2.0199 42.0916 0 47.784 0C53.5027 0 58.3688 2.0199 62.3824 6.05969C66.4222 10.0733 68.4421 14.9394 68.4421 20.658ZM60.1788 20.658C60.1788 17.2216 58.9721 14.2967 56.5588 11.8833C54.1454 9.46991 51.2205 8.26322 47.784 8.26322C44.3738 8.26322 41.4489 9.46991 39.0093 11.8833C36.5959 14.2967 35.3892 17.2216 35.3892 20.658C35.3892 24.0683 36.5959 26.9932 39.0093 29.4328C41.4489 31.8462 44.3738 33.0529 47.784 33.0529C51.2205 33.0529 54.1454 31.8462 56.5588 29.4328C58.9721 26.9932 60.1788 24.0683 60.1788 20.658Z" fill="white"/>
</svg>
