<svg width="24" height="24" viewBox="0 0 24 24" fill="none" xmlns="http://www.w3.org/2000/svg">
<path d="M12.0003 2C8.82587 2 5.99253 3.48845 4.16245 5.7998C4.10083 5.87696 4.05505 5.96553 4.02773 6.06042C4.00042 6.15531 3.99211 6.25467 4.00328 6.35278C4.01445 6.45089 4.04489 6.54583 4.09284 6.63215C4.14079 6.71847 4.20532 6.79448 4.28271 6.8558C4.36011 6.91713 4.44885 6.96256 4.54385 6.98951C4.63885 7.01646 4.73823 7.02438 4.8363 7.01283C4.93437 7.00128 5.02919 6.97047 5.11532 6.92218C5.20146 6.8739 5.27721 6.80908 5.33823 6.73145C6.89616 4.7638 9.29382 3.5 12.0003 3.5C16.7035 3.5 20.5003 7.29685 20.5003 12C20.5003 16.7031 16.7035 20.5 12.0003 20.5C9.29382 20.5 6.89616 19.2362 5.33823 17.2686C5.27721 17.1909 5.20146 17.1261 5.11532 17.0778C5.02919 17.0295 4.93437 16.9987 4.8363 16.9872C4.73823 16.9756 4.63885 16.9835 4.54385 17.0105C4.44885 17.0374 4.36011 17.0829 4.28271 17.1442C4.20532 17.2055 4.14079 17.2815 4.09284 17.3678C4.04489 17.4542 4.01445 17.5491 4.00328 17.6472C3.99211 17.7453 4.00042 17.8447 4.02773 17.9396C4.05505 18.0345 4.10083 18.123 4.16245 18.2002C5.99253 20.5116 8.82587 22 12.0003 22C17.5142 22 22.0003 17.5139 22.0003 12C22.0003 6.48615 17.5142 2 12.0003 2ZM5.7357 8.24316C5.54092 8.24884 5.35599 8.3301 5.22007 8.46973L2.22007 11.4697C2.07947 11.6104 2.00049 11.8011 2.00049 12C2.00049 12.1989 2.07947 12.3896 2.22007 12.5303L5.22007 15.5303C5.28918 15.6023 5.37196 15.6597 5.46355 15.6993C5.55515 15.7389 5.65372 15.7598 5.7535 15.7608C5.85328 15.7618 5.95226 15.7429 6.04464 15.7052C6.13702 15.6675 6.22095 15.6117 6.29151 15.5412C6.36207 15.4706 6.41784 15.3867 6.45556 15.2943C6.49327 15.2019 6.51218 15.1029 6.51116 15.0032C6.51015 14.9034 6.48923 14.8048 6.44965 14.7132C6.41006 14.6216 6.3526 14.5388 6.28062 14.4697L4.55991 12.749L14.7513 12.7402C14.8507 12.7415 14.9493 12.723 15.0415 12.6858C15.1337 12.6486 15.2176 12.5935 15.2882 12.5236C15.3589 12.4538 15.415 12.3705 15.4532 12.2788C15.4915 12.1871 15.5111 12.0886 15.511 11.9892C15.5109 11.8899 15.491 11.7915 15.4525 11.6998C15.414 11.6082 15.3577 11.5251 15.2868 11.4554C15.216 11.3857 15.132 11.3308 15.0397 11.2939C14.9474 11.2569 14.8487 11.2387 14.7494 11.2402L4.56187 11.249L6.28062 9.53027C6.38882 9.4249 6.46268 9.28931 6.49255 9.14126C6.52242 8.9932 6.5069 8.83958 6.44801 8.7005C6.38913 8.56141 6.28963 8.44335 6.16253 8.36175C6.03544 8.28015 5.88667 8.23882 5.7357 8.24316Z" fill="#9BB0CF"/>
</svg>
