<svg width="163" height="48" viewBox="0 0 163 48" fill="none" xmlns="http://www.w3.org/2000/svg">
<path d="M156.31 0H6.3103C2.99659 0 0.310303 2.68629 0.310303 6V42C0.310303 45.3137 2.99659 48 6.3103 48H156.31C159.624 48 162.31 45.3137 162.31 42V6C162.31 2.68629 159.624 0 156.31 0Z" fill="black"/>
<path d="M156.31 0.96C157.647 0.96 158.929 1.491 159.874 2.43618C160.819 3.38137 161.35 4.66331 161.35 6V42C161.35 43.3367 160.819 44.6186 159.874 45.5638C158.929 46.509 157.647 47.04 156.31 47.04H6.3103C4.97361 47.04 3.69167 46.509 2.74648 45.5638C1.8013 44.6186 1.2703 43.3367 1.2703 42V6C1.2703 4.66331 1.8013 3.38137 2.74648 2.43618C3.69167 1.491 4.97361 0.96 6.3103 0.96H156.31ZM156.31 0H6.3103C4.719 0 3.19288 0.632141 2.06766 1.75736C0.942444 2.88258 0.310303 4.4087 0.310303 6V42C0.310303 43.5913 0.942444 45.1174 2.06766 46.2426C3.19288 47.3679 4.719 48 6.3103 48H156.31C157.902 48 159.428 47.3679 160.553 46.2426C161.678 45.1174 162.31 43.5913 162.31 42V6C162.31 4.4087 161.678 2.88258 160.553 1.75736C159.428 0.632141 157.902 0 156.31 0Z" fill="#A6A6A6"/>
<path d="M57.2143 12.287C57.234 12.7271 57.1644 13.1666 57.0097 13.5791C56.855 13.9915 56.6185 14.3684 56.3143 14.687C55.9734 15.039 55.562 15.315 55.107 15.497C54.6521 15.6789 54.1639 15.7628 53.6743 15.743C53.1819 15.754 52.6924 15.6638 52.2363 15.4781C51.7801 15.2923 51.3669 15.0149 51.0223 14.663C50.323 13.9478 49.9315 12.9873 49.9315 11.987C49.9315 10.9868 50.323 10.0263 51.0223 9.31103C51.5569 8.78865 52.2339 8.43591 52.9684 8.29714C53.7028 8.15836 54.4619 8.23973 55.1503 8.53103C55.583 8.70891 55.969 8.98401 56.2783 9.33503L55.6423 9.97103C55.404 9.68396 55.102 9.45639 54.7604 9.30641C54.4188 9.15643 54.0469 9.08817 53.6743 9.10703C53.2039 9.11028 52.7415 9.2287 52.3274 9.45193C51.9134 9.67516 51.5603 9.9964 51.2991 10.3876C51.0379 10.7788 50.8765 11.228 50.8289 11.696C50.7814 12.1639 50.8492 12.6364 51.0265 13.0721C51.2037 13.5079 51.485 13.8935 51.8457 14.1954C52.2064 14.4974 52.6355 14.7063 53.0957 14.8041C53.5558 14.9018 54.0328 14.8854 54.4851 14.7562C54.9374 14.627 55.3512 14.389 55.6903 14.063C56.0568 13.6612 56.2694 13.1426 56.2903 12.599H53.6743V11.735H57.1663C57.1936 11.9179 57.2096 12.1022 57.2143 12.287Z" fill="white" stroke="white" stroke-width="0.2" stroke-miterlimit="10"/>
<path d="M62.7103 9.2879H59.4703V11.5679H62.4223V12.4319H59.4703V14.7119H62.7103V15.5999H58.5343V8.3999H62.7103V9.2879Z" fill="white" stroke="white" stroke-width="0.2" stroke-miterlimit="10"/>
<path d="M66.6463 15.5999H65.7223V9.2879H63.7063V8.3999H68.7103V9.2879H66.6463V15.5999Z" fill="white" stroke="white" stroke-width="0.2" stroke-miterlimit="10"/>
<path d="M72.2383 15.5999V8.3999H73.1623V15.5999H72.2383Z" fill="white" stroke="white" stroke-width="0.2" stroke-miterlimit="10"/>
<path d="M77.2663 15.5999H76.3423V9.2879H74.3263V8.3999H79.2703V9.2879H77.2663V15.5999Z" fill="white" stroke="white" stroke-width="0.2" stroke-miterlimit="10"/>
<path d="M88.6423 14.6641C88.2957 15.011 87.8842 15.2862 87.4312 15.4739C86.9782 15.6616 86.4927 15.7583 86.0023 15.7583C85.512 15.7583 85.0264 15.6616 84.5734 15.4739C84.1204 15.2862 83.7089 15.011 83.3623 14.6641C82.6839 13.943 82.3062 12.9902 82.3062 12.0001C82.3062 11.01 82.6839 10.0573 83.3623 9.33612C83.7014 8.97948 84.1116 8.698 84.5664 8.5099C85.0212 8.32179 85.5103 8.23125 86.0023 8.24412C86.4936 8.23635 86.9812 8.32923 87.4353 8.51703C87.8893 8.70483 88.3001 8.98358 88.6423 9.33612C88.9873 9.68711 89.2586 10.1037 89.4399 10.5612C89.6213 11.0188 89.7092 11.5081 89.6983 12.0001C89.714 12.4928 89.6284 12.9835 89.4468 13.4417C89.2651 13.9 88.9913 14.316 88.6423 14.6641ZM84.0463 14.0641C84.3019 14.3232 84.6065 14.5289 84.9422 14.6693C85.278 14.8097 85.6384 14.8819 86.0023 14.8819C86.3662 14.8819 86.7266 14.8097 87.0623 14.6693C87.3981 14.5289 87.7027 14.3232 87.9583 14.0641C88.4761 13.5015 88.7635 12.7648 88.7635 12.0001C88.7635 11.2355 88.4761 10.4988 87.9583 9.93612C87.7027 9.67707 87.3981 9.47138 87.0623 9.33098C86.7266 9.19059 86.3662 9.1183 86.0023 9.1183C85.6384 9.1183 85.278 9.19059 84.9422 9.33098C84.6065 9.47138 84.3019 9.67707 84.0463 9.93612C83.5285 10.4988 83.2411 11.2355 83.2411 12.0001C83.2411 12.7648 83.5285 13.5015 84.0463 14.0641Z" fill="white" stroke="white" stroke-width="0.2" stroke-miterlimit="10"/>
<path d="M91.0064 15.5999V8.3999H92.1224L95.6264 14.0039V12.6119V8.3999H96.5503V15.5999H95.5904L91.9304 9.7319V11.1119V15.5999H91.0064Z" fill="white" stroke="white" stroke-width="0.2" stroke-miterlimit="10"/>
<path d="M82.0783 26.0999C81.0672 26.1022 80.0796 26.4044 79.2402 26.9681C78.4009 27.5317 77.7476 28.3317 77.3628 29.2667C76.9781 30.2017 76.8793 31.2298 77.0789 32.2209C77.2785 33.2121 77.7675 34.1218 78.4841 34.8351C79.2007 35.5483 80.1127 36.033 81.1048 36.2279C82.0969 36.4229 83.1245 36.3192 84.0576 35.9301C84.9908 35.541 85.7877 34.8839 86.3474 34.0419C86.9072 33.2 87.2047 32.2109 87.2023 31.1999C87.2121 30.5254 87.086 29.8558 86.8317 29.2311C86.5773 28.6063 86.1999 28.0391 85.7218 27.5633C85.2437 27.0874 84.6747 26.7126 84.0488 26.4612C83.4228 26.2098 82.7527 26.0869 82.0783 26.0999ZM82.0783 34.2959C81.4586 34.3392 80.8402 34.1951 80.3034 33.8823C79.7667 33.5695 79.3365 33.1025 79.0687 32.542C78.8009 31.9814 78.708 31.3533 78.8019 30.7392C78.8958 30.1252 79.1723 29.5536 79.5954 29.0987C80.0186 28.6439 80.5687 28.3268 81.1744 28.1888C81.7801 28.0508 82.4133 28.0981 82.9917 28.3248C83.5701 28.5514 84.067 28.9468 84.4177 29.4595C84.7684 29.9723 84.9568 30.5786 84.9583 31.1999C84.9776 31.5935 84.9179 31.987 84.7828 32.3572C84.6476 32.7273 84.4397 33.0667 84.1712 33.3553C83.9028 33.6438 83.5794 33.8757 83.2199 34.0372C82.8604 34.1988 82.4723 34.2867 82.0783 34.2959ZM70.8943 26.0999C69.8832 26.1022 68.8956 26.4044 68.0562 26.9681C67.2169 27.5317 66.5636 28.3317 66.1788 29.2667C65.7941 30.2017 65.6953 31.2298 65.8949 32.2209C66.0945 33.2121 66.5835 34.1218 67.3001 34.8351C68.0167 35.5483 68.9287 36.033 69.9208 36.2279C70.9129 36.4229 71.9405 36.3192 72.8736 35.9301C73.8068 35.541 74.6037 34.8839 75.1634 34.0419C75.7232 33.2 76.0206 32.2109 76.0183 31.1999C76.0281 30.5254 75.902 29.8558 75.6477 29.2311C75.3933 28.6063 75.0159 28.0391 74.5378 27.5633C74.0597 27.0874 73.4907 26.7126 72.8648 26.4612C72.2388 26.2098 71.5687 26.0869 70.8943 26.0999ZM70.8943 34.2959C70.2746 34.3392 69.6562 34.1951 69.1194 33.8823C68.5827 33.5695 68.1525 33.1025 67.8847 32.542C67.6169 31.9814 67.524 31.3533 67.6179 30.7392C67.7118 30.1252 67.9883 29.5536 68.4114 29.0987C68.8346 28.6439 69.3847 28.3268 69.9904 28.1888C70.5961 28.0508 71.2293 28.0981 71.8077 28.3248C72.3861 28.5514 72.883 28.9468 73.2337 29.4595C73.5844 29.9723 73.7728 30.5786 73.7743 31.1999C73.7936 31.5935 73.7339 31.987 73.5988 32.3572C73.4636 32.7273 73.2557 33.0667 72.9872 33.3553C72.7188 33.6438 72.3954 33.8757 72.0359 34.0372C71.6764 34.1988 71.2883 34.2867 70.8943 34.2959ZM57.5983 27.6719V29.8319H62.7823C62.701 30.8492 62.2781 31.8092 61.5823 32.5559C61.0623 33.0857 60.4368 33.5004 59.7464 33.7733C59.056 34.0461 58.316 34.171 57.5743 34.1399C56.0466 34.1399 54.5816 33.533 53.5013 32.4528C52.4211 31.3726 51.8143 29.9075 51.8143 28.3799C51.8143 26.8522 52.4211 25.3871 53.5013 24.3069C54.5816 23.2267 56.0466 22.6199 57.5743 22.6199C59.0388 22.5981 60.453 23.1542 61.5103 24.1679L63.0343 22.6439C62.3191 21.9365 61.4699 21.3789 60.5364 21.0039C59.603 20.6289 58.6041 20.4439 57.5983 20.4599C56.5315 20.4183 55.4673 20.5926 54.4694 20.9722C53.4716 21.3518 52.5606 21.929 51.7912 22.6691C51.0217 23.4092 50.4096 24.297 49.9915 25.2793C49.5733 26.2616 49.3578 27.3182 49.3578 28.3859C49.3578 29.4535 49.5733 30.5101 49.9915 31.4924C50.4096 32.4747 51.0217 33.3626 51.7912 34.1026C52.5606 34.8427 53.4716 35.4199 54.4694 35.7995C55.4673 36.1791 56.5315 36.3534 57.5983 36.3119C58.6248 36.3529 59.6484 36.1763 60.6018 35.7937C61.5552 35.411 62.4169 34.8311 63.1303 34.0919C64.3904 32.7076 65.0619 30.8869 65.0023 29.0159C65.0066 28.5655 64.9704 28.1157 64.8943 27.6719H57.5983ZM111.97 29.3519C111.657 28.4311 111.072 27.6272 110.292 27.0465C109.512 26.4658 108.574 26.1356 107.602 26.0999C106.946 26.0986 106.296 26.2319 105.693 26.4917C105.091 26.7515 104.547 27.1321 104.098 27.6101C103.648 28.0881 103.301 28.6533 103.078 29.2707C102.855 29.8882 102.761 30.5447 102.802 31.1999C102.792 32.2953 103.136 33.3646 103.784 34.2482C104.432 35.1317 105.348 35.7821 106.395 36.102C107.443 36.422 108.566 36.3945 109.597 36.0235C110.628 35.6526 111.511 34.9581 112.114 34.0439L110.374 32.8439C110.115 33.2762 109.747 33.6332 109.307 33.8795C108.867 34.1258 108.37 34.2528 107.866 34.2479C107.346 34.2693 106.832 34.133 106.391 33.8567C105.949 33.5804 105.602 33.1771 105.394 32.6999L112.222 29.8799L111.97 29.3519ZM105.01 31.0559C104.986 30.6831 105.036 30.3093 105.158 29.9562C105.28 29.6031 105.471 29.2779 105.721 28.9997C105.97 28.7214 106.272 28.4957 106.61 28.3357C106.947 28.1757 107.313 28.0846 107.686 28.0679C108.073 28.0443 108.458 28.1353 108.793 28.3295C109.128 28.5238 109.399 28.8126 109.57 29.1599L105.01 31.0559ZM99.4663 35.9999H101.71V20.9999H99.4663V35.9999ZM95.7943 27.2399H95.7103C95.3751 26.8581 94.9613 26.5532 94.4974 26.3461C94.0335 26.139 93.5303 26.0345 93.0223 26.0399C91.7109 26.1035 90.4743 26.6692 89.5686 27.6198C88.663 28.5704 88.1579 29.8329 88.1579 31.1459C88.1579 32.4588 88.663 33.7214 89.5686 34.672C90.4743 35.6226 91.7109 36.1883 93.0223 36.2519C93.531 36.2621 94.0358 36.1598 94.5004 35.9524C94.9651 35.7449 95.3782 35.4374 95.7103 35.0519H95.7943V35.7839C95.7943 37.7399 94.7503 38.7839 93.0703 38.7839C92.5091 38.7715 91.9642 38.5927 91.5048 38.2701C91.0454 37.9474 90.6923 37.4956 90.4903 36.9719L88.5463 37.7759C88.9057 38.6786 89.5306 39.4509 90.3384 39.9909C91.1461 40.5308 92.0988 40.8129 93.0703 40.7999C95.6983 40.7999 97.8703 39.2519 97.8703 35.4839V26.3999H95.7943V27.2399ZM93.2143 34.2959C92.428 34.2468 91.6901 33.9 91.1506 33.3259C90.6112 32.7518 90.3109 31.9936 90.3109 31.2059C90.3109 30.4181 90.6112 29.66 91.1506 29.0859C91.6901 28.5118 92.428 28.1649 93.2143 28.1159C93.5986 28.1324 93.9756 28.2262 94.3229 28.3914C94.6702 28.5567 94.9808 28.7901 95.236 29.0779C95.4913 29.3656 95.6861 29.7017 95.8088 30.0663C95.9315 30.4308 95.9796 30.8163 95.9503 31.1999C95.983 31.5847 95.9374 31.9722 95.8161 32.3388C95.6948 32.7055 95.5004 33.0438 95.2446 33.3332C94.9889 33.6226 94.6771 33.8571 94.3281 34.0226C93.9791 34.1881 93.6002 34.281 93.2143 34.2959ZM122.482 20.9999H117.106V35.9999H119.35V30.3119H122.482C123.122 30.3578 123.764 30.2715 124.369 30.0583C124.973 29.8452 125.528 29.5097 125.997 29.0729C126.466 28.636 126.841 28.1072 127.097 27.5193C127.353 26.9314 127.485 26.297 127.485 25.6559C127.485 25.0147 127.353 24.3803 127.097 23.7925C126.841 23.2046 126.466 22.6757 125.997 22.2389C125.528 21.802 124.973 21.4666 124.369 21.2534C123.764 21.0402 123.122 20.9539 122.482 20.9999ZM122.482 28.1999H119.35V23.0879H122.53C122.868 23.0879 123.201 23.1543 123.513 23.2833C123.825 23.4124 124.108 23.6015 124.346 23.84C124.585 24.0785 124.774 24.3616 124.903 24.6731C125.032 24.9847 125.098 25.3186 125.098 25.6559C125.098 25.9931 125.032 26.327 124.903 26.6386C124.774 26.9502 124.585 27.2332 124.346 27.4717C124.108 27.7102 123.825 27.8993 123.513 28.0284C123.201 28.1574 122.868 28.2239 122.53 28.2239L122.482 28.1999ZM136.33 26.0519C135.513 26.0015 134.699 26.1917 133.989 26.5991C133.279 27.0064 132.703 27.613 132.334 28.3439L134.314 29.1719C134.514 28.8111 134.815 28.5161 135.179 28.3223C135.543 28.1285 135.955 28.0443 136.366 28.0799C136.651 28.0466 136.94 28.0704 137.215 28.1498C137.491 28.2293 137.748 28.3629 137.971 28.5427C138.195 28.7226 138.38 28.9451 138.517 29.1973C138.653 29.4496 138.738 29.7265 138.766 30.0119V30.1559C138.045 29.7766 137.241 29.5789 136.426 29.5799C134.29 29.5799 132.106 30.7799 132.106 32.9639C132.127 33.4281 132.242 33.8833 132.442 34.3025C132.643 34.7217 132.925 35.0964 133.273 35.4042C133.622 35.712 134.028 35.9467 134.469 36.0944C134.909 36.2421 135.375 36.2997 135.838 36.2639C136.401 36.295 136.963 36.1758 137.465 35.9186C137.966 35.6613 138.391 35.2752 138.694 34.7999H138.766V35.9999H140.926V30.2279C140.926 27.5999 138.934 26.0759 136.378 26.0759L136.33 26.0519ZM136.054 34.2719C135.322 34.2719 134.302 33.8999 134.302 32.9999C134.302 31.7999 135.574 31.3919 136.702 31.3919C137.415 31.3743 138.12 31.5483 138.742 31.8959C138.667 32.5475 138.358 33.1498 137.873 33.5911C137.387 34.0324 136.758 34.2828 136.102 34.2959L136.054 34.2719ZM148.798 26.3999L146.23 32.9039H146.158L143.494 26.3999H141.094L145.09 35.4959L142.81 40.5479H145.15L151.294 26.3999H148.798ZM128.638 35.9999H130.87V20.9999H128.638V35.9999Z" fill="white"/>
<path d="M12.8383 9.04885C12.4429 9.51639 12.2411 10.1174 12.2743 10.7288V37.2728C12.2335 37.8853 12.4362 38.4891 12.8383 38.9528L12.9223 39.0488L27.7903 24.1808V23.8208L12.9223 8.96484L12.8383 9.04885Z" fill="url(#paint0_linear)"/>
<path d="M32.7103 29.1367L27.7903 24.1807V23.8207L32.7103 18.8647L32.8183 18.9367L38.7103 22.2727C40.3903 23.2207 40.3903 24.7807 38.7103 25.7407L32.8423 29.0767L32.7103 29.1367Z" fill="url(#paint1_linear)"/>
<path d="M32.8544 29.064L27.7904 24L12.8384 38.952C13.1774 39.2538 13.6115 39.4275 14.0652 39.4428C14.5189 39.4582 14.9637 39.3142 15.3224 39.036L32.8544 29.064Z" fill="url(#paint2_linear)"/>
<path d="M32.8544 18.9365L15.3224 8.9765C14.966 8.6944 14.5216 8.54697 14.0672 8.56014C13.6129 8.57331 13.1778 8.74623 12.8384 9.0485L27.7904 24.0005L32.8544 18.9365Z" fill="url(#paint3_linear)"/>
<path opacity="0.2" d="M32.7104 28.9546L15.3224 38.8546C14.9767 39.1155 14.5554 39.2566 14.1224 39.2566C13.6893 39.2566 13.268 39.1155 12.9224 38.8546L12.8384 38.9386L12.9224 39.0346C13.268 39.2955 13.6893 39.4366 14.1224 39.4366C14.5554 39.4366 14.9767 39.2955 15.3224 39.0346L32.8544 29.0626L32.7104 28.9546Z" fill="black"/>
<path opacity="0.12" d="M12.8383 38.7843C12.4529 38.3083 12.264 37.703 12.3103 37.0923V37.2723C12.2695 37.8847 12.4722 38.4885 12.8743 38.9523L12.9583 38.8683L12.8383 38.7843Z" fill="black"/>
<path opacity="0.12" d="M38.7103 25.56L32.7103 28.956L32.8183 29.064L38.7103 25.728C39.0581 25.5809 39.3598 25.3428 39.5837 25.0387C39.8075 24.7346 39.9452 24.3758 39.9823 24C39.9073 24.3415 39.7531 24.6606 39.5322 24.9315C39.3112 25.2025 39.0297 25.4178 38.7103 25.56Z" fill="black"/>
<path opacity="0.25" d="M15.3223 9.14524L38.7103 22.4412C39.0297 22.5835 39.3112 22.7987 39.5322 23.0697C39.7531 23.3407 39.9073 23.6598 39.9823 24.0012C39.9453 23.6255 39.8075 23.2666 39.5837 22.9625C39.3598 22.6584 39.0581 22.4203 38.7103 22.2732L15.3223 8.97724C13.6543 8.01724 12.2743 8.80924 12.2743 10.7292V10.9092C12.3103 8.98924 13.6543 8.19724 15.3223 9.14524Z" fill="white"/>
<defs>
<linearGradient id="paint0_linear" x1="26.4703" y1="10.4528" x2="6.33435" y2="30.5888" gradientUnits="userSpaceOnUse">
<stop stop-color="#00A0FF"/>
<stop offset="0.01" stop-color="#00A1FF"/>
<stop offset="0.26" stop-color="#00BEFF"/>
<stop offset="0.51" stop-color="#00D2FF"/>
<stop offset="0.76" stop-color="#00DFFF"/>
<stop offset="1" stop-color="#00E3FF"/>
</linearGradient>
<linearGradient id="paint1_linear" x1="40.9063" y1="24.0007" x2="11.8783" y2="24.0007" gradientUnits="userSpaceOnUse">
<stop stop-color="#FFE000"/>
<stop offset="0.41" stop-color="#FFBD00"/>
<stop offset="0.78" stop-color="#FFA500"/>
<stop offset="1" stop-color="#FF9C00"/>
</linearGradient>
<linearGradient id="paint2_linear" x1="30.1064" y1="26.76" x2="2.79435" y2="54.06" gradientUnits="userSpaceOnUse">
<stop stop-color="#FF3A44"/>
<stop offset="1" stop-color="#C31162"/>
</linearGradient>
<linearGradient id="paint3_linear" x1="9.07036" y1="0.216501" x2="21.2624" y2="12.4085" gradientUnits="userSpaceOnUse">
<stop stop-color="#32A071"/>
<stop offset="0.07" stop-color="#2DA771"/>
<stop offset="0.48" stop-color="#15CF74"/>
<stop offset="0.8" stop-color="#06E775"/>
<stop offset="1" stop-color="#00F076"/>
</linearGradient>
</defs>
</svg>
