<svg width="36" height="36" viewBox="0 0 36 36" fill="none" xmlns="http://www.w3.org/2000/svg">
<circle cx="18" cy="18" r="18" fill="#252525"/>
<path d="M17.9999 26.0626C17.9549 26.0626 17.9099 26.0551 17.8724 26.0476C17.8274 26.0401 17.7824 26.0176 17.7374 25.9951L16.0799 25.1701C15.8024 25.0276 15.6899 24.6901 15.8249 24.4126C15.9674 24.1351 16.3049 24.0226 16.5824 24.1576L17.4374 24.5851V23.4151C17.4374 23.1076 17.6924 22.8526 17.9999 22.8526C18.3074 22.8526 18.5624 23.1076 18.5624 23.4151V24.5851L19.4174 24.1576C19.6949 24.0226 20.0324 24.1351 20.1749 24.4126C20.3174 24.6901 20.2049 25.0276 19.9199 25.1701L18.2624 25.9951C18.2174 26.0176 18.1724 26.0326 18.1274 26.0476C18.0824 26.0551 18.0449 26.0626 17.9999 26.0626ZM23.0024 23.5651C22.7999 23.5651 22.5974 23.4526 22.4999 23.2576C22.3574 22.9801 22.4699 22.6426 22.7549 22.5001L24.1124 21.8251V20.0926C24.1124 19.7851 24.3674 19.5301 24.6749 19.5301C24.9824 19.5301 25.2374 19.7851 25.2374 20.0926V22.1776C25.2374 22.3876 25.1174 22.5826 24.9299 22.6801L23.2649 23.5126C23.1674 23.5426 23.0849 23.5651 23.0024 23.5651ZM12.9974 23.5651C12.9149 23.5651 12.8249 23.5426 12.7499 23.5051L11.0849 22.6726C10.8974 22.5751 10.7774 22.3801 10.7774 22.1701V20.0851C10.7774 19.7776 11.0324 19.5226 11.3399 19.5226C11.6474 19.5226 11.9024 19.7776 11.9024 20.0851V21.8176L13.2599 22.4926C13.5374 22.6351 13.6499 22.9726 13.5149 23.2501C13.4024 23.4451 13.2074 23.5651 12.9974 23.5651ZM17.9999 19.8151C17.6924 19.8151 17.4374 19.5601 17.4374 19.2526V17.5201L16.0799 16.8451C15.8024 16.7026 15.6899 16.3651 15.8249 16.0876C15.9674 15.8101 16.3049 15.6976 16.5824 15.8326L17.9999 16.5376L19.4174 15.8326C19.6949 15.6976 20.0324 15.8026 20.1749 16.0876C20.3174 16.3726 20.2049 16.7026 19.9199 16.8451L18.5624 17.5201V19.2526C18.5624 19.5601 18.3074 19.8151 17.9999 19.8151ZM24.6674 16.4776C24.3599 16.4776 24.1049 16.2226 24.1049 15.9151V14.7451L23.2499 15.1726C22.9724 15.3151 22.6349 15.2026 22.4924 14.9176C22.3499 14.6401 22.4624 14.3026 22.7474 14.1601L23.4074 13.8301L22.7474 13.5001C22.4699 13.3576 22.3574 13.0201 22.4924 12.7426C22.6349 12.4651 22.9724 12.3526 23.2499 12.4876L24.9074 13.3126C24.9224 13.3201 24.9449 13.3276 24.9599 13.3426C25.0049 13.3651 25.0424 13.4026 25.0799 13.4401C25.1024 13.4701 25.1249 13.5001 25.1474 13.5301C25.1774 13.5826 25.1999 13.6351 25.2149 13.6951C25.2224 13.7401 25.2299 13.7851 25.2299 13.8226V13.8301V15.9001C25.2299 16.2301 24.9749 16.4776 24.6674 16.4776ZM11.3324 16.4776C11.0249 16.4776 10.7699 16.2226 10.7699 15.9151V13.8451V13.8376C10.7699 13.7926 10.7774 13.7476 10.7849 13.7101C10.7999 13.6501 10.8224 13.5976 10.8524 13.5451C10.8749 13.5076 10.8974 13.4776 10.9274 13.4476C10.9574 13.4176 10.9949 13.3876 11.0324 13.3651C11.0474 13.3576 11.0699 13.3426 11.0849 13.3351L12.7424 12.5101C13.0199 12.3751 13.3574 12.4801 13.4999 12.7651C13.6424 13.0501 13.5299 13.3801 13.2449 13.5226L12.5849 13.8526L13.2449 14.1826C13.5224 14.3251 13.6349 14.6626 13.4999 14.9401C13.3574 15.2176 13.0274 15.3301 12.7424 15.1951L11.8874 14.7676V15.9376C11.8949 16.2301 11.6474 16.4776 11.3324 16.4776ZM19.6649 11.8951C19.5824 11.8951 19.4924 11.8726 19.4174 11.8351L17.9999 11.1301L16.5824 11.8351C16.3049 11.9776 15.9674 11.8651 15.8249 11.5801C15.6824 11.3026 15.7949 10.9651 16.0799 10.8226L17.7449 9.9901C17.9024 9.9076 18.0899 9.9076 18.2474 9.9901L19.9124 10.8226C20.1899 10.9651 20.3024 11.3026 20.1674 11.5801C20.0699 11.7826 19.8749 11.8951 19.6649 11.8951Z" fill="white" stroke="white" stroke-width="0.3"/>
</svg>
