<svg width="28" height="28" viewBox="0 0 28 28" fill="none" xmlns="http://www.w3.org/2000/svg">
<path d="M28 14C28 6.26801 21.732 0 14 0C6.26801 0 0 6.26801 0 14C0 21.732 6.26801 28 14 28C21.732 28 28 21.732 28 14Z" fill="#55ACEE"/>
<path d="M17.3516 6.71715C15.3653 6.76749 13.7718 8.39331 13.7718 10.3922C13.7718 10.6799 13.8027 10.9612 13.8656 11.2308C10.81 11.0772 8.10084 9.61361 6.28744 7.38915C5.97096 7.9319 5.78904 8.56412 5.78904 9.23855C5.78904 10.5139 6.43909 11.6384 7.42564 12.2976C6.82323 12.2783 6.25546 12.1123 5.75964 11.837C5.75936 11.8522 5.75964 11.8689 5.75964 11.8846C5.75964 13.6656 7.02736 15.1498 8.70944 15.4882C8.40096 15.5718 8.07604 15.617 7.74064 15.617C7.50346 15.617 7.27349 15.5944 7.04904 15.5512C7.51721 17.0117 8.87324 18.0753 10.4818 18.1048C9.22355 19.0909 7.64066 19.6784 5.91784 19.6784C5.62137 19.6784 5.32778 19.6621 5.04004 19.628C6.66755 20.6716 8.599 21.28 10.675 21.28C17.4379 21.28 21.1358 15.6777 21.1358 10.8192C21.1358 10.6598 21.1329 10.4996 21.126 10.3418C21.8441 9.82447 22.4675 9.17652 22.96 8.43915C22.3012 8.73199 21.5927 8.93035 20.8488 9.01875C21.6084 8.56404 22.1912 7.84378 22.4658 6.98455C21.7554 7.40616 20.9684 7.7126 20.1306 7.87775C19.4602 7.1633 18.5043 6.71715 17.4468 6.71715C17.4151 6.71715 17.3832 6.71635 17.3516 6.71715Z" fill="white"/>
</svg>
