<svg width="16" height="16" viewBox="0 0 16 16" fill="none" xmlns="http://www.w3.org/2000/svg">
<path d="M7 0.25C5.35203 0.25 4 1.60203 4 3.25C4 4.89797 5.35203 6.25 7 6.25C8.64797 6.25 10 4.89797 10 3.25C10 1.60203 8.64797 0.25 7 0.25ZM7 1.75C7.83731 1.75 8.5 2.41269 8.5 3.25C8.5 4.08731 7.83731 4.75 7 4.75C6.16269 4.75 5.5 4.08731 5.5 3.25C5.5 2.41269 6.16269 1.75 7 1.75ZM11.5 7C10.1404 7 8.91945 7.61183 8.09277 8.57178C7.71877 8.52915 7.34968 8.5 7 8.5C5.69129 8.5 4.14037 8.80734 2.83691 9.32178C2.18518 9.579 1.59602 9.88454 1.12451 10.2769C0.653001 10.6692 0.25 11.1995 0.25 11.875V13.75H7.61084C8.39172 15.0918 9.84273 16 11.5 16C13.9764 16 16 13.9764 16 11.5C16 9.0236 13.9764 7 11.5 7ZM11.5 8.5C12.2529 8.5 12.9292 8.78278 13.4541 9.23535L11.5 11.1895L10.5303 10.2197L9.46973 11.2803L11.5 13.3105L14.3169 10.4937C14.4287 10.8092 14.5 11.1445 14.5 11.5C14.5 13.1657 13.1657 14.5 11.5 14.5C9.83426 14.5 8.5 13.1657 8.5 11.5C8.5 9.83426 9.83426 8.5 11.5 8.5ZM7 10C7.08122 10 7.17374 10.0086 7.25928 10.0117C7.09423 10.4787 7 10.9781 7 11.5C7 11.7561 7.0273 12.0053 7.06885 12.25H1.75V11.875C1.75 11.826 1.80069 11.6654 2.08398 11.4297C2.36728 11.194 2.83412 10.9342 3.38623 10.7163C4.49046 10.2805 5.93946 10 7 10Z" fill="#9BB0CF"/>
</svg>
