<svg width="24" height="24" viewBox="0 0 24 24" fill="none" xmlns="http://www.w3.org/2000/svg">
<path d="M16.7745 1.98926C16.6289 1.98913 16.4851 2.02079 16.353 2.08202C16.2209 2.14325 16.1038 2.23257 16.0098 2.34375L15.8018 2.58203C15.6352 2.54013 15.4649 2.51575 15.294 2.51172C14.6471 2.49644 13.9969 2.75177 13.544 3.27246L10.5167 6.75L6.83504 7.79981C6.17225 7.98863 5.57855 8.36641 5.12606 8.88672L1.61727 12.9189C0.78538 13.8748 0.808351 15.3862 1.82332 16.2275C1.91135 16.3005 2.00596 16.3613 2.10164 16.4189L1.9659 16.5742C1.9659 16.5745 1.9659 16.5749 1.9659 16.5752C1.76877 16.802 1.63184 17.0758 1.57137 17.3711H1.57234L1.0157 20.0752C0.989186 20.2048 0.997436 20.3392 1.03962 20.4646C1.0818 20.59 1.15641 20.7021 1.25588 20.7893C1.35535 20.8766 1.47613 20.936 1.60598 20.9615C1.73582 20.987 1.87011 20.9777 1.9952 20.9346L4.61336 20.0312C4.90322 19.9314 5.16234 19.7571 5.36336 19.5264L7.06942 17.5664C7.31721 17.874 7.63129 18.1333 8.0157 18.2979L7.97567 18.2793L10.9845 19.7832L10.9962 19.7891C11.0053 19.7933 11.0744 19.8306 11.17 19.8828C11.8254 20.2418 13.2245 21 15.2501 21C16.7719 21 17.5787 20.7091 18.3507 20.4648C19.4946 20.1034 19.8791 20 21.7501 20H22.2501C22.3495 20.0014 22.4481 19.983 22.5404 19.946C22.6326 19.9089 22.7165 19.8539 22.7873 19.7841C22.8581 19.7143 22.9143 19.6312 22.9526 19.5395C22.991 19.4478 23.0108 19.3494 23.0108 19.25C23.0108 19.1506 22.991 19.0522 22.9526 18.9605C22.9143 18.8688 22.8581 18.7857 22.7873 18.7159C22.7165 18.6461 22.6326 18.5911 22.5404 18.554C22.4481 18.517 22.3495 18.4986 22.2501 18.5H21.7501C19.8091 18.5 19.0756 18.6636 17.8995 19.0352H17.8985C17.0777 19.2949 16.5997 19.5 15.2501 19.5C13.5857 19.5 12.5443 18.9254 11.8907 18.5674V18.5664C11.8149 18.525 11.737 18.4776 11.6192 18.4238L8.62703 16.9268L8.60652 16.9189C8.11437 16.7083 7.87789 16.1668 8.05867 15.6621C8.20706 15.2502 8.59028 15 9.00106 15C9.23874 15 9.79054 15.1105 10.4776 15.2373C11.9043 15.5014 12.4977 15.5 12.7423 15.5C13.6648 15.5 14.7248 15.14 15.3741 14.166C15.4525 14.052 15.4979 13.9184 15.5051 13.7802C15.5123 13.6419 15.4812 13.5044 15.415 13.3827C15.3489 13.2611 15.2504 13.1602 15.1305 13.0911C15.0105 13.022 14.8738 12.9874 14.7354 12.9912C14.6137 12.9946 14.4945 13.0275 14.3884 13.0873C14.2822 13.147 14.1922 13.2317 14.1261 13.334C13.7754 13.86 13.3348 14 12.7423 14C12.4669 14 12.1124 14.0146 10.7511 13.7627H10.7501C10.6369 13.7418 10.5409 13.7225 10.4337 13.7012L14.7598 8.72949C15.005 8.87461 15.2624 9.04032 15.5489 9.24902C15.5745 9.2696 16.6787 10.1567 18.0382 11.0693C18.7257 11.5309 19.4722 11.9948 20.1866 12.3555C20.901 12.7161 21.5527 13 22.2501 13C22.3495 13.0014 22.4481 12.983 22.5404 12.946C22.6326 12.9089 22.7165 12.8539 22.7873 12.7841C22.8581 12.7143 22.9143 12.6312 22.9526 12.5395C22.991 12.4478 23.0108 12.3494 23.0108 12.25C23.0108 12.1506 22.991 12.0522 22.9526 11.9605C22.9143 11.8688 22.8581 11.7857 22.7873 11.7159C22.7165 11.6461 22.6326 11.5911 22.5404 11.554C22.4481 11.517 22.3495 11.4986 22.2501 11.5C22.062 11.5 21.4887 11.3323 20.8634 11.0166C20.238 10.7009 19.53 10.2636 18.8741 9.82324C17.5623 8.94262 16.46 8.05762 16.46 8.05762L16.4464 8.04688L16.4317 8.03613C16.1992 7.8667 15.9778 7.72026 15.7589 7.58203L16.8995 6.27148C16.8998 6.27148 16.9001 6.27148 16.9005 6.27148C17.4688 5.61777 17.6382 4.68886 17.3136 3.89258L17.5186 3.65625C17.6473 3.51244 17.7316 3.33446 17.7614 3.1438C17.7912 2.95313 17.7652 2.75791 17.6866 2.58169C17.6079 2.40547 17.48 2.25577 17.3181 2.15065C17.1563 2.04553 16.9675 1.98948 16.7745 1.98926ZM15.253 3.98828C15.4647 3.99121 15.6779 4.09023 15.8399 4.29785C15.8402 4.29785 15.8406 4.29785 15.8409 4.29785C16.0495 4.5648 16.0225 4.99394 15.7677 5.28711L14.0987 7.2041C14.0388 7.25434 13.987 7.31365 13.9454 7.37988L8.58699 13.5361C7.72037 13.683 6.96118 14.2825 6.64754 15.1553L6.64656 15.1562C6.55652 15.4076 6.52012 15.6648 6.51277 15.9199L4.23152 18.541C4.20264 18.574 4.16596 18.5992 4.12508 18.6133L2.75008 19.0869L3.04109 17.6729C3.04957 17.6315 3.0692 17.5926 3.09774 17.5596V17.5586L3.95516 16.5732C4.02993 16.5147 4.09289 16.4424 4.1407 16.3604L11.4444 7.96875C11.4949 7.92443 11.5393 7.87352 11.5763 7.81738L14.6749 4.25781C14.6752 4.25749 14.6755 4.25716 14.6759 4.25684C14.831 4.07853 15.0413 3.98536 15.253 3.98828ZM8.71102 8.8252L3.13777 15.2275C3.01116 15.2054 2.88793 15.1624 2.78035 15.0732C2.47394 14.8194 2.45318 14.2422 2.74813 13.9033L6.25789 9.87109C6.5194 9.5704 6.86297 9.35234 7.24617 9.24316L8.71102 8.8252Z" fill="#9BB0CF"/>
</svg>
