<svg width="24" height="24" viewBox="0 0 24 24" fill="none" xmlns="http://www.w3.org/2000/svg">
<path d="M11.9999 2C7.90488 2 4.37984 4.47 2.83484 8H4.50476C5.45327 6.22569 7.01807 4.82975 8.90808 4.08789C8.25368 5.10532 7.73476 6.4458 7.40515 8H8.93445C9.57445 5.23 10.8349 3.5 11.9999 3.5C13.1649 3.5 14.4253 5.23 15.0653 8H16.5946C16.265 6.4458 15.7461 5.10532 15.0917 4.08789C16.9817 4.82975 18.5465 6.22569 19.495 8H21.1649C19.6199 4.47 16.0949 2 11.9999 2ZM7.31921 9.01367C7.17409 9.02115 7.03611 9.07897 6.92899 9.17717C6.82188 9.27537 6.75233 9.40783 6.7323 9.55176L6.32117 12.1309L5.57312 10.4023C5.52457 10.2907 5.44446 10.1956 5.34262 10.1288C5.24078 10.062 5.12165 10.0265 4.99988 10.0265C4.8781 10.0265 4.75897 10.062 4.65714 10.1288C4.5553 10.1956 4.47518 10.2907 4.42664 10.4023L3.67859 12.1309L3.26746 9.55176C3.24629 9.40581 3.17421 9.27205 3.06394 9.17411C2.95368 9.07618 2.81234 9.02039 2.66492 9.0166C2.5725 9.01425 2.4807 9.03242 2.39615 9.06982C2.31161 9.10721 2.2364 9.1629 2.17597 9.23286C2.11553 9.30282 2.07137 9.38532 2.04666 9.4744C2.02195 9.56349 2.01732 9.65695 2.03308 9.74805L2.78308 14.4482C2.8046 14.5817 2.86878 14.7045 2.966 14.7984C3.06322 14.8922 3.18824 14.9521 3.32232 14.9689C3.45641 14.9857 3.59234 14.9586 3.70974 14.8917C3.82714 14.8248 3.91969 14.7216 3.97351 14.5977L4.99988 12.2236L6.02624 14.5977C6.08007 14.7216 6.17262 14.8248 6.29002 14.8917C6.40742 14.9586 6.54335 14.9857 6.67743 14.9689C6.81152 14.9521 6.93654 14.8922 7.03376 14.7984C7.13097 14.7045 7.19515 14.5817 7.21667 14.4482L7.96667 9.74805C7.98326 9.65539 7.97871 9.56019 7.95335 9.46954C7.928 9.37889 7.8825 9.29514 7.82025 9.22454C7.758 9.15393 7.68061 9.0983 7.59386 9.06178C7.5071 9.02527 7.41322 9.00883 7.31921 9.01367ZM14.3192 9.01367C14.1741 9.02115 14.0361 9.07897 13.929 9.17717C13.8219 9.27537 13.7523 9.40783 13.7323 9.55176L13.3212 12.1309L12.5731 10.4023C12.5246 10.2907 12.4445 10.1956 12.3426 10.1288C12.2408 10.062 12.1217 10.0265 11.9999 10.0265C11.8781 10.0265 11.759 10.062 11.6571 10.1288C11.5553 10.1956 11.4752 10.2907 11.4266 10.4023L10.6786 12.1309L10.2675 9.55176C10.2463 9.40581 10.1742 9.27205 10.0639 9.17411C9.95368 9.07618 9.81234 9.02039 9.66492 9.0166C9.5725 9.01425 9.4807 9.03242 9.39615 9.06982C9.31161 9.10721 9.2364 9.1629 9.17597 9.23286C9.11554 9.30282 9.07137 9.38532 9.04666 9.4744C9.02196 9.56349 9.01732 9.65695 9.03308 9.74805L9.78308 14.4482C9.8046 14.5817 9.86878 14.7045 9.966 14.7984C10.0632 14.8922 10.1882 14.9521 10.3223 14.9689C10.4564 14.9857 10.5923 14.9586 10.7097 14.8917C10.8271 14.8248 10.9197 14.7216 10.9735 14.5977L11.9999 12.2236L13.0262 14.5977C13.0801 14.7216 13.1726 14.8248 13.29 14.8917C13.4074 14.9586 13.5433 14.9857 13.6774 14.9689C13.8115 14.9521 13.9365 14.8922 14.0338 14.7984C14.131 14.7045 14.1952 14.5817 14.2167 14.4482L14.9667 9.74805C14.9833 9.65539 14.9787 9.56019 14.9534 9.46954C14.928 9.37889 14.8825 9.29514 14.8203 9.22454C14.758 9.15393 14.6806 9.0983 14.5939 9.06178C14.5071 9.02527 14.4132 9.00883 14.3192 9.01367ZM21.3192 9.01367C21.1741 9.02115 21.0361 9.07897 20.929 9.17717C20.8219 9.27537 20.7523 9.40783 20.7323 9.55176L20.3212 12.1309L19.5731 10.4023C19.5246 10.2907 19.4445 10.1956 19.3426 10.1288C19.2408 10.062 19.1217 10.0265 18.9999 10.0265C18.8781 10.0265 18.759 10.062 18.6571 10.1288C18.5553 10.1956 18.4752 10.2907 18.4266 10.4023L17.6786 12.1309L17.2675 9.55176C17.2463 9.40581 17.1742 9.27205 17.0639 9.17411C16.9537 9.07618 16.8123 9.02039 16.6649 9.0166C16.5725 9.01425 16.4807 9.03242 16.3962 9.06982C16.3116 9.10721 16.2364 9.1629 16.176 9.23286C16.1155 9.30282 16.0714 9.38532 16.0467 9.4744C16.022 9.56349 16.0173 9.65695 16.0331 9.74805L16.7831 14.4482C16.8046 14.5817 16.8688 14.7045 16.966 14.7984C17.0632 14.8922 17.1882 14.9521 17.3223 14.9689C17.4564 14.9857 17.5923 14.9586 17.7097 14.8917C17.8271 14.8248 17.9197 14.7216 17.9735 14.5977L18.9999 12.2236L20.0262 14.5977C20.0801 14.7216 20.1726 14.8248 20.29 14.8917C20.4074 14.9586 20.5433 14.9857 20.6774 14.9689C20.8115 14.9521 20.9365 14.8922 21.0338 14.7984C21.131 14.7045 21.1952 14.5817 21.2167 14.4482L21.9667 9.74805C21.9833 9.65539 21.9787 9.56019 21.9534 9.46954C21.928 9.37889 21.8825 9.29514 21.8203 9.22454C21.758 9.15393 21.6806 9.0983 21.5939 9.06178C21.5071 9.02527 21.4132 9.00883 21.3192 9.01367ZM2.83484 16C4.37984 19.53 7.90488 22 11.9999 22C16.0949 22 19.6199 19.53 21.1649 16H19.495C18.5465 17.7743 16.9817 19.1703 15.0917 19.9121C15.7461 18.8947 16.265 17.5542 16.5946 16H15.0653C14.4253 18.77 13.1649 20.5 11.9999 20.5C10.8349 20.5 9.57445 18.77 8.93445 16H7.40515C7.73476 17.5542 8.25368 18.8947 8.90808 19.9121C7.01807 19.1703 5.45327 17.7743 4.50476 16H2.83484Z" fill="#9BB0CF"/>
</svg>
